<svg xmlns="http://www.w3.org/2000/svg" xmlns:xlink="http://www.w3.org/1999/xlink" fill="none" version="1.1" width="50" height="50" viewBox="0 0 50 50"><defs><filter id="master_svg0_82_15" filterUnits="objectBoundingBox" color-interpolation-filters="sRGB" x="0" y="0" width="50" height="50"><feFlood flood-opacity="0" result="BackgroundImageFix"/><feBlend mode="normal" in="SourceGraphic" in2="BackgroundImageFix" result="shape"/><feGaussianBlur in="BackgroundImage" stdDeviation="5"/><feComposite in2="SourceAlpha" operator="in" result="effect1_foregroundBlur"/><feBlend mode="normal" in="SourceGraphic" in2="effect1_foregroundBlur" result="shape"/></filter></defs><g filter="url(#master_svg0_82_15)"><g><path d="M25.5,0.916666L25.5,0L24.5,0L24.5,0.916666L25.5,0.916666ZM25.5,4.58333L25.5,2.75L24.5,2.75L24.5,4.58333L25.5,4.58333ZM25.5,8.25L25.5,6.41667L24.5,6.41667L24.5,8.25L25.5,8.25ZM25.5,11.9167L25.5,10.0833L24.5,10.0833L24.5,11.9167L25.5,11.9167ZM25.5,15.5833L25.5,13.75L24.5,13.75L24.5,15.5833L25.5,15.5833ZM25.5,19.25L25.5,17.4167L24.5,17.4167L24.5,19.25L25.5,19.25ZM24.5002,28.3669Q24.4932,28.366,24.4864,28.365Q23.405,28.2133,22.5958,27.4042Q21.7867,26.595,21.635,25.5136Q21.6344,25.5094,21.6338,25.5052Q21.6335,25.5026,21.6331,25.5L21.0833,25.5L21.0833,24.5L21.6331,24.5Q21.7816,23.41,22.5958,22.5958Q23.41,21.7816,24.5,21.6331L24.5,21.0833L25.5,21.0833L25.5,21.6331Q26.5901,21.7815,27.4044,22.5958Q28.2186,23.41,28.3671,24.5L28.9167,24.5L28.9167,25.5L28.3671,25.5Q28.2186,26.59,27.4044,27.4042Q26.5902,28.2184,25.5002,28.3669L25.5002,28.9167L24.5002,28.9167L24.5002,28.3669L24.5002,28.3669ZM24.8616,22.6035Q24.8542,22.6039,24.8465,22.6043Q23.9512,22.655,23.3032,23.3029Q22.6002,24.0059,22.6002,25Q22.6002,25.9941,23.3032,26.6971Q23.9621,27.356,24.8769,27.3972Q24.9379,27.4,25,27.4L25.0002,27.4Q25.9942,27.3999,26.6971,26.6971Q27.4,25.9941,27.4,25Q27.4,24.0059,26.6971,23.3029Q26.038,22.6439,25.1231,22.6027Q25.0622,22.6,25.0002,22.6L25,22.6Q24.9301,22.6,24.8616,22.6035ZM0.916666,24.5L0,24.5L0,25.5L0.916666,25.5L0.916666,24.5ZM4.58333,24.5L2.75,24.5L2.75,25.5L4.58333,25.5L4.58333,24.5ZM8.25,24.5L6.41667,24.5L6.41667,25.5L8.25,25.5L8.25,24.5ZM11.9167,24.5L10.0833,24.5L10.0833,25.5L11.9167,25.5L11.9167,24.5ZM15.5833,24.5L13.75,24.5L13.75,25.5L15.5833,25.5L15.5833,24.5ZM19.25,24.5L17.4167,24.5L17.4167,25.5L19.25,25.5L19.25,24.5ZM30.75,25.5L32.5833,25.5L32.5833,24.5L30.75,24.5L30.75,25.5ZM34.4167,25.5L36.25,25.5L36.25,24.5L34.4167,24.5L34.4167,25.5ZM38.0833,25.5L39.9167,25.5L39.9167,24.5L38.0833,24.5L38.0833,25.5ZM41.75,25.5L43.5833,25.5L43.5833,24.5L41.75,24.5L41.75,25.5ZM45.4167,25.5L47.25,25.5L47.25,24.5L45.4167,24.5L45.4167,25.5ZM49.0833,25.5L50,25.5L50,24.5L49.0833,24.5L49.0833,25.5ZM24.5002,30.75L24.5002,32.5833L25.5002,32.5833L25.5002,30.75L24.5002,30.75ZM24.5002,34.4167L24.5002,36.25L25.5002,36.25L25.5002,34.4167L24.5002,34.4167ZM24.5002,38.0833L24.5002,39.9167L25.5002,39.9167L25.5002,38.0833L24.5002,38.0833ZM24.5002,41.75L24.5002,43.5833L25.5002,43.5833L25.5002,41.75L24.5002,41.75ZM24.5002,45.4167L24.5002,47.25L25.5002,47.25L25.5002,45.4167L24.5002,45.4167ZM24.5002,49.0833L24.5002,50L25.5002,50L25.5002,49.0833L24.5002,49.0833Z" fill-rule="evenodd" fill="#232323" fill-opacity="1"/></g></g></svg>