<svg xmlns="http://www.w3.org/2000/svg" xmlns:xlink="http://www.w3.org/1999/xlink" fill="none" version="1.1" width="1443.9998779296875" height="161" viewBox="0 0 1443.9998779296875 161"><defs><filter id="master_svg0_82_28" filterUnits="objectBoundingBox" color-interpolation-filters="sRGB" x="0" y="0" width="1445" height="162"><feFlood flood-opacity="0" result="BackgroundImageFix"/><feColorMatrix in="SourceAlpha" type="matrix" values="0 0 0 0 0 0 0 0 0 0 0 0 0 0 0 0 0 0 127 0"/><feOffset dy="4" dx="4"/><feGaussianBlur stdDeviation="1"/><feColorMatrix type="matrix" values="0 0 0 0 0.6196078658103943 0 0 0 0 0.6196078658103943 0 0 0 0 0.6196078658103943 0 0 0 1 0"/><feBlend mode="normal" in2="BackgroundImageFix" result="effect1_dropShadow"/><feBlend mode="normal" in="SourceGraphic" in2="effect1_dropShadow" result="shape"/></filter></defs><g filter="url(#master_svg0_82_28)"><g><g><path d="M187.278,0L174.558,0L170.938,5.04918L150.828,5.04918L145.8,12.623L145.8,23.9836L155.277,23.9836L162.818,15.1475L180.993,15.1475L180.993,8.83607L182.25,7.57377L180.993,7.57377L180.993,5.04918L183.507,5.04918L184.764,3.78689L180.993,3.78689L180.993,1.2623L186.021,1.2623L187.278,0ZM703.862,5.04918L608.338,5.04918L603.31,15.1475L603.226,23.9836L624.031,23.9836L630.315,15.1475L713.917,15.1475L713.917,0L707.482,0L703.862,5.04918ZM91.6026,2.52459L87.9828,7.57377L52.5424,7.57377L31.7302,102.246L51.1962,102.246L83.8755,83.3115L95.2479,83.3115L86.4496,39.1311L105.332,39.1311L103.582,31.5574L99.2948,31.5574L98.0379,30.2951L103.29,30.2951L102.706,27.7705L96.781,27.7705L95.5241,26.5082L102.415,26.5082L98.0379,7.57377L98.0379,2.52459L91.6026,2.52459ZM359.472,7.57377L351.931,7.57377L351.931,53.4372L334.067,77.3585L369.528,83.2941L369.528,23.9836L361.986,23.9836L363.243,22.7213L369.528,22.7213L369.528,20.1967L364.5,20.1967L365.757,18.9344L369.528,18.9344L369.528,16.4098L367.014,16.4098L368.271,15.1475L369.528,15.1475L369.528,2.52459L363.092,2.52459L359.472,7.57377ZM107.828,148.951L95.7428,85.8361L84.5486,85.8361L51.8693,104.77L28.6009,104.77L49.9681,7.57377L35.1931,7.57377L30.5007,16.9989L0,148.951L37.7069,148.951L47.7621,111.082L82.9552,111.082L90.4966,148.951L107.828,148.951ZM183.507,20.1967L183.507,60.5902L216.186,7.57377L231.563,7.57377L197.627,64.3771L218.7,64.3771L206.131,83.3115L206.131,106.498L242.186,148.951L226.241,148.951L183.507,103.508L183.507,143.902L178.479,148.951L159.626,148.951L159.626,28.2374L166.488,20.1967L183.507,20.1967ZM331.821,76.1584L349.417,52.5956L349.417,7.57377L336.848,7.57377L331.821,17.6721L331.821,76.1584ZM316.738,20.1967L296.018,20.1967L290.343,28.175L290.343,148.951L316.738,148.951L316.738,137.59L309.197,137.59L310.453,136.328L316.738,136.328L316.738,133.803L311.71,133.803L312.967,132.541L316.738,132.541L316.738,130.016L314.224,130.016L315.481,128.754L316.738,128.754L316.738,20.1967ZM718.945,20.1967L636.636,20.1967L630.962,28.175L630.962,148.951L641.017,148.951L646.045,143.902L646.045,93.4098L700.091,93.4098L700.091,68.7507L718.945,56.1277L718.945,20.1967ZM93.0103,22.7213L94.2672,23.9836L101.809,23.9836L100.552,22.7213L93.0103,22.7213ZM50.2759,93.4098L77.9276,78.2623L65.3586,27.7705L50.2759,93.4098ZM646.045,75.7377L683.752,65.6393L683.752,27.7705L646.045,27.7705L646.045,75.7377ZM487.396,41.4111L474.501,97.1967L495.531,97.1967L495.531,116.63L465.361,148.951L500.245,148.951L510.3,111.082L545.493,111.082L553.034,148.951L570.119,148.951L561.765,105.803L577.213,79.5482L571.372,54.2787L569.374,54.2787L568.117,53.0164L571.08,53.0164L570.496,50.4918L566.86,50.4918L565.603,49.2295L570.205,49.2295L569.621,46.7049L564.347,46.7049L563.09,45.4426L569.329,45.4426L565.536,29.0328L528.211,29.0328L540.466,78.2623L512.814,93.4098L527.606,29.0328L501.962,29.0328L487.396,41.4111ZM628.448,148.951L628.448,29.0328L608.229,29.0328L607.081,148.951L628.448,148.951ZM285.315,151.475L285.315,31.5574L274.003,31.5574L274.003,151.475L285.315,151.475ZM615.879,39.1311C615.879,39.8283,616.442,40.3934,617.136,40.3934C617.83,40.3934,618.393,39.8283,618.393,39.1311C618.393,38.434,617.83,37.8689,617.136,37.8689C616.442,37.8689,615.879,38.434,615.879,39.1311ZM279.031,41.6557C279.031,42.3529,279.594,42.918,280.288,42.918C280.982,42.918,281.545,42.3529,281.545,41.6557C281.545,40.9586,280.982,40.3934,280.288,40.3934C279.594,40.3934,279.031,40.9586,279.031,41.6557ZM615.879,44.1803C615.879,44.8775,616.442,45.4426,617.136,45.4426C617.83,45.4426,618.393,44.8775,618.393,44.1803C618.393,43.4832,617.83,42.918,617.136,42.918C616.442,42.918,615.879,43.4832,615.879,44.1803ZM279.031,46.7049C279.031,47.4021,279.594,47.9672,280.288,47.9672C280.982,47.9672,281.545,47.4021,281.545,46.7049C281.545,46.0078,280.982,45.4426,280.288,45.4426C279.594,45.4426,279.031,46.0078,279.031,46.7049ZM615.879,49.2295C615.879,49.9267,616.442,50.4918,617.136,50.4918C617.83,50.4918,618.393,49.9267,618.393,49.2295C618.393,48.5324,617.83,47.9672,617.136,47.9672C616.442,47.9672,615.879,48.5324,615.879,49.2295ZM279.031,51.7541C279.031,52.4512,279.594,53.0164,280.288,53.0164C280.982,53.0164,281.545,52.4512,281.545,51.7541C281.545,51.0569,280.982,50.4918,280.288,50.4918C279.594,50.4918,279.031,51.0569,279.031,51.7541ZM349.417,134.308L349.417,102.985L366.912,85.4156L331.821,79.542L331.821,141.377L349.417,134.308ZM578.036,83.1111L564.415,106.262L572.68,148.951L593.255,148.951L578.036,83.1111ZM243.838,148.951L263.948,148.951L208.645,86.1654L208.645,105.568L244.794,148.132L243.838,148.951ZM199.847,93.4098C199.152,93.4098,198.59,92.8447,198.59,92.1475C198.59,91.4504,199.152,90.8852,199.847,90.8852C200.541,90.8852,201.103,91.4504,201.103,92.1475C201.103,92.8447,200.541,93.4098,199.847,93.4098ZM199.847,98.459C199.152,98.459,198.59,97.8939,198.59,97.1967C198.59,96.4996,199.152,95.9344,199.847,95.9344C200.541,95.9344,201.103,96.4996,201.103,97.1967C201.103,97.8939,200.541,98.459,199.847,98.459ZM667.771,114.869L690.744,114.869L711.348,148.951L729,148.951L701.348,95.9344L656.1,95.9344L659.212,100.984L663.641,100.984L664.898,102.246L659.99,102.246L661.547,104.77L666.155,104.77L667.412,106.033L662.325,106.033L663.881,108.557L668.669,108.557L669.926,109.82L664.659,109.82L667.771,114.869ZM199.847,103.508C199.152,103.508,198.59,102.943,198.59,102.246C198.59,101.549,199.152,100.984,199.847,100.984C200.541,100.984,201.103,101.549,201.103,102.246C201.103,102.943,200.541,103.508,199.847,103.508ZM381.8,148.951L331.821,148.951L412.262,126.23L447.455,126.23L447.455,135.066L409.452,135.066L381.8,148.951ZM12.569,132.541C12.569,133.238,13.1317,133.803,13.8259,133.803C14.52,133.803,15.0828,133.238,15.0828,132.541C15.0828,131.844,14.52,131.279,13.8259,131.279C13.1317,131.279,12.569,131.844,12.569,132.541ZM12.569,137.59C12.569,138.287,13.1317,138.852,13.8259,138.852C14.52,138.852,15.0828,138.287,15.0828,137.59C15.0828,136.893,14.52,136.328,13.8259,136.328C13.1317,136.328,12.569,136.893,12.569,137.59ZM12.569,142.639C12.569,143.336,13.1317,143.902,13.8259,143.902C14.52,143.902,15.0828,143.336,15.0828,142.639C15.0828,141.942,14.52,141.377,13.8259,141.377C13.1317,141.377,12.569,141.942,12.569,142.639Z" fill-rule="evenodd" fill="#232323" fill-opacity="1"/></g><g><path d="M258.9205667724609,7.573759538574219L222.88956677246094,61.85248953857422L204.58056677246094,61.85248953857422L237.00856677246094,7.573759538574219L248.86556677246094,7.573759538574219L252.48556677246094,2.5245826244342187L258.9205667724609,2.5245826244342187L258.9205667724609,7.573759538574219ZM288.4395667724609,26.508189538574218L276.5175667724609,26.508189538574218L276.5175667724609,17.67208953857422L281.54456677246094,7.573759538574219L306.682566772461,7.573759538574219L310.302566772461,2.5245826244342187L316.7375667724609,2.5245826244342187L316.7375667724609,17.67208953857422L294.7235667724609,17.67208953857422L288.4395667724609,26.508189538574218ZM564.952566772461,26.508189538574218L560.5755667724609,7.573759538574219L560.5755667724609,2.5245826244342187L554.1405667724609,2.5245826244342187L550.5205667724609,7.573759538574219L497.7305667724609,7.573759538574219L493.0385667724609,16.99888953857422L488.34656677246096,37.295689538574216L501.04156677246095,26.508189538574218L564.952566772461,26.508189538574218ZM148.31376677246095,148.9505895385742L148.31376677246095,29.032789538574217L157.11206677246093,29.032789538574217L157.11206677246093,148.9505895385742L148.31376677246095,148.9505895385742ZM90.49653625486094,42.91798953857422L108.09306677246093,42.91798953857422L133.23106677246093,153.9995895385742L113.12066677246094,153.9995895385742L90.49653625486094,42.91798953857422ZM707.6325667724609,70.10178953857422L723.9725667724609,59.16188953857422L723.9725667724609,93.40978953857422L707.6325667724609,93.40978953857422L707.6325667724609,70.10178953857422ZM713.917566772461,71.95078953857421C713.917566772461,72.64798953857422,714.4795667724609,73.21308953857422,715.173566772461,73.21308953857422C715.8685667724609,73.21308953857422,716.4305667724609,72.64798953857422,716.4305667724609,71.95078953857421C716.4305667724609,71.25368953857422,715.8685667724609,70.68848953857422,715.173566772461,70.68848953857422C714.4795667724609,70.68848953857422,713.917566772461,71.25368953857422,713.917566772461,71.95078953857421ZM713.917566772461,76.99998953857421C713.917566772461,77.69708953857422,714.4795667724609,78.26228953857422,715.173566772461,78.26228953857422C715.8685667724609,78.26228953857422,716.4305667724609,77.69708953857422,716.4305667724609,76.99998953857421C716.4305667724609,76.30288953857422,715.8685667724609,75.73768953857422,715.173566772461,75.73768953857422C714.4795667724609,75.73768953857422,713.917566772461,76.30288953857422,713.917566772461,76.99998953857421ZM713.917566772461,82.04918953857423C713.917566772461,82.74628953857422,714.4795667724609,83.31148953857422,715.173566772461,83.31148953857422C715.8685667724609,83.31148953857422,716.4305667724609,82.74628953857422,716.4305667724609,82.04918953857423C716.4305667724609,81.35198953857422,715.8685667724609,80.78688953857421,715.173566772461,80.78688953857421C714.4795667724609,80.78688953857421,713.917566772461,81.35198953857422,713.917566772461,82.04918953857423ZM354.4445667724609,104.03058953857422L372.04156677246095,86.35888953857422L372.04156677246095,126.22958953857422L354.4445667724609,133.29858953857422L354.4445667724609,104.03058953857422ZM487.98956677246093,118.15658953857422L457.71556677246093,148.0635895385742L468.8895667724609,102.24588953857422L487.98956677246093,102.24588953857422L487.98956677246093,118.15658953857422ZM482.6485667724609,107.29458953857421C482.6485667724609,107.99258953857422,483.21056677246094,108.55758953857422,483.90556677246093,108.55758953857422C484.59956677246095,108.55758953857422,485.16156677246096,107.99258953857422,485.16156677246096,107.29458953857421C485.16156677246096,106.59758953857421,484.59956677246095,106.03258953857421,483.90556677246093,106.03258953857421C483.21056677246094,106.03258953857421,482.6485667724609,106.59758953857421,482.6485667724609,107.29458953857421ZM482.6485667724609,112.34458953857421C482.6485667724609,113.04158953857421,483.21056677246094,113.60658953857421,483.90556677246093,113.60658953857421C484.59956677246095,113.60658953857421,485.16156677246096,113.04158953857421,485.16156677246096,112.34458953857421C485.16156677246096,111.64758953857422,484.59956677246095,111.08158953857422,483.90556677246093,111.08158953857422C483.21056677246094,111.08158953857422,482.6485667724609,111.64758953857422,482.6485667724609,112.34458953857421ZM482.6485667724609,117.39358953857422C482.6485667724609,118.09058953857422,483.21056677246094,118.65558953857422,483.90556677246093,118.65558953857422C484.59956677246095,118.65558953857422,485.16156677246096,118.09058953857422,485.16156677246096,117.39358953857422C485.16156677246096,116.69658953857422,484.59956677246095,116.13158953857422,483.90556677246093,116.13158953857422C483.21056677246094,116.13158953857422,482.6485667724609,116.69658953857422,482.6485667724609,117.39358953857422ZM688.779566772461,153.9995895385742L669.327566772461,122.44258953857423L689.3285667724609,122.44258953857423L708.4065667724609,153.9995895385742L688.779566772461,153.9995895385742ZM449.9685667724609,151.4755895385742L389.9345667724609,151.4755895385742L412.55856677246095,140.11458953857422L449.9685667724609,140.11458953857422L449.9685667724609,151.4755895385742Z" fill-rule="evenodd" fill="#2377F5" fill-opacity="1"/></g></g><g><g><path d="M850.1948,83.3382L840.1187,83.3382L847.7987,44.95588L819.4251,44.95588L809.5691,36L781.52,36L779.42545,51.3529L788.1159,51.3529L782.6041,92.2941L817.36,92.2941L825.04,51.3529L840.4,51.3529L827.6,110.2059L778.96,110.2059L777.168,112.7647L782.8,112.7647L781.52,114.0441L776.272,114.0441L775.376,115.3235L781.52,115.3235L780.24,116.6029L774.48,116.6029L773.584,117.8824L780.24,117.8824L778.96,119.1618L772.688,119.1618L770,123L799.4286,123L803.8172,115.3235L841.6800000000001,115.3235L841.6800000000001,115.6891L845.52,110.2059L850.1948,83.3382ZM789.2,82.05879999999999L807.12,82.05879999999999L812.24,51.3529L794.32,51.3529L789.2,82.05879999999999ZM840.4,98.69120000000001C840.4,99.39779999999999,839.8269,99.97059999999999,839.12,99.97059999999999C838.4131,99.97059999999999,837.84,99.39779999999999,837.84,98.69120000000001C837.84,97.9846,838.4131,97.4118,839.12,97.4118C839.8269,97.4118,840.4,97.9846,840.4,98.69120000000001ZM840.4,103.8088C840.4,104.5154,839.8269,105.0882,839.12,105.0882C838.4131,105.0882,837.84,104.5154,837.84,103.8088C837.84,103.1022,838.4131,102.5294,839.12,102.5294C839.8269,102.5294,840.4,103.1022,840.4,103.8088ZM840.4,108.9265C840.4,109.6331,839.8269,110.2059,839.12,110.2059C838.4131,110.2059,837.84,109.6331,837.84,108.9265C837.84,108.2199,838.4131,107.6471,839.12,107.6471C839.8269,107.6471,840.4,108.2199,840.4,108.9265Z" fill-rule="evenodd" fill="#232323" fill-opacity="1"/></g><g><path d="M851.92,80.77940000000001L844.24,80.77940000000001L852.2012,42.397059999999996L821.695,42.397059999999996L814.655,36L866,36L864.72,37.27941L859.3866,37.27941L859.1734,38.55882L864.72,38.55882L863.44,39.83824L858.96,39.83824L858.7466,41.11765L863.44,41.11765L862.16,42.397059999999996L858.5334,42.397059999999996L858.3199999999999,42.397059999999996L851.92,80.77940000000001ZM775.83844,94.8529L781.3241,56.470600000000005L775.23625,56.470600000000005L770,94.8529L775.83844,94.8529ZM773.84,79.5C774.54692,79.5,775.12,78.9272,775.12,78.22059999999999C775.12,77.51400000000001,774.54692,76.94120000000001,773.84,76.94120000000001C773.13308,76.94120000000001,772.56,77.51400000000001,772.56,78.22059999999999C772.56,78.9272,773.13308,79.5,773.84,79.5ZM773.84,84.61760000000001C774.54692,84.61760000000001,775.12,84.04480000000001,775.12,83.3382C775.12,82.63159999999999,774.54692,82.05879999999999,773.84,82.05879999999999C773.13308,82.05879999999999,772.56,82.63159999999999,772.56,83.3382C772.56,84.04480000000001,773.13308,84.61760000000001,773.84,84.61760000000001ZM773.84,89.7353C774.54692,89.7353,775.12,89.1625,775.12,88.4559C775.12,87.7493,774.54692,87.1765,773.84,87.1765C773.13308,87.1765,772.56,87.7493,772.56,88.4559C772.56,89.1625,773.13308,89.7353,773.84,89.7353ZM838.864,117.8824L805.84,117.8824L803.28,123L836.56,123L838.864,117.8824Z" fill-rule="evenodd" fill="#2377F5" fill-opacity="1"/></g></g><g><g><path d="M923.2961,47.31333377075195L934.3418,47.31333377075195L934.3418,61.22893377075195L952.7513,61.22893377075195L952.7513,64.93983377075196L927.2849,64.93983377075196L919.9211,70.50603377075196L896.60237,70.50603377075196L896.60237,67.72293377075195L897.52285,67.72293377075195L898.44332,66.79523377075196L896.60237,66.79523377075196L896.60237,65.86753377075195L898.44332,65.86753377075195L899.3638,64.93983377075196L896.60237,64.93983377075196L896.60237,64.01213377075194L899.3638,64.01213377075194L900.28427,63.08443377075195L896.60237,63.08443377075195L896.60237,61.22893377075195L914.0914,61.22893377075195L914.0914,20.409733770751956L921.4552,5.566333770751953L923.2961,5.566333770751953L923.2961,47.31333377075195ZM987.7293999999999,151.21733377075196L976.6837,151.21733377075196L976.6837,39.38113377075195L984.292,23.192833770751953L1017.185,23.192833770751953L1017.185,5.566333770751953L1033.753,5.566333770751953L1033.753,12.988023770751953L1055.845,12.988023770751953L1059.526,7.421753770751954L1069.652,7.421753770751954L1068.731,8.349463770751953L1065.049,8.349463770751953L1065.049,9.277173770751954L1068.731,9.277173770751954L1067.811,10.204883770751954L1065.049,10.204883770751954L1065.049,11.132593770751953L1067.811,11.132593770751953L1066.8899999999999,12.060303770751954L1065.049,12.060303770751954L1065.049,19.482033770751954L1030.071,19.482033770751954L1030.071,31.542233770751952L987.7293999999999,31.542233770751952L987.7293999999999,63.08443377075195L1011.662,63.08443377075195L1011.662,53.80723377075196L995.093,53.80723377075196L995.093,40.81933377075195L1011.662,40.81933377075195L1011.662,35.253033770751955L1021.787,35.253033770751955L1021.787,114.10833377075195L993.252,114.10833377075195L993.252,109.47033377075195L1011.662,109.47033377075195L1011.662,100.19283377075195L995.093,100.19283377075195L995.093,87.20483377075195L1011.662,87.20483377075195L1011.662,77.92773377075196L987.7293999999999,77.92773377075196L987.7293999999999,151.21733377075196ZM893.84095,7.421753770751954L897.52285,51.95183377075195L910.4095,51.95183377075195L906.7276,7.421753770751954L893.84095,7.421753770751954ZM1108.523,96.48193377075195L1092.245,111.32533377075195L1081.618,111.32533377075195L1081.618,107.61433377075195L1083.919,102.97593377075195L1087.141,102.97593377075195L1088.061,102.04823377075195L1084.379,102.04823377075195L1084.839,101.12053377075195L1088.061,101.12053377075195L1088.982,100.19283377075195L1085.3,100.19283377075195L1085.76,99.26513377075196L1088.982,99.26513377075196L1089.902,98.33743377075196L1086.22,98.33743377075196L1088.982,92.77113377075196L1140.528,92.77113377075196L1140.528,83.49403377075195L1087.141,83.49403377075195L1140.528,74.21693377075195L1140.528,53.80723377075196L1125.801,53.80723377075196L1125.801,68.65063377075195L1108.312,72.00803377075195L1108.312,39.60803377075195L1124.077,19.482033770751954L1102.789,19.482033770751954L1102.789,7.421753770751954L1157.097,7.421753770751954L1157.097,96.48193377075195L1108.523,96.48193377075195ZM1140.528,111.32533377075195L1097.733,111.32533377075195L1109.941,100.19283377075195L1160.779,100.19283377075195L1160.779,7.421753770751954L1212.248,7.421753770751954L1200.359,32.98433377075195L1200.359,57.51813377075195L1216.9279999999999,57.51813377075195L1216.9279999999999,83.49403377075195L1186.5520000000001,83.49403377075195L1186.5520000000001,92.77113377075196L1236.258,92.77113377075196L1239.94,87.20483377075195L1245.462,87.20483377075195L1245.462,111.32533377075195L1184.711,111.32533377075195L1184.711,146.57833377075195L1181.029,152.14433377075196L1161.027,152.14433377075196L1168.142,143.53933377075197L1168.142,121.53033377075195L1140.528,121.53033377075195L1140.528,111.32533377075195ZM1282.281,7.421753770751954L1363.283,7.421753770751954L1363.283,18.554233770751953L1431.3980000000001,18.554233770751953L1431.3980000000001,51.95183377075195L1311.737,51.95183377075195L1311.737,150.28933377075197L1290.566,150.28933377075197L1290.566,68.50103377075195L1274.9180000000001,81.11793377075195L1274.9180000000001,22.26513377075195L1277.219,17.626533770751955L1280.44,17.626533770751955L1281.3609999999999,16.698833770751953L1277.679,16.698833770751953L1278.1390000000001,15.771133770751954L1281.3609999999999,15.771133770751954L1282.281,14.843443770751954L1278.599,14.843443770751954L1279.06,13.915733770751952L1282.281,13.915733770751952L1283.202,12.988023770751953L1279.52,12.988023770751953L1282.281,7.421753770751954ZM1129.483,25.975933770751954L1142.369,25.975933770751954L1142.369,35.253033770751955L1129.483,35.253033770751955L1129.483,25.975933770751954ZM1173.665,25.975933770751954L1186.5520000000001,25.975933770751954L1186.5520000000001,35.253033770751955L1173.665,35.253033770751955L1173.665,25.975933770751954ZM1311.737,25.975933770751954L1396.42,25.975933770751954L1396.42,35.253033770751955L1311.737,35.253033770751955L1311.737,25.975933770751954ZM1404.705,27.831433770751953C1405.213,27.831433770751953,1405.625,27.41603377075195,1405.625,26.903633770751952C1405.625,26.391333770751952,1405.213,25.975933770751954,1404.705,25.975933770751954C1404.196,25.975933770751954,1403.784,26.391333770751952,1403.784,26.903633770751952C1403.784,27.41603377075195,1404.196,27.831433770751953,1404.705,27.831433770751953ZM1404.705,31.542233770751952C1405.213,31.542233770751952,1405.625,31.126833770751954,1405.625,30.614533770751954C1405.625,30.10213377075195,1405.213,29.686833770751953,1404.705,29.686833770751953C1404.196,29.686833770751953,1403.784,30.10213377075195,1403.784,30.614533770751954C1403.784,31.126833770751954,1404.196,31.542233770751952,1404.705,31.542233770751952ZM1404.705,35.253033770751955C1405.213,35.253033770751955,1405.625,34.83773377075195,1405.625,34.32533377075195C1405.625,33.81303377075196,1405.213,33.39763377075195,1404.705,33.39763377075195C1404.196,33.39763377075195,1403.784,33.81303377075196,1403.784,34.32533377075195C1403.784,34.83773377075195,1404.196,35.253033770751955,1404.705,35.253033770751955ZM1025.469,117.81933377075195L1025.469,35.253033770751955L1039.276,35.253033770751955L1039.276,40.81933377075195L1046.38,40.81933377075195L1055.845,51.721333770751954L1055.845,91.07483377075195L1046.798,100.19283377075195L1037.435,100.19283377075195L1037.435,109.47033377075195L1063.208,109.47033377075195L1063.208,121.25833377075195L1044.799,129.60733377075195L1044.799,152.14433377075196L993.252,152.14433377075196L1036.5149999999999,136.37333377075194L1036.5149999999999,126.16833377075196L1019.026,126.16833377075196L1019.026,135.44533377075194L993.252,144.72333377075196L993.252,132.66233377075196L995.093,132.66233377075196L996.014,131.73533377075194L993.252,131.73533377075194L993.252,130.80733377075194L996.014,130.80733377075194L996.934,129.87933377075194L993.252,129.87933377075194L993.252,128.95233377075195L996.934,128.95233377075195L997.855,128.02433377075195L993.252,128.02433377075195L993.252,117.81933377075195L1025.469,117.81933377075195ZM973.0018,40.81933377075195L961.8522,40.81933377075195L961.4068,96.48193377075195L973.0018,96.48193377075195L973.0018,40.81933377075195ZM929.7395,51.95183377075195C930.2478,51.95183377075195,930.6599,51.53653377075195,930.6599,51.02413377075195C930.6599,50.511833770751956,930.2478,50.09643377075195,929.7395,50.09643377075195C929.2311,50.09643377075195,928.819,50.511833770751956,928.819,51.02413377075195C928.819,51.53653377075195,929.2311,51.95183377075195,929.7395,51.95183377075195ZM1173.665,51.95183377075195L1186.5520000000001,51.95183377075195L1186.5520000000001,61.22893377075195L1173.665,66.79523377075196L1173.665,51.95183377075195ZM929.7395,55.662733770751956C930.2478,55.662733770751956,930.6599,55.24733377075195,930.6599,54.735033770751954C930.6599,54.222633770751955,930.2478,53.80723377075196,929.7395,53.80723377075196C929.2311,53.80723377075196,928.819,54.222633770751955,928.819,54.735033770751954C928.819,55.24733377075195,929.2311,55.662733770751956,929.7395,55.662733770751956ZM1037.435,53.80723377075196L1050.3220000000001,53.80723377075196L1050.3220000000001,63.08443377075195L1037.435,63.08443377075195L1037.435,53.80723377075196ZM929.7395,59.373533770751955C930.2478,59.373533770751955,930.6599,58.95823377075195,930.6599,58.44583377075195C930.6599,57.933433770751954,930.2478,57.51813377075195,929.7395,57.51813377075195C929.2311,57.51813377075195,928.819,57.933433770751954,928.819,58.44583377075195C928.819,58.95823377075195,929.2311,59.373533770751955,929.7395,59.373533770751955ZM1410.385,103.90363377075195L1333.498,103.90363377075195L1350.873,79.72163377075195L1334.566,59.373533770751955L1431.3980000000001,59.373533770751955L1431.3980000000001,68.65063377075195L1427.716,74.21693377075195L1363.283,74.21693377075195L1359.601,87.20483377075195L1389.056,87.20483377075195L1389.056,77.92773377075196L1418.512,77.92773377075196L1422.194,85.34943377075196L1400.742,85.34943377075196L1410.385,103.90363377075195ZM983.127,66.79523377075196C983.6354,66.79523377075196,984.0475,66.37983377075196,984.0475,65.86753377075195C984.0475,65.35513377075196,983.6354,64.93983377075196,983.127,64.93983377075196C982.6187,64.93983377075196,982.2065,65.35513377075196,982.2065,65.86753377075195C982.2065,66.37983377075196,982.6187,66.79523377075196,983.127,66.79523377075196ZM928.5122,68.65063377075195L952.7513,68.65063377075195L952.7513,72.36153377075195L949.0694,77.92773377075196L934.3418,77.92773377075196L934.3418,150.28933377075197L914.0914,150.28933377075197L914.0914,77.92773377075196L896.60237,77.92773377075196L896.60237,74.21693377075195L921.1484,74.21693377075195L928.5122,68.65063377075195ZM983.127,70.50603377075196C983.6354,70.50603377075196,984.0475,70.09073377075195,984.0475,69.57833377075195C984.0475,69.06603377075194,983.6354,68.65063377075195,983.127,68.65063377075195C982.6187,68.65063377075195,982.2065,69.06603377075194,982.2065,69.57833377075195C982.2065,70.09073377075195,982.6187,70.50603377075196,983.127,70.50603377075196ZM983.127,74.21693377075195C983.6354,74.21693377075195,984.0475,73.80153377075196,984.0475,73.28923377075195C984.0475,72.77683377075195,983.6354,72.36153377075195,983.127,72.36153377075195C982.6187,72.36153377075195,982.2065,72.77683377075195,982.2065,73.28923377075195C982.2065,73.80153377075196,982.6187,74.21693377075195,983.127,74.21693377075195ZM1037.435,77.92773377075196L1050.3220000000001,77.92773377075196L1050.3220000000001,85.34943377075196L1037.435,87.20483377075195L1037.435,77.92773377075196ZM942.6261,97.64023377075195L938.9858,101.83323377075196L938.0237,85.34943377075196L942.6261,85.34943377075196L942.6261,97.64023377075195ZM892,150.28933377075197L898.44669,150.28933377075197L898.44677,150.17533377075196L901.08859,106.68633377075196L894.47213,106.68633377075196L892,150.28933377075197ZM1354.078,135.44533377075194L1317.259,135.44533377075194L1317.259,138.22933377075196L1365.559,138.22933377075196L1374.763,142.86733377075194L1408.28,142.86733377075194L1414.975,150.28933377075197L1429.557,150.28933377075197L1433.239,144.72333377075196L1433.239,135.44533377075194L1394.579,135.44533377075194L1394.579,128.02433377075195L1427.716,128.02433377075195L1427.716,113.18033377075196L1394.579,113.18033377075196L1394.579,107.61433377075195L1354.078,107.61433377075195L1354.078,113.18033377075196L1328.305,113.18033377075196L1325.5439999999999,118.74733377075195L1331.066,118.74733377075195L1330.146,119.67433377075196L1325.083,119.67433377075196L1324.623,120.60233377075195L1330.146,120.60233377075195L1329.226,121.53033377075195L1324.163,121.53033377075195L1323.703,122.45833377075195L1329.226,122.45833377075195L1328.305,123.38533377075196L1323.242,123.38533377075196L1320.941,128.02433377075195L1354.078,128.02433377075195L1354.078,135.44533377075194ZM1042.037,115.03633377075195C1042.546,115.03633377075195,1042.958,114.62033377075196,1042.958,114.10833377075195C1042.958,113.59633377075195,1042.546,113.18033377075196,1042.037,113.18033377075196C1041.529,113.18033377075196,1041.117,113.59633377075195,1041.117,114.10833377075195C1041.117,114.62033377075196,1041.529,115.03633377075195,1042.037,115.03633377075195ZM1042.037,118.74733377075195C1042.546,118.74733377075195,1042.958,118.33133377075195,1042.958,117.81933377075195C1042.958,117.30733377075195,1042.546,116.89133377075196,1042.037,116.89133377075196C1041.529,116.89133377075196,1041.117,117.30733377075195,1041.117,117.81933377075195C1041.117,118.33133377075195,1041.529,118.74733377075195,1042.037,118.74733377075195ZM1114.755,150.28933377075197L1102.544,150.28933377075197L1122.35,126.16833377075196L1097.061,126.16833377075196L1103.709,116.89133377075196L1136.846,116.89133377075196L1114.755,150.28933377075197ZM1225.212,116.89133377075196L1190.234,116.89133377075196L1212.325,150.28933377075197L1223.141,150.28933377075197L1209.112,126.16833377075196L1231.8600000000001,126.16833377075196L1225.212,116.89133377075196ZM1419.432,118.74733377075195C1419.94,118.74733377075195,1420.353,118.33133377075195,1420.353,117.81933377075195C1420.353,117.30733377075195,1419.94,116.89133377075196,1419.432,116.89133377075196C1418.924,116.89133377075196,1418.512,117.30733377075195,1418.512,117.81933377075195C1418.512,118.33133377075195,1418.924,118.74733377075195,1419.432,118.74733377075195ZM952.7513,141.01233377075195L949.593,143.13433377075197L947.322,124.06033377075195L951.3608,119.98933377075195L952.7513,141.01233377075195ZM1042.037,122.45833377075195C1042.546,122.45833377075195,1042.958,122.04233377075195,1042.958,121.53033377075195C1042.958,121.01733377075195,1042.546,120.60233377075195,1042.037,120.60233377075195C1041.529,120.60233377075195,1041.117,121.01733377075195,1041.117,121.53033377075195C1041.117,122.04233377075195,1041.529,122.45833377075195,1042.037,122.45833377075195ZM1419.432,122.45833377075195C1419.94,122.45833377075195,1420.353,122.04233377075195,1420.353,121.53033377075195C1420.353,121.01733377075195,1419.94,120.60233377075195,1419.432,120.60233377075195C1418.924,120.60233377075195,1418.512,121.01733377075195,1418.512,121.53033377075195C1418.512,122.04233377075195,1418.924,122.45833377075195,1419.432,122.45833377075195ZM1419.432,126.16833377075196C1419.94,126.16833377075196,1420.353,125.75333377075195,1420.353,125.24133377075195C1420.353,124.72833377075196,1419.94,124.31333377075195,1419.432,124.31333377075195C1418.924,124.31333377075195,1418.512,124.72833377075196,1418.512,125.24133377075195C1418.512,125.75333377075195,1418.924,126.16833377075196,1419.432,126.16833377075196ZM1301.6109999999999,135.44533377075194C1302.12,135.44533377075194,1302.532,135.03033377075195,1302.532,134.51833377075195C1302.532,134.00533377075195,1302.12,133.59033377075195,1301.6109999999999,133.59033377075195C1301.103,133.59033377075195,1300.691,134.00533377075195,1300.691,134.51833377075195C1300.691,135.03033377075195,1301.103,135.44533377075194,1301.6109999999999,135.44533377075194ZM1301.6109999999999,139.15633377075196C1302.12,139.15633377075196,1302.532,138.74133377075196,1302.532,138.22933377075196C1302.532,137.71633377075196,1302.12,137.30133377075197,1301.6109999999999,137.30133377075197C1301.103,137.30133377075197,1300.691,137.71633377075196,1300.691,138.22933377075196C1300.691,138.74133377075196,1301.103,139.15633377075196,1301.6109999999999,139.15633377075196ZM1301.6109999999999,142.86733377075194C1302.12,142.86733377075194,1302.532,142.45233377075195,1302.532,141.93933377075194C1302.532,141.42733377075194,1302.12,141.01233377075195,1301.6109999999999,141.01233377075195C1301.103,141.01233377075195,1300.691,141.42733377075194,1300.691,141.93933377075194C1300.691,142.45233377075195,1301.103,142.86733377075194,1301.6109999999999,142.86733377075194Z" fill-rule="evenodd" fill="#232323" fill-opacity="1"/></g><g><path d="M1206.8808203125,31.9554L1219.1548203125,5.56626L1231.7338203125,5.56626L1235.4158203125,0L1245.5408203125,0L1244.6208203125,0.927711L1240.9388203125,0.927711L1240.9388203125,1.85542L1244.6208203125,1.85542L1243.6998203125,2.78313L1240.9388203125,2.78313L1240.9388203125,3.71084L1243.6998203125,3.71084L1242.7798203125,4.63855L1240.9388203125,4.63855L1240.9388203125,81.6385L1223.4498203125,81.6385L1223.4498203125,51.9518L1206.8808203125,51.9518L1206.8808203125,31.9554ZM1436.9998203125,0L1426.8748203125,0L1423.1928203124999,5.56626L1367.9638203125,5.56626L1367.9638203125,12.9879L1432.3978203125,12.9879L1432.3978203125,4.63855L1434.2388203125001,4.63855L1435.1588203125,3.71084L1432.3978203125,3.71084L1432.3978203125,2.78313L1435.1588203125,2.78313L1436.0798203125,1.85542L1432.3978203125,1.85542L1432.3978203125,0.927711L1436.0798203125,0.927711L1436.9998203125,0ZM926.1363203125,41.747L933.5001203125,41.747L933.5001203125,3.71084L926.1363203125,3.71084L926.1363203125,41.747ZM997.9338203125,5.56626L1012.6608203124999,5.56626L1012.6608203124999,19.4819L981.1203203125,19.4819L972.8360203125,37.1084L961.0401203125,37.1084L961.1144203125,27.8313L968.4782203125,12.9879L997.9338203125,12.9879L997.9338203125,5.56626ZM937.1820203125,51.9518L950.0687203125,51.9518L953.7506203125,7.42169L940.8639203125,7.42169L937.1820203125,51.9518ZM1086.2988203125,76.0723L1103.7878203125001,72.3614L1103.7878203125001,38.3197L1115.6368203125,23.1928L1098.2648203125,23.1928L1098.2648203125,7.42169L1093.6628203125001,7.42169L1086.2988203125,22.2651L1086.2988203125,76.0723ZM1032.9118203125,23.1928L1064.2078203125,23.1928L1064.2078203125,25.9759L1060.5258203125,31.5422L1032.9118203125,31.5422L1032.9118203125,23.1928ZM1058.6848203125,50.327L1050.4308203125,40.8193L1062.3668203125,40.8193L1062.3668203125,63.0843L1067.8898203125,63.0843L1067.8898203125,77.9277L1064.2078203125,77.9277L1064.2078203125,100.193L1051.1628203125001,100.193L1058.6848203125,92.6119L1058.6848203125,50.327ZM1214.2448203125,40.8193C1214.7528203125,40.8193,1215.1658203125,40.4039,1215.1658203125,39.8916C1215.1658203125,39.3792,1214.7528203125,38.9639,1214.2448203125,38.9639C1213.7368203125,38.9639,1213.3248203125,39.3792,1213.3248203125,39.8916C1213.3248203125,40.4039,1213.7368203125,40.8193,1214.2448203125,40.8193ZM1214.2448203125,44.5301C1214.7528203125,44.5301,1215.1658203125,44.1148,1215.1658203125,43.6024C1215.1658203125,43.09,1214.7528203125,42.6747,1214.2448203125,42.6747C1213.7368203125,42.6747,1213.3248203125,43.09,1213.3248203125,43.6024C1213.3248203125,44.1148,1213.7368203125,44.5301,1214.2448203125,44.5301ZM1214.2448203125,48.241C1214.7528203125,48.241,1215.1658203125,47.8256,1215.1658203125,47.3132C1215.1658203125,46.8009,1214.7528203125,46.3855,1214.2448203125,46.3855C1213.7368203125,46.3855,1213.3248203125,46.8009,1213.3248203125,47.3132C1213.3248203125,47.8256,1213.7368203125,48.241,1214.2448203125,48.241ZM1094.5828203125,55.6626C1095.0918203125,55.6626,1095.5038203125,55.2473,1095.5038203125,54.7349C1095.5038203125,54.2226,1095.0918203125,53.8072,1094.5828203125,53.8072C1094.0748203125,53.8072,1093.6628203125001,54.2226,1093.6628203125001,54.7349C1093.6628203125001,55.2473,1094.0748203125,55.6626,1094.5828203125,55.6626ZM1094.5828203125,59.3735C1095.0918203125,59.3735,1095.5038203125,58.9581,1095.5038203125,58.4458C1095.5038203125,57.9334,1095.0918203125,57.5181,1094.5828203125,57.5181C1094.0748203125,57.5181,1093.6628203125001,57.9334,1093.6628203125001,58.4458C1093.6628203125001,58.9581,1094.0748203125,59.3735,1094.5828203125,59.3735ZM1345.3968203125,79.8446L1328.1108203125,103.904L1316.4178203125,103.904L1326.5428203125,74.2169L1316.4178203125,74.2169L1316.4178203125,59.3735L1328.9908203125,59.3735L1345.3968203125,79.8446ZM1094.5828203125,63.0843C1095.0918203125,63.0843,1095.5038203125,62.669,1095.5038203125,62.1566C1095.5038203125,61.6443,1095.0918203125,61.2289,1094.5828203125,61.2289C1094.0748203125,61.2289,1093.6628203125001,61.6443,1093.6628203125001,62.1566C1093.6628203125001,62.669,1094.0748203125,63.0843,1094.5828203125,63.0843ZM1284.2008203125001,78.0773L1284.2008203125001,152.145L1261.1888203125,152.145L1272.2348203125,141.94L1272.2348203125,87.7255L1284.2008203125001,78.0773ZM904.1611203125,102.976L901.2869603125,150.289L905.8859203125,150.289L909.5678203125,85.3494L894.8401933125,85.3494L893.8408203125,102.976L904.1611203125,102.976ZM938.5675203125,106.981L938.4379203125,106.867L940.8639203125,148.434L945.3177203125,145.441L942.6114203125001,122.711L950.1936203125,115.069L948.2277203125,85.3494L945.4663203125,85.3494L945.4663203125,99.0345L938.5675203125,106.981ZM1409.6668203125,90.9156L1426.8748203125,90.9156L1429.6358203125,96.4819L1425.0338203125,96.4819L1425.9538203125,97.4096L1430.0958203125,97.4096L1430.5568203125,98.3373L1425.9538203125,98.3373L1426.8748203125,99.265L1431.0168203125,99.265L1431.4768203125,100.193L1426.8748203125,100.193L1427.7948203125,101.12L1431.9368203125,101.12L1434.2388203125001,105.759L1417.3808203125,105.759L1409.6668203125,90.9156ZM899.4425703125,92.7711C899.9509303125,92.7711,900.3630403125,92.3557,900.3630403125,91.8434C900.3630403125,91.331,899.9509303125,90.9156,899.4425703125,90.9156C898.9342003125,90.9156,898.5220903125,91.331,898.5220903125,91.8434C898.5220903125,92.3557,898.9342003125,92.7711,899.4425703125,92.7711ZM899.4425703125,96.4819C899.9509303125,96.4819,900.3630403125,96.0666,900.3630403125,95.5542C900.3630403125,95.0418,899.9509303125,94.6265,899.4425703125,94.6265C898.9342003125,94.6265,898.5220903125,95.0418,898.5220903125,95.5542C898.5220903125,96.0666,898.9342003125,96.4819,899.4425703125,96.4819ZM899.4425703125,100.193C899.9509303125,100.193,900.3630403125,99.7774,900.3630403125,99.265C900.3630403125,98.7527,899.9509303125,98.3373,899.4425703125,98.3373C898.9342003125,98.3373,898.5220903125,98.7527,898.5220903125,99.265C898.5220903125,99.7774,898.9342003125,100.193,899.4425703125,100.193ZM949.1482203125,153.072L972.1600203125,153.072L972.1600203125,102.048L960.5354203125,102.048L960.1939203125,144.723L949.1482203125,153.072ZM1161.7778203125,144.051L1153.5518203125,154L1137.8458203125,154L1137.8458203125,127.096L1161.7778203125,127.096L1161.7778203125,144.051ZM1051.3208203125,132.007L1066.0488203125,125.327L1066.0488203125,146.578L1062.3668203125,152.145L1051.3208203125,152.145L1051.3208203125,132.007ZM1078.9348203125,152.145L1096.9228203124999,152.145L1113.6818203125,131.735L1093.5608203125,131.735L1078.9348203125,152.145ZM1250.1438203124999,150.289L1228.4088203125,150.289L1216.5378203125001,129.88L1235.5178203125001,129.88L1243.4958203125,141.012L1240.9388203125,141.012L1241.8588203125,141.94L1244.1608203125,141.94L1244.8248203125,142.867L1241.8588203125,142.867L1242.7798203125,143.795L1245.4898203125,143.795L1246.1548203125,144.723L1242.7798203125,144.723L1243.6998203125,145.651L1246.8198203125,145.651L1250.1438203124999,150.289ZM1147.9708203125,137.301C1148.4788203125,137.301,1148.8908203125,136.886,1148.8908203125,136.373C1148.8908203125,135.861,1148.4788203125,135.446,1147.9708203125,135.446C1147.4628203125,135.446,1147.0498203125,135.861,1147.0498203125,136.373C1147.0498203125,136.886,1147.4628203125,137.301,1147.9708203125,137.301ZM1147.9708203125,141.012C1148.4788203125,141.012,1148.8908203125,140.597,1148.8908203125,140.084C1148.8908203125,139.572,1148.4788203125,139.157,1147.9708203125,139.157C1147.4628203125,139.157,1147.0498203125,139.572,1147.0498203125,140.084C1147.0498203125,140.597,1147.4628203125,141.012,1147.9708203125,141.012ZM1147.9708203125,144.723C1148.4788203125,144.723,1148.8908203125,144.308,1148.8908203125,143.795C1148.8908203125,143.283,1148.4788203125,142.867,1147.9708203125,142.867C1147.4628203125,142.867,1147.0498203125,143.283,1147.0498203125,143.795C1147.0498203125,144.308,1147.4628203125,144.723,1147.9708203125,144.723ZM1318.2588203125001,152.145L1318.2588203125001,143.795L1365.6888203125,143.795L1374.8938203124999,148.434L1407.6508203125,148.434L1410.9978203125002,152.145L1318.2588203125001,152.145Z" fill-rule="evenodd" fill="#2377F5" fill-opacity="1"/></g></g></g></svg>