<svg xmlns="http://www.w3.org/2000/svg" xmlns:xlink="http://www.w3.org/1999/xlink" fill="none" version="1.1" width="1866" height="115.24526977539062" viewBox="0 0 1866 115.24526977539062"><g><g><path d="M337.11,37.94091967773438Q327.102,35.66091967773438,0.5,8.300919677734374L0.5,0.548919677734375L337.11,32.012919677734374L680.998,48.42891967773438L696.463,40.22091967773437L882.508,40.22091967773437L933,89.92491967773438L983.491,40.22091967773437L1169.54,40.22091967773437L1185,48.42891967773438L1528.89,32.012919677734374L1865.5,0.548919677734375L1865.5,8.300919677734374Q1538.9,35.66091967773438,1528.89,37.94091967773438Q1518.88,40.22091967773437,988.04,61.19691967773438L933,114.54891967773438L877.96,61.19691967773438Q347.117,40.22091967773437,337.11,37.94091967773438Z" fill-rule="evenodd" fill="#FFFFFF" fill-opacity="1"/><path d="M877.749,61.68901967773437Q347.061,40.72041967773438,336.999,38.428419677734375Q327.024,36.15601967773438,0.4582604,8.799169677734374L0,8.760779677734375L0,0.0000036777343750404867L337.145,31.514019677734375L337.156,31.515119677734376L680.884,47.92291967773438L696.339,39.72091967773437L882.713,39.72091967773437L933,89.22331967773438L983.287,39.72091967773437L1169.66,39.72091967773437L1185.12,47.92291967773438L1528.84,31.514619677734373L1528.87,31.513519677734376L1866,0.0000036777343750404867L1866,8.760779677734375L1865.54,8.799169677734374Q1539,36.152919677734374,1529,38.428419677734375Q1518.94,40.72051967773437,988.251,61.68901967773437L933,115.24491967773437L877.749,61.68901967773437ZM933,113.85291967773438L878.17,60.70481967773438L877.979,60.69731967773438Q347.188,39.72471967773438,337.221,37.453419677734374Q327.185,35.16701967773437,1,7.841049677734375L1,1.097835677734375L337.075,32.51181967773438L681.111,48.93491967773438L696.588,40.72091967773437L882.304,40.72091967773437L933,90.62651967773438L983.696,40.72091967773437L1169.41,40.72091967773437L1184.89,48.93491967773438L1528.93,32.51181967773438L1865,1.097833677734375L1865,7.841059677734375Q1538.87,35.163819677734374,1528.78,37.453419677734374Q1518.8,39.72541967773437,988.021,60.69731967773438L987.83,60.70481967773438L933,113.85291967773438Z" fill-rule="evenodd" fill="#D8D8D8" fill-opacity="1"/></g><g transform="matrix(1,0,0,-1,0,134.2498321533203)" style="opacity:0.5;"><path d="M933.00000703125,67.12491607666016L972.39360703125,110.21691607666015L893.60641703125,110.21691607666015L933.00000703125,67.12491607666016Z" fill="#D8D8D8" fill-opacity="1"/></g></g></svg>