<svg xmlns="http://www.w3.org/2000/svg" xmlns:xlink="http://www.w3.org/1999/xlink" fill="none" version="1.1" width="85" height="85" viewBox="0 0 85 85"><defs><filter id="master_svg0_137_1276" filterUnits="objectBoundingBox" color-interpolation-filters="sRGB" x="-10" y="-6" width="90" height="90"><feFlood flood-opacity="0" result="BackgroundImageFix"/><feColorMatrix in="SourceAlpha" type="matrix" values="0 0 0 0 0 0 0 0 0 0 0 0 0 0 0 0 0 0 127 0"/><feOffset dy="4" dx="0"/><feGaussianBlur stdDeviation="2.5"/><feColorMatrix type="matrix" values="0 0 0 0 0 0 0 0 0 0 0 0 0 0 0 0 0 0 0.30000001192092896 0"/><feBlend mode="normal" in2="BackgroundImageFix" result="effect1_dropShadow"/><feBlend mode="normal" in="SourceGraphic" in2="effect1_dropShadow" result="shape"/></filter></defs><g style="opacity:0.699999988079071;" filter="url(#master_svg0_137_1276)"><g><path d="M59.9211,34.506299999999996L42.5,17.5L21.5,38L42.5,58.5L59.9211,41.493700000000004L63.5,38L59.9211,34.506299999999996ZM56.3422,38L42.5,24.4874L28.65782,38L42.5,51.5126L56.3422,38Z" fill-rule="evenodd" fill="#FFFFFF" fill-opacity="1"/></g><g><path d="M37.5,38.45868L42.5,58.5L47.5,38.45868L42.5,33.5L37.5,38.45868Z" fill="#D8D8D8" fill-opacity="1"/></g><g><path d="M12.48382,36.4128L31.5881,28.4118L39.7707,9.73103L42.5,3.5L45.2293,9.73104L53.4118,28.4118L72.5162,36.4128L77.5,38.5L73.6793,42.3207L46.0355,69.9645L42.5,73.5L38.9645,69.9645L11.32067,42.3207L7.5,38.5L12.48382,36.4128ZM35.3652,32.250699999999995L42.5,15.9621L49.6347,32.250699999999995L68.69550000000001,40.2334L42.5,66.4289L16.30449,40.2334L35.3652,32.250699999999995Z" fill-rule="evenodd" fill="#2377F5" fill-opacity="1"/></g></g></svg>