<svg xmlns="http://www.w3.org/2000/svg" xmlns:xlink="http://www.w3.org/1999/xlink" fill="none" version="1.1" width="529.2542724609375" height="187.01815795898438" viewBox="0 0 529.2542724609375 187.01815795898438"><g><path d="M529.254,57.9044L529.254,59.7784L228.054,59.7784Q227.776,61.8209,226.251,63.3466Q224.386,65.2128,221.749,65.2128Q219.111,65.2128,217.246,63.3466Q215.381,61.4805,215.381,58.8414Q215.381,56.2023,217.246,54.3362Q219.111,52.47,221.749,52.47Q224.386,52.47,226.251,54.3362Q227.776,55.862,228.054,57.9044L529.254,57.9044ZM529.254,19.4889L529.254,21.3628L136.283,21.3628Q136.005,23.4053,134.48,24.9311Q132.615,26.7972,129.978,26.7972Q127.34,26.7972,125.475,24.9311Q123.61,23.065,123.61,20.4259Q123.61,17.7867,125.475,15.9206Q127.34,14.0545,129.978,14.0545Q132.615,14.0545,134.48,15.9206Q136.005,17.4464,136.283,19.4889L529.254,19.4889ZM529.254,73.8328L529.254,75.7068L478.786,75.7068L460.994,98.1939L428.453,98.1939Q428.174,100.236,426.649,101.762Q424.784,103.628,422.147,103.628Q419.509,103.628,417.644,101.762Q415.779,99.8961,415.779,97.257Q415.779,94.6178,417.644,92.7517Q419.509,90.8856,422.147,90.8856Q424.784,90.8856,426.649,92.7517Q428.174,94.2775,428.453,96.32L460.088,96.32L477.88,73.8328L529.254,73.8328ZM529.254,168.466L529.254,170.34L469.252,170.34L452.396,181.584L420.961,181.584Q420.683,183.626,419.158,185.152Q417.293,187.018,414.655,187.018Q412.018,187.018,410.152,185.152Q408.288,183.286,408.287,180.647Q408.288,178.008,410.152,176.142Q412.017,174.275,414.655,174.275Q417.293,174.275,419.158,176.142Q420.683,177.667,420.961,179.71L451.829,179.71L468.685,168.466L529.254,168.466ZM529.254,89.7612L529.254,91.6352L496.813,91.6352Q496.534,93.6776,495.009,95.2034Q493.144,97.0696,490.507,97.0696Q487.869,97.0696,486.004,95.2034Q484.139,93.3372,484.139,90.6982Q484.139,88.0592,486.004,86.193Q487.869,84.3268,490.507,84.3269Q493.144,84.3268,495.009,86.193Q496.534,87.7188,496.813,89.7612L529.254,89.7612ZM10.8704,10.8766Q12.3953,9.35085,12.6734,7.30835L75.2335,7.30835L103.327,40.1021L209.824,40.1021Q210.102,42.1446,211.627,43.6704Q213.492,45.5365,216.13,45.5365Q218.768,45.5365,220.633,43.6704Q222.498,41.8042,222.498,39.1651Q222.498,36.526,220.633,34.6599Q218.768,32.7938,216.13,32.7938Q213.492,32.7938,211.627,34.6599Q210.102,36.1857,209.824,38.2282L104.188,38.2282L76.0949,5.43442L12.6734,5.43442Q12.3953,3.39192,10.8704,1.86615Q9.00533,0.0000228882,6.3677,0.0000228882Q3.73007,0.0000228882,1.86499,1.86615Q-0.000092268,3.73228,-0.000092268,6.37138Q-0.000092268,9.01049,1.86499,10.8766Q3.73007,12.7427,6.3677,12.7427Q9.00533,12.7427,10.8704,10.8766ZM10.8626,6.37138Q10.8626,4.50849,9.54608,3.19122Q8.22955,1.87395,6.3677,1.87395Q4.50584,1.87395,3.18932,3.19122Q1.87279,4.50849,1.87279,6.37138Q1.87279,8.23428,3.18932,9.55155Q4.50584,10.8688,6.3677,10.8688Q8.22955,10.8688,9.54608,9.55155Q10.8626,8.23428,10.8626,6.37138ZM134.473,20.4259Q134.473,18.563,133.156,17.2457Q131.84,15.9284,129.978,15.9284Q128.116,15.9284,126.799,17.2457Q125.483,18.563,125.483,20.4259Q125.483,22.2888,126.799,23.606Q128.116,24.9233,129.978,24.9233Q131.84,24.9233,133.156,23.606Q134.473,22.2887,134.473,20.4259ZM10.8704,33.3638Q12.4587,31.7746,12.6944,29.625L55.6537,28.4646L70.3307,39.8455L80.5931,51.9807L88.3865,59.7784L195.778,59.7784Q196.056,61.8209,197.581,63.3466Q199.446,65.2128,202.084,65.2128Q204.721,65.2128,206.586,63.3466Q208.451,61.4805,208.451,58.8414Q208.451,56.2023,206.586,54.3362Q204.721,52.47,202.084,52.47Q199.446,52.47,197.581,54.3362Q196.056,55.8619,195.778,57.9044L89.1622,57.9044L81.9726,50.7107L71.6334,38.4848L56.272,26.5733L12.648,27.7516Q12.3315,25.8152,10.8704,24.3533Q9.00533,22.4872,6.3677,22.4872Q3.73007,22.4872,1.86499,24.3533Q-0.000092268,26.2194,-0.000092268,28.8585Q-0.000092268,31.4977,1.86499,33.3638Q3.73007,35.2299,6.3677,35.2299Q9.00533,35.2299,10.8704,33.3638ZM10.8626,28.8585Q10.8626,26.9957,9.54608,25.6784Q8.22955,24.3611,6.3677,24.3611Q4.50584,24.3611,3.18932,25.6784Q1.87279,26.9956,1.87279,28.8585Q1.87279,30.7214,3.18932,32.0387Q4.50584,33.356,6.3677,33.356Q8.22955,33.356,9.54608,32.0387Q10.8626,30.7214,10.8626,28.8585ZM251.535,43.6704Q253.06,42.1446,253.338,40.1021L424.269,40.1021Q424.547,42.1446,426.072,43.6704Q427.937,45.5365,430.575,45.5365Q433.212,45.5365,435.077,43.6704Q436.942,41.8042,436.942,39.1651Q436.942,36.5261,435.077,34.6599Q433.212,32.7938,430.575,32.7938Q427.937,32.7938,426.072,34.6599Q424.547,36.1857,424.269,38.2282L253.338,38.2282Q253.06,36.1857,251.535,34.6599Q249.67,32.7938,247.033,32.7938Q244.395,32.7938,242.53,34.6599Q240.665,36.5261,240.665,39.1651Q240.665,41.8042,242.53,43.6704Q244.395,45.5365,247.033,45.5365Q249.67,45.5365,251.535,43.6704ZM220.625,39.1651Q220.625,37.3023,219.308,35.985Q217.992,34.6677,216.13,34.6677Q214.268,34.6677,212.952,35.985Q211.635,37.3022,211.635,39.1651Q211.635,41.028,212.952,42.3453Q214.268,43.6626,216.13,43.6626Q217.992,43.6626,219.308,42.3453Q220.625,41.028,220.625,39.1651ZM251.528,39.1651Q251.528,37.3023,250.211,35.985Q248.894,34.6677,247.033,34.6677Q245.171,34.6677,243.854,35.985Q242.538,37.3022,242.538,39.1651Q242.538,41.028,243.854,42.3453Q245.171,43.6626,247.033,43.6626Q248.894,43.6626,250.211,42.3453Q251.527,41.028,251.528,39.1651ZM435.07,39.1651Q435.07,37.3023,433.753,35.985Q432.437,34.6677,430.575,34.6677Q428.713,34.6677,427.396,35.985Q426.08,37.3023,426.08,39.1651Q426.08,41.028,427.396,42.3453Q428.713,43.6626,430.575,43.6626Q432.437,43.6626,433.753,42.3453Q435.07,41.028,435.07,39.1651ZM206.578,58.8414Q206.578,56.9785,205.262,55.6612Q203.945,54.344,202.084,54.344Q200.222,54.344,198.905,55.6612Q197.589,56.9785,197.589,58.8414Q197.589,60.7043,198.905,62.0216Q200.222,63.3388,202.084,63.3388Q203.945,63.3388,205.262,62.0216Q206.578,60.7043,206.578,58.8414ZM226.244,58.8414Q226.244,56.9785,224.927,55.6612Q223.611,54.344,221.749,54.344Q219.887,54.344,218.57,55.6612Q217.254,56.9785,217.254,58.8414Q217.254,60.7043,218.57,62.0216Q219.887,63.3388,221.749,63.3388Q223.611,63.3388,224.927,62.0216Q226.244,60.7043,226.244,58.8414ZM10.8704,69.9054Q12.3953,68.3796,12.6734,66.3371L49.6571,66.3371Q49.9352,68.3796,51.4602,69.9054Q53.3252,71.7715,55.9629,71.7715Q58.6005,71.7715,60.4656,69.9054Q62.3307,68.0393,62.3307,65.4002Q62.3307,62.7611,60.4656,60.8949Q58.6005,59.0288,55.9629,59.0288Q53.3252,59.0288,51.4602,60.8949Q49.9352,62.4207,49.6571,64.4632L12.6734,64.4632Q12.3953,62.4207,10.8704,60.8949Q9.00533,59.0288,6.3677,59.0288Q3.73007,59.0288,1.86499,60.8949Q-0.000092268,62.761,-0.000092268,65.4002Q-0.000092268,68.0393,1.86499,69.9054Q3.73008,71.7715,6.3677,71.7715Q9.00532,71.7715,10.8704,69.9054ZM10.8626,65.4002Q10.8626,63.5373,9.54608,62.22Q8.22956,60.9027,6.3677,60.9027Q4.50584,60.9027,3.18932,62.22Q1.87279,63.5373,1.87279,65.4002Q1.87279,67.263,3.18932,68.5803Q4.50585,69.8976,6.3677,69.8976Q8.22954,69.8976,9.54608,68.5803Q10.8626,67.263,10.8626,65.4002ZM60.4578,65.4002Q60.4578,63.5373,59.1412,62.22Q57.8247,60.9027,55.9629,60.9027Q54.101,60.9027,52.7845,62.22Q51.4679,63.5373,51.4679,65.4002Q51.4679,67.263,52.7845,68.5803Q54.101,69.8976,55.9629,69.8976Q57.8247,69.8976,59.1412,68.5803Q60.4578,67.2631,60.4578,65.4002ZM283.366,74.7698Q283.366,77.4089,281.501,79.275Q279.636,81.1412,276.999,81.1412Q274.361,81.1412,272.496,79.275Q270.971,77.7493,270.693,75.7068L230.505,75.7068L216.459,86.9503L56.4273,86.9503L41.4804,106.627L12.6734,106.627Q12.3953,108.669,10.8704,110.195Q9.00533,112.061,6.3677,112.061Q3.73007,112.061,1.86499,110.195Q-0.000092268,108.329,-0.000092268,105.69Q-0.000092268,103.051,1.86499,101.184Q3.73007,99.3183,6.3677,99.3183Q9.00532,99.3183,10.8704,101.184Q12.3953,102.71,12.6734,104.753L40.5515,104.753L55.4984,85.0764L215.802,85.0764L229.848,73.8328L270.693,73.8328Q270.971,71.7904,272.496,70.2646Q274.361,68.3984,276.999,68.3984Q279.636,68.3984,281.501,70.2646Q283.366,72.1307,283.366,74.7698ZM281.494,74.7698Q281.494,72.907,280.177,71.5896Q278.86,70.2724,276.999,70.2724Q275.137,70.2724,273.82,71.5896Q272.504,72.9069,272.504,74.7698Q272.504,76.6327,273.82,77.95Q275.137,79.2673,276.999,79.2672Q278.861,79.2672,280.177,77.95Q281.494,76.6326,281.494,74.7698ZM10.8704,90.5186Q12.3953,88.9929,12.6734,86.9503L17.8543,86.9503Q18.1324,88.9928,19.6573,90.5186Q21.5224,92.3847,24.16,92.3848Q26.7977,92.3848,28.6628,90.5186Q30.5278,88.6525,30.5278,86.0134Q30.5278,83.3743,28.6628,81.5082Q26.7977,79.642,24.16,79.642Q21.5224,79.642,19.6573,81.5082Q18.1324,83.0339,17.8543,85.0764L12.6734,85.0764Q12.3953,83.0339,10.8704,81.5082Q9.00532,79.642,6.3677,79.642Q3.73007,79.642,1.86499,81.5082Q-0.000092268,83.3743,-0.000092268,86.0134Q-0.000092268,88.6525,1.86499,90.5186Q3.73007,92.3847,6.3677,92.3848Q9.00532,92.3848,10.8704,90.5186ZM10.8626,86.0134Q10.8626,84.1505,9.54608,82.8332Q8.22955,81.5159,6.3677,81.516Q4.50585,81.516,3.18932,82.8332Q1.87279,84.1505,1.87279,86.0134Q1.87279,87.8763,3.18932,89.1935Q4.50585,90.5108,6.3677,90.5108Q8.22955,90.5108,9.54608,89.1935Q10.8626,87.8763,10.8626,86.0134ZM28.655,86.0134Q28.655,84.1505,27.3384,82.8332Q26.0219,81.516,24.16,81.516Q22.2982,81.516,20.9817,82.8332Q19.6651,84.1505,19.6651,86.0134Q19.6651,87.8763,20.9817,89.1935Q22.2982,90.5108,24.16,90.5108Q26.0219,90.5108,27.3384,89.1935Q28.655,87.8763,28.655,86.0134ZM495.002,90.6982Q495.002,88.8353,493.685,87.518Q492.369,86.2008,490.507,86.2008Q488.645,86.2008,487.328,87.518Q486.012,88.8353,486.012,90.6982Q486.012,92.5611,487.328,93.8784Q488.645,95.1956,490.507,95.1956Q492.369,95.1956,493.685,93.8784Q495.002,92.5611,495.002,90.6982ZM407.913,97.257Q407.913,99.896,406.048,101.762Q404.183,103.628,401.545,103.628Q398.907,103.628,397.042,101.762Q395.517,100.236,395.239,98.1939L230.565,98.1939L187.488,141.294L176.55,141.294Q176.272,143.337,174.747,144.863Q172.882,146.729,170.245,146.729Q167.607,146.729,165.742,144.863Q163.877,142.996,163.877,140.357Q163.877,137.718,165.742,135.852Q167.607,133.986,170.245,133.986Q172.882,133.986,174.747,135.852Q176.272,137.378,176.55,139.42L186.713,139.42L229.789,96.32L395.239,96.32Q395.517,94.2775,397.042,92.7517Q398.907,90.8856,401.545,90.8856Q404.183,90.8856,406.048,92.7517Q407.913,94.6179,407.913,97.257ZM406.04,97.257Q406.04,95.3941,404.723,94.0768Q403.407,92.7595,401.545,92.7595Q399.683,92.7595,398.367,94.0768Q397.05,95.3941,397.05,97.257Q397.05,99.1198,398.367,100.437Q399.683,101.754,401.545,101.754Q403.407,101.754,404.723,100.437Q406.04,99.1198,406.04,97.257ZM426.642,97.257Q426.642,95.3941,425.325,94.0768Q424.009,92.7595,422.147,92.7595Q420.285,92.7595,418.968,94.0768Q417.652,95.394,417.652,97.257Q417.652,99.1199,418.968,100.437Q420.285,101.754,422.147,101.754Q424.009,101.754,425.325,100.437Q426.642,99.1198,426.642,97.257ZM10.8626,105.69Q10.8626,103.827,9.54608,102.509Q8.22955,101.192,6.3677,101.192Q4.50585,101.192,3.18932,102.509Q1.87279,103.827,1.87279,105.69Q1.87279,107.553,3.18932,108.87Q4.50584,110.187,6.3677,110.187Q8.22956,110.187,9.54608,108.87Q10.8626,107.553,10.8626,105.69ZM230.604,124.429L244.223,124.429L244.223,132.862L310.71,132.862L310.71,124.429L325.694,124.429L325.694,132.862L394.99,132.862L394.99,124.429L409.037,124.429L409.037,132.862L476.46,132.862L476.46,114.122L409.037,114.122L409.037,122.555L394.99,122.555L394.99,114.122L325.694,114.122L325.694,122.555L310.71,122.555L310.71,114.122L244.223,114.122L244.223,122.555L229.75,122.555L198.847,158.16L136.283,158.16Q136.005,156.117,134.48,154.591Q132.615,152.725,129.978,152.725Q127.34,152.725,125.475,154.591Q123.61,156.458,123.61,159.097Q123.61,161.736,125.475,163.602Q127.34,165.468,129.978,165.468Q132.615,165.468,134.48,163.602Q136.005,162.076,136.283,160.034L199.701,160.034L230.604,124.429ZM12.7355,121.618Q12.7355,123.019,12.21,124.202L24.431,131.925L112.756,131.925L124.929,120.681L171.43,120.681Q171.708,118.639,173.233,117.113Q175.098,115.247,177.736,115.247Q180.374,115.247,182.239,117.113Q184.104,118.979,184.104,121.618Q184.104,124.257,182.239,126.123Q180.374,127.989,177.736,127.989Q175.098,127.989,173.233,126.123Q171.708,124.598,171.43,122.555L125.662,122.555L113.488,133.799L23.8891,133.799L11.1949,125.777Q11.0404,125.953,10.8704,126.123Q9.00532,127.989,6.3677,127.989Q3.73008,127.989,1.86499,126.123Q-0.000092268,124.257,-0.000092268,121.618Q-0.000092268,118.979,1.86499,117.113Q3.73007,115.247,6.3677,115.247Q9.00533,115.247,10.8704,117.113Q12.7355,118.979,12.7355,121.618ZM246.096,115.996L246.096,130.988L308.838,130.988L308.838,115.996L246.096,115.996ZM327.566,115.996L393.117,115.996L393.117,130.988L327.566,130.988L327.566,115.996ZM410.909,115.996L474.587,115.996L474.587,130.988L410.909,130.988L410.909,115.996ZM10.8626,121.618Q10.8626,119.755,9.54608,118.438Q8.22956,117.121,6.3677,117.121Q4.50584,117.121,3.18932,118.438Q1.87279,119.755,1.87279,121.618Q1.87279,123.481,3.18932,124.798Q4.50585,126.115,6.3677,126.115Q8.22954,126.115,9.54608,124.798Q10.8626,123.481,10.8626,121.618ZM182.231,121.618Q182.231,119.755,180.914,118.438Q179.598,117.121,177.736,117.121Q175.874,117.121,174.558,118.438Q173.241,119.755,173.241,121.618Q173.241,123.481,174.558,124.798Q175.874,126.115,177.736,126.115Q179.598,126.115,180.914,124.798Q182.231,123.481,182.231,121.618ZM174.74,140.357Q174.74,138.494,173.423,137.177Q172.106,135.86,170.245,135.86Q168.383,135.86,167.066,137.177Q165.75,138.494,165.75,140.357Q165.75,142.22,167.066,143.538Q168.383,144.855,170.245,144.855Q172.106,144.855,173.423,143.538Q174.739,142.22,174.74,140.357ZM10.8704,150.484Q12.3953,148.959,12.6734,146.916L16.2806,146.916L29.3908,160.034L106.816,160.034Q107.094,162.076,108.619,163.602Q110.484,165.468,113.122,165.468Q115.759,165.468,117.624,163.602Q119.49,161.736,119.49,159.097Q119.49,156.458,117.624,154.591Q115.759,152.725,113.122,152.725Q110.484,152.725,108.619,154.591Q107.094,156.117,106.816,158.16L30.1666,158.16L17.0564,145.042L12.6734,145.042Q12.3953,143,10.8704,141.474Q9.00533,139.608,6.3677,139.608Q3.73007,139.608,1.86499,141.474Q-0.000092268,143.34,-0.000092268,145.979Q-0.000092268,148.618,1.86499,150.484Q3.73008,152.35,6.3677,152.35Q9.00532,152.351,10.8704,150.484ZM10.8626,145.979Q10.8626,144.116,9.54608,142.799Q8.22956,141.482,6.3677,141.482Q4.50584,141.482,3.18932,142.799Q1.87279,144.116,1.87279,145.979Q1.87279,147.842,3.18932,149.159Q4.50585,150.477,6.3677,150.477Q8.22954,150.477,9.54608,149.159Q10.8626,147.842,10.8626,145.979ZM524.968,152.538Q524.968,155.177,523.103,157.043Q521.238,158.909,518.6,158.909Q515.962,158.909,514.097,157.043Q512.572,155.517,512.294,153.475L460.88,153.475L444.024,167.529L356.168,167.529L343.995,153.475L230.603,153.475L210.938,176.053L146.584,176.053Q146.306,178.095,144.781,179.621Q142.916,181.487,140.279,181.487Q137.641,181.487,135.776,179.621Q133.911,177.755,133.911,175.116Q133.911,172.477,135.776,170.611Q137.641,168.744,140.279,168.744Q142.916,168.744,144.781,170.611Q146.306,172.136,146.584,174.179L210.085,174.179L229.751,151.601L344.85,151.601L357.024,165.655L443.346,165.655L460.202,151.601L512.294,151.601Q512.572,149.558,514.097,148.033Q515.962,146.167,518.6,146.167Q521.238,146.167,523.103,148.033Q524.968,149.899,524.968,152.538ZM523.095,152.538Q523.095,150.675,521.778,149.358Q520.462,148.04,518.6,148.04Q516.738,148.04,515.422,149.358Q514.105,150.675,514.105,152.538Q514.105,154.401,515.422,155.718Q516.738,157.035,518.6,157.035Q520.462,157.035,521.778,155.718Q523.095,154.401,523.095,152.538ZM117.617,159.097Q117.617,157.234,116.3,155.916Q114.984,154.599,113.122,154.599Q111.26,154.599,109.943,155.916Q108.627,157.234,108.627,159.097Q108.627,160.96,109.943,162.277Q111.26,163.594,113.122,163.594Q114.984,163.594,116.3,162.277Q117.617,160.96,117.617,159.097ZM134.473,159.097Q134.473,157.234,133.156,155.916Q131.84,154.599,129.978,154.599Q128.116,154.599,126.799,155.916Q125.483,157.234,125.483,159.097Q125.483,160.96,126.799,162.277Q128.116,163.594,129.978,163.594Q131.84,163.594,133.156,162.277Q134.473,160.96,134.473,159.097ZM256.217,173.908Q257.742,172.383,258.021,170.34L331.882,170.34L344.056,181.584L390.557,181.584Q390.835,183.626,392.36,185.152Q394.225,187.018,396.863,187.018Q399.501,187.018,401.366,185.152Q403.231,183.286,403.231,180.647Q403.231,178.008,401.366,176.142Q399.501,174.275,396.863,174.275Q394.225,174.275,392.36,176.142Q390.835,177.667,390.557,179.71L344.788,179.71L332.615,168.466L258.021,168.466Q257.742,166.424,256.217,164.898Q254.352,163.032,251.715,163.032Q249.077,163.032,247.212,164.898Q245.347,166.764,245.347,169.403Q245.347,172.042,247.212,173.908Q249.077,175.775,251.715,175.775Q254.352,175.775,256.217,173.908ZM256.21,169.403Q256.21,167.54,254.893,166.223Q253.577,164.906,251.715,164.906Q249.853,164.906,248.536,166.223Q247.22,167.54,247.22,169.403Q247.22,171.266,248.536,172.583Q249.853,173.901,251.715,173.901Q253.577,173.901,254.893,172.583Q256.21,171.266,256.21,169.403ZM131.663,175.116Q131.663,177.755,129.798,179.621Q127.933,181.487,125.296,181.487Q122.658,181.487,120.793,179.621Q119.268,178.095,118.99,176.053L33.7802,176.053L24.4158,181.584L12.6734,181.584Q12.3953,183.626,10.8704,185.152Q9.00532,187.018,6.3677,187.018Q3.73008,187.018,1.86499,185.152Q-0.000092268,183.286,-0.000092268,180.647Q-0.000092268,178.008,1.86499,176.142Q3.73007,174.275,6.3677,174.275Q9.00533,174.275,10.8704,176.142Q12.3953,177.667,12.6734,179.71L23.9043,179.71L33.2687,174.179L118.99,174.179Q119.268,172.136,120.793,170.611Q122.658,168.744,125.296,168.744Q127.933,168.744,129.798,170.611Q131.663,172.477,131.663,175.116ZM129.79,175.116Q129.79,173.253,128.474,171.936Q127.157,170.618,125.296,170.618Q123.434,170.618,122.117,171.936Q120.801,173.253,120.801,175.116Q120.801,176.979,122.117,178.296Q123.434,179.613,125.296,179.613Q127.157,179.613,128.474,178.296Q129.79,176.979,129.79,175.116ZM144.773,175.116Q144.773,173.253,143.457,171.936Q142.14,170.618,140.279,170.618Q138.417,170.618,137.1,171.936Q135.784,173.253,135.784,175.116Q135.784,176.979,137.1,178.296Q138.417,179.613,140.279,179.613Q142.14,179.613,143.457,178.296Q144.773,176.979,144.773,175.116ZM10.8626,180.647Q10.8626,178.784,9.54608,177.467Q8.22956,176.149,6.3677,176.149Q4.50584,176.149,3.18932,177.467Q1.87279,178.784,1.87279,180.647Q1.87279,182.51,3.18932,183.827Q4.50585,185.144,6.3677,185.144Q8.22954,185.144,9.54608,183.827Q10.8626,182.51,10.8626,180.647ZM401.358,180.647Q401.358,178.784,400.041,177.467Q398.725,176.149,396.863,176.149Q395.001,176.149,393.685,177.467Q392.368,178.784,392.368,180.647Q392.368,182.51,393.685,183.827Q395.001,185.144,396.863,185.144Q398.725,185.144,400.041,183.827Q401.358,182.51,401.358,180.647ZM419.15,180.647Q419.15,178.784,417.834,177.467Q416.517,176.149,414.655,176.149Q412.793,176.149,411.477,177.467Q410.16,178.784,410.16,180.647Q410.16,182.51,411.477,183.827Q412.793,185.144,414.655,185.144Q416.517,185.144,417.834,183.827Q419.15,182.51,419.15,180.647Z" fill-rule="evenodd" fill="#D8D8D8" fill-opacity="1"/></g></svg>