<svg xmlns="http://www.w3.org/2000/svg" xmlns:xlink="http://www.w3.org/1999/xlink" fill="none" version="1.1" width="592" height="496" viewBox="0 0 592 496"><g transform="matrix(1,-2.2348338291067193e-8,2.2348338291067193e-8,1,0,0)"><g><path d="M138.45145434570313,6.08197L153.60145434570313,11.2847L148.05245434570313,0C144.80945434570313,1.9653,141.60845434570314,3.99318,138.45145434570313,6.08197ZM95.98535434570313,58.0258C111.78525434570312,41.2349,129.65245434570312,26.434,149.17745434570313,14.0356L130.83845434570313,11.2945C118.47625434570313,20.0538,106.83065434570312,29.7688,96.00825434570312,40.3329L95.98535434570313,58.0258ZM20.659454345703125,165.054L28.973464345703125,180.549C35.166054345703124,155.798,44.670154345703125,132.372,56.983954345703125,110.775L41.032354345703126,114.523C32.73635434570313,130.546,25.887284345703126,147.448,20.659454345703125,165.054ZM20.674283045703124,331.015C25.900814345703125,348.605,32.745754345703126,365.492,41.035054345703124,381.502L57.35865434570312,386.609C44.86955434570312,364.842,35.23915434570313,341.207,28.983604345703124,316.221L20.674283045703124,331.015ZM96.22415434570313,455.896C107.36345434570312,466.747,119.37235434570313,476.7,132.13545434570312,485.638L148.04145434570313,481.968C129.0614543457031,469.785,111.66575434570312,455.324,96.23465434570312,438.968L96.22415434570313,455.896ZM138.13745434570313,489.729C141.38645434570313,491.884,144.68245434570312,493.975,148.02145434570312,496L153.9124543457031,485.633L138.13745434570313,489.729ZM454.2614543457031,6.08197L439.11045434570315,11.2847L444.6594543457031,0C447.9024543457031,1.9653,451.10345434570314,3.99318,454.2614543457031,6.08197ZM496.7274543457031,58.0258C480.9274543457031,41.2349,463.0594543457031,26.434,443.5344543457031,14.0356L461.8734543457031,11.2945C474.2364543457031,20.0538,485.8814543457031,29.7688,496.70445434570314,40.3329L496.7274543457031,58.0258ZM572.0524543457032,165.054L563.7384543457031,180.549C557.5464543457031,155.798,548.0424543457032,132.372,535.7284543457031,110.775L551.6804543457031,114.523C559.9764543457031,130.546,566.8254543457032,147.448,572.0524543457032,165.054ZM572.0384543457031,331.015C566.8114543457032,348.605,559.9664543457031,365.492,551.6774543457032,381.502L535.3534543457031,386.609C547.8424543457031,364.842,557.4734543457031,341.207,563.7284543457031,316.221L572.0384543457031,331.015ZM496.48845434570313,455.896C485.34845434570315,466.747,473.3404543457031,476.7,460.57745434570313,485.638L444.6714543457031,481.968C463.6504543457031,469.785,481.0464543457031,455.324,496.4774543457031,438.968L496.48845434570313,455.896ZM454.5754543457031,489.729C451.3264543457031,491.884,448.0304543457031,493.975,444.69045434570313,496L438.80045434570314,485.633L454.5754543457031,489.729Z" fill="#D8D8D8" fill-opacity="0.30000001192092896"/></g><g><path d="M33.4883,111.14753195800782L39.1979,109.51643195800781L54.6458,106.4986319580078L60.1949,105.0855319580078C68.9852,90.5658319580078,79.0745,76.9228319580078,90.3014,64.31833195800782L90.3013,64.13843195800781L90.4742,64.13843195800781L90.4742,39.90855195800781L90.4581,39.90855195800781L90.4696,35.066672958007814C67.629,57.09543195800781,48.3235,82.76753195800782,33.4883,111.14753195800782ZM86.1998,45.37193195800781L86.1998,62.847831958007816C85.9551,63.12583195800781,85.7109,63.404331958007816,85.4673,63.68323195800781C75.656,74.91733195800782,66.7265,86.94353195800781,58.7869,99.65373195800781L43.0687,102.58623195800782C54.9052,82.05673195800782,69.1711,63.10563195800781,85.4735,46.12573195800781C85.7151,45.87403195800781,85.9573,45.62273195800781,86.1998,45.37193195800781ZM4.27437,247.99963195800783C4.27437,272.7966319580078,7.36976,296.8696319580078,13.1951,319.8546319580078L22.1224,304.7196319580078C18.361,286.4026319580078,16.3851,267.43263195800785,16.3851,248.0006319580078L16.3851,247.99963195800783C16.3851,228.5676319580078,18.361,209.5976319580078,22.1224,191.2806319580078L13.1951,176.1456319580078C7.36976,199.12963195800782,4.27437,223.2036319580078,4.27437,247.99963195800783ZM20.4277,247.99963195800783C20.4277,227.4536319580078,22.6691,207.4306319580078,26.9204,188.16463195800782L23.9271,183.1156319580078L15.2343,168.53563195800783L12.0133,164.2766319580078C4.19526,190.8226319580078,0,218.92163195800782,0,248.0006319580078C0,277.0786319580078,4.19526,305.1776319580078,12.0133,331.7226319580078L15.2343,327.4636319580078L23.9271,312.8846319580078L26.9204,307.8356319580078C22.6691,288.5696319580078,20.4277,268.5466319580078,20.4277,247.99963195800783ZM33.4883,384.8526319580078L39.1979,386.48363195800783L54.6458,389.5016319580078L60.1949,390.9146319580078C68.9852,405.4336319580078,79.0745,419.0766319580078,90.3014,431.6816319580078L90.3013,431.8616319580078L90.4742,431.8616319580078L90.4742,456.09163195800784L90.4581,456.09163195800784L90.4696,460.9336319580078C67.629,438.9046319580078,48.3235,413.2326319580078,33.4883,384.8526319580078ZM86.1998,450.62763195800784L86.1998,433.15163195800784Q85.8328,432.7346319580078,85.4673,432.3166319580078C75.656,421.0826319580078,66.7265,409.0566319580078,58.7869,396.34663195800783L43.0687,393.41363195800784C54.9052,413.94263195800784,69.1711,432.89463195800784,85.4735,449.8746319580078Q85.836,450.2516319580078,86.1998,450.62763195800784ZM552.802,109.36943195800781L558.512,111.00053195800781C543.676,82.62043195800781,524.371,56.948431958007816,501.53,34.91963958739781L501.542,39.76140195800781L501.526,39.76140195800781L501.526,63.99133195800781L501.699,63.99133195800781L501.699,64.17133195800781C512.925,76.77583195800781,523.015,90.41883195800781,531.805,104.93853195800781L537.354,106.35163195800781L552.802,109.36943195800781ZM505.8,62.70083195800781L505.8,45.22483195800781C506.043,45.47573195800781,506.285,45.727031958007814,506.527,45.97873195800781C522.829,62.95853195800781,537.095,81.90973195800781,548.931,102.4391319580078L533.213,99.50673195800782C525.274,86.79653195800782,516.344,74.77023195800781,506.533,63.53623195800781C506.289,63.25723195800781,506.045,62.97883195800782,505.8,62.70083195800781ZM587.726,247.8536319580078L592,247.8536319580078C592,218.7746319580078,587.805,190.6756319580078,579.987,164.12963195800782L576.766,168.3886319580078L568.073,182.96863195800782L565.08,188.01763195800783C569.331,207.28363195800782,571.572,227.3066319580078,571.572,247.8526319580078L575.615,247.8536319580078C575.615,228.42063195800782,573.639,209.45063195800782,569.878,191.1336319580078L578.805,175.99863195800782C584.63,198.9826319580078,587.726,223.0566319580078,587.726,247.8536319580078ZM552.802,386.48363195800783L558.512,384.8526319580078C543.676,413.2326319580078,524.371,438.9046319580078,501.53,460.9336319580078L501.542,456.09163195800784L501.526,456.09163195800784L501.526,431.8616319580078L501.699,431.8616319580078L501.699,431.6816319580078C512.925,419.0766319580078,523.015,405.4336319580078,531.805,390.9146319580078L537.354,389.5016319580078L552.802,386.48363195800783ZM505.8,433.15163195800784L505.8,450.62763195800784C506.043,450.37763195800784,506.285,450.12563195800783,506.527,449.8746319580078C522.829,432.89463195800784,537.095,413.9436319580078,548.931,393.41363195800784L533.213,396.34663195800783C525.274,409.0566319580078,516.344,421.0826319580078,506.533,432.3166319580078C506.289,432.5956319580078,506.045,432.8736319580078,505.8,433.15163195800784ZM587.726,247.99963195800783L592,247.99963195800783C592,277.0786319580078,587.805,305.1776319580078,579.987,331.7236319580078L576.766,327.4636319580078L568.073,312.8846319580078L565.08,307.8356319580078C569.331,288.5696319580078,571.572,268.5466319580078,571.572,247.99963195800783L575.615,247.99963195800783C575.615,267.43263195800785,573.639,286.4026319580078,569.878,304.7196319580078L578.805,319.8546319580078C584.63,296.8696319580078,587.726,272.7966319580078,587.726,247.99963195800783Z" fill-rule="evenodd" fill="#D8D8D8" fill-opacity="1"/></g></g></svg>