<svg xmlns="http://www.w3.org/2000/svg" xmlns:xlink="http://www.w3.org/1999/xlink" fill="none" version="1.1" width="111" height="57" viewBox="0 0 111 57"><g><g><path d="M0,5.04425C2.86466,5.04425,5.18692,2.78586,5.18692,0L73.6542,0C73.6542,2.78586,75.9765,5.04425,78.8411,5.04425C81.7058,5.04425,84.028,2.78586,84.028,0L105.813,0C105.813,2.78586,108.135,5.04425,111,5.04425L111,51.9557C108.135,51.9557,105.813,54.2141,105.813,57L84.028,57C84.028,54.2141,81.7058,51.9557,78.8411,51.9557C75.9765,51.9557,73.6542,54.2141,73.6542,57L5.18692,57C5.18692,54.2141,2.86466,51.9557,0,51.9557L0,5.04425Z" fill-rule="evenodd" fill="#FFFFFF" fill-opacity="1"/></g><g><path d="M0,5.04425C2.86466,5.04425,5.18692,2.78586,5.18692,0L73.6542,0C73.6542,2.78586,75.9765,5.04425,78.8411,5.04425C81.7058,5.04425,84.028,2.78586,84.028,0L105.813,0C105.813,2.78586,108.135,5.04425,111,5.04425L111,51.9557C108.135,51.9557,105.813,54.2141,105.813,57L84.028,57C84.028,54.2141,81.7058,51.9557,78.8411,51.9557C75.9765,51.9557,73.6542,54.2141,73.6542,57L5.18692,57C5.18692,54.2141,2.86466,51.9557,0,51.9557L0,50.2097L32.9369,50.2097L39.4206,44.3894L78.8411,44.3894L78.8411,8.55721L49.7944,8.55721L39.4206,12.6106L0,12.6106L0,5.04425Z" fill-rule="evenodd" fill="#000000" fill-opacity="1"/></g><g transform="matrix(0,0.9999520778656006,1,0,74.44949340820312,-74.4456835926685)"><line x1="79.5001220703125" y1="4.050628662109375" x2="126.38536071777344" y2="4.050628662109375" fill-opacity="0" stroke-opacity="1" stroke="#353333" fill="none" stroke-width="2" stroke-linecap="SQUARE" stroke-dasharray="1 4"/></g></g></svg>