<svg xmlns="http://www.w3.org/2000/svg" xmlns:xlink="http://www.w3.org/1999/xlink" fill="none" version="1.1" width="1467" height="184" viewBox="0 0 1467 184"><defs><filter id="master_svg0_82_27" filterUnits="objectBoundingBox" color-interpolation-filters="sRGB" x="-16" y="-16" width="1477" height="194"><feFlood flood-opacity="0" result="BackgroundImageFix"/><feColorMatrix in="SourceAlpha" type="matrix" values="0 0 0 0 0 0 0 0 0 0 0 0 0 0 0 0 0 0 127 0"/><feOffset dy="4" dx="4"/><feGaussianBlur stdDeviation="5"/><feColorMatrix type="matrix" values="0 0 0 0 0 0 0 0 0 0 0 0 0 0 0 0 0 0 1 0"/><feBlend mode="normal" in2="BackgroundImageFix" result="effect1_dropShadow"/><feBlend mode="normal" in="SourceGraphic" in2="effect1_dropShadow" result="shape"/></filter></defs><g filter="url(#master_svg0_82_27)"><g><g><path d="M198.278,11L185.558,11L181.938,16.04918L161.828,16.04918L156.8,23.622999999999998L156.8,34.983599999999996L166.277,34.983599999999996L173.818,26.1475L191.993,26.1475L191.993,19.83607L193.25,18.57377L191.993,18.57377L191.993,16.04918L194.507,16.04918L195.764,14.78689L191.993,14.78689L191.993,12.2623L197.021,12.2623L198.278,11ZM714.862,16.04918L619.338,16.04918L614.31,26.1475L614.226,34.983599999999996L635.031,34.983599999999996L641.315,26.1475L724.917,26.1475L724.917,11L718.482,11L714.862,16.04918ZM102.6026,13.52459L98.9828,18.57377L63.5424,18.57377L42.730199999999996,113.246L62.1962,113.246L94.8755,94.3115L106.2479,94.3115L97.4496,50.1311L116.332,50.1311L114.582,42.5574L110.2948,42.5574L109.0379,41.295100000000005L114.29,41.295100000000005L113.706,38.7705L107.781,38.7705L106.5241,37.5082L113.415,37.5082L109.0379,18.57377L109.0379,13.52459L102.6026,13.52459ZM370.472,18.57377L362.931,18.57377L362.931,64.43719999999999L345.067,88.3585L380.528,94.2941L380.528,34.983599999999996L372.986,34.983599999999996L374.243,33.7213L380.528,33.7213L380.528,31.1967L375.5,31.1967L376.757,29.9344L380.528,29.9344L380.528,27.4098L378.014,27.4098L379.271,26.1475L380.528,26.1475L380.528,13.52459L374.092,13.52459L370.472,18.57377ZM118.828,159.951L106.7428,96.8361L95.5486,96.8361L62.8693,115.77L39.600899999999996,115.77L60.9681,18.57377L46.1931,18.57377L41.500699999999995,27.9989L11,159.951L48.7069,159.951L58.7621,122.082L93.9552,122.082L101.4966,159.951L118.828,159.951ZM194.507,31.1967L194.507,71.59020000000001L227.186,18.57377L242.563,18.57377L208.627,75.3771L229.7,75.3771L217.131,94.3115L217.131,117.498L253.186,159.951L237.241,159.951L194.507,114.508L194.507,154.902L189.479,159.951L170.626,159.951L170.626,39.2374L177.488,31.1967L194.507,31.1967ZM342.821,87.1584L360.417,63.5956L360.417,18.57377L347.848,18.57377L342.821,28.6721L342.821,87.1584ZM327.738,31.1967L307.018,31.1967L301.343,39.175L301.343,159.951L327.738,159.951L327.738,148.59L320.197,148.59L321.453,147.328L327.738,147.328L327.738,144.803L322.71,144.803L323.967,143.541L327.738,143.541L327.738,141.016L325.224,141.016L326.481,139.754L327.738,139.754L327.738,31.1967ZM729.945,31.1967L647.636,31.1967L641.962,39.175L641.962,159.951L652.017,159.951L657.045,154.902L657.045,104.4098L711.091,104.4098L711.091,79.7507L729.945,67.1277L729.945,31.1967ZM104.0103,33.7213L105.2672,34.983599999999996L112.809,34.983599999999996L111.552,33.7213L104.0103,33.7213ZM61.2759,104.4098L88.9276,89.2623L76.3586,38.7705L61.2759,104.4098ZM657.045,86.7377L694.752,76.6393L694.752,38.7705L657.045,38.7705L657.045,86.7377ZM498.396,52.4111L485.501,108.1967L506.531,108.1967L506.531,127.63L476.361,159.951L511.245,159.951L521.3,122.082L556.493,122.082L564.034,159.951L581.119,159.951L572.765,116.803L588.213,90.5482L582.372,65.2787L580.374,65.2787L579.117,64.0164L582.08,64.0164L581.496,61.4918L577.86,61.4918L576.603,60.2295L581.205,60.2295L580.621,57.7049L575.347,57.7049L574.09,56.4426L580.329,56.4426L576.536,40.0328L539.211,40.0328L551.466,89.2623L523.814,104.4098L538.606,40.0328L512.962,40.0328L498.396,52.4111ZM639.448,159.951L639.448,40.0328L619.229,40.0328L618.081,159.951L639.448,159.951ZM296.315,162.475L296.315,42.5574L285.003,42.5574L285.003,162.475L296.315,162.475ZM626.879,50.1311C626.879,50.8283,627.442,51.3934,628.136,51.3934C628.83,51.3934,629.393,50.8283,629.393,50.1311C629.393,49.434,628.83,48.8689,628.136,48.8689C627.442,48.8689,626.879,49.434,626.879,50.1311ZM290.031,52.6557C290.031,53.3529,290.594,53.918,291.288,53.918C291.982,53.918,292.545,53.3529,292.545,52.6557C292.545,51.9586,291.982,51.3934,291.288,51.3934C290.594,51.3934,290.031,51.9586,290.031,52.6557ZM626.879,55.1803C626.879,55.8775,627.442,56.4426,628.136,56.4426C628.83,56.4426,629.393,55.8775,629.393,55.1803C629.393,54.4832,628.83,53.918,628.136,53.918C627.442,53.918,626.879,54.4832,626.879,55.1803ZM290.031,57.7049C290.031,58.4021,290.594,58.9672,291.288,58.9672C291.982,58.9672,292.545,58.4021,292.545,57.7049C292.545,57.0078,291.982,56.4426,291.288,56.4426C290.594,56.4426,290.031,57.0078,290.031,57.7049ZM626.879,60.2295C626.879,60.9267,627.442,61.4918,628.136,61.4918C628.83,61.4918,629.393,60.9267,629.393,60.2295C629.393,59.5324,628.83,58.9672,628.136,58.9672C627.442,58.9672,626.879,59.5324,626.879,60.2295ZM290.031,62.7541C290.031,63.4512,290.594,64.0164,291.288,64.0164C291.982,64.0164,292.545,63.4512,292.545,62.7541C292.545,62.0569,291.982,61.4918,291.288,61.4918C290.594,61.4918,290.031,62.0569,290.031,62.7541ZM360.417,145.308L360.417,113.985L377.912,96.4156L342.821,90.542L342.821,152.377L360.417,145.308ZM589.036,94.1111L575.415,117.262L583.68,159.951L604.255,159.951L589.036,94.1111ZM254.838,159.951L274.948,159.951L219.645,97.1654L219.645,116.568L255.794,159.132L254.838,159.951ZM210.847,104.4098C210.152,104.4098,209.59,103.8447,209.59,103.1475C209.59,102.4504,210.152,101.8852,210.847,101.8852C211.541,101.8852,212.103,102.4504,212.103,103.1475C212.103,103.8447,211.541,104.4098,210.847,104.4098ZM210.847,109.459C210.152,109.459,209.59,108.8939,209.59,108.1967C209.59,107.4996,210.152,106.9344,210.847,106.9344C211.541,106.9344,212.103,107.4996,212.103,108.1967C212.103,108.8939,211.541,109.459,210.847,109.459ZM678.771,125.869L701.744,125.869L722.348,159.951L740,159.951L712.348,106.9344L667.1,106.9344L670.212,111.984L674.641,111.984L675.898,113.246L670.99,113.246L672.547,115.77L677.155,115.77L678.412,117.033L673.325,117.033L674.881,119.557L679.669,119.557L680.926,120.82L675.659,120.82L678.771,125.869ZM210.847,114.508C210.152,114.508,209.59,113.943,209.59,113.246C209.59,112.549,210.152,111.984,210.847,111.984C211.541,111.984,212.103,112.549,212.103,113.246C212.103,113.943,211.541,114.508,210.847,114.508ZM392.8,159.951L342.821,159.951L423.262,137.23000000000002L458.455,137.23000000000002L458.455,146.066L420.452,146.066L392.8,159.951ZM23.569000000000003,143.541C23.569000000000003,144.238,24.131700000000002,144.803,24.8259,144.803C25.52,144.803,26.0828,144.238,26.0828,143.541C26.0828,142.844,25.52,142.279,24.8259,142.279C24.131700000000002,142.279,23.569000000000003,142.844,23.569000000000003,143.541ZM23.569000000000003,148.59C23.569000000000003,149.287,24.131700000000002,149.852,24.8259,149.852C25.52,149.852,26.0828,149.287,26.0828,148.59C26.0828,147.893,25.52,147.328,24.8259,147.328C24.131700000000002,147.328,23.569000000000003,147.893,23.569000000000003,148.59ZM23.569000000000003,153.639C23.569000000000003,154.336,24.131700000000002,154.902,24.8259,154.902C25.52,154.902,26.0828,154.336,26.0828,153.639C26.0828,152.942,25.52,152.377,24.8259,152.377C24.131700000000002,152.377,23.569000000000003,152.942,23.569000000000003,153.639Z" fill-rule="evenodd" fill="#FFFFFF" fill-opacity="1"/></g><g><path d="M269.9205667724609,18.57375953857422L233.88956677246094,72.85248953857422L215.58056677246094,72.85248953857422L248.00856677246094,18.57375953857422L259.86556677246097,18.57375953857422L263.48556677246097,13.524582624434219L269.9205667724609,13.524582624434219L269.9205667724609,18.57375953857422ZM299.4395667724609,37.508189538574214L287.5175667724609,37.508189538574214L287.5175667724609,28.67208953857422L292.54456677246094,18.57375953857422L317.682566772461,18.57375953857422L321.302566772461,13.524582624434219L327.7375667724609,13.524582624434219L327.7375667724609,28.67208953857422L305.7235667724609,28.67208953857422L299.4395667724609,37.508189538574214ZM575.952566772461,37.508189538574214L571.5755667724609,18.57375953857422L571.5755667724609,13.524582624434219L565.1405667724609,13.524582624434219L561.5205667724609,18.57375953857422L508.7305667724609,18.57375953857422L504.0385667724609,27.99888953857422L499.34656677246096,48.295689538574216L512.041566772461,37.508189538574214L575.952566772461,37.508189538574214ZM159.31376677246095,159.9505895385742L159.31376677246095,40.03278953857422L168.11206677246093,40.03278953857422L168.11206677246093,159.9505895385742L159.31376677246095,159.9505895385742ZM101.49653625486094,53.91798953857422L119.09306677246093,53.91798953857422L144.23106677246093,164.9995895385742L124.12066677246094,164.9995895385742L101.49653625486094,53.91798953857422ZM718.6325667724609,81.10178953857422L734.9725667724609,70.16188953857423L734.9725667724609,104.40978953857422L718.6325667724609,104.40978953857422L718.6325667724609,81.10178953857422ZM724.917566772461,82.95078953857421C724.917566772461,83.64798953857422,725.4795667724609,84.21308953857422,726.173566772461,84.21308953857422C726.8685667724609,84.21308953857422,727.4305667724609,83.64798953857422,727.4305667724609,82.95078953857421C727.4305667724609,82.25368953857422,726.8685667724609,81.68848953857422,726.173566772461,81.68848953857422C725.4795667724609,81.68848953857422,724.917566772461,82.25368953857422,724.917566772461,82.95078953857421ZM724.917566772461,87.99998953857421C724.917566772461,88.69708953857422,725.4795667724609,89.26228953857422,726.173566772461,89.26228953857422C726.8685667724609,89.26228953857422,727.4305667724609,88.69708953857422,727.4305667724609,87.99998953857421C727.4305667724609,87.30288953857422,726.8685667724609,86.73768953857422,726.173566772461,86.73768953857422C725.4795667724609,86.73768953857422,724.917566772461,87.30288953857422,724.917566772461,87.99998953857421ZM724.917566772461,93.04918953857423C724.917566772461,93.74628953857422,725.4795667724609,94.31148953857422,726.173566772461,94.31148953857422C726.8685667724609,94.31148953857422,727.4305667724609,93.74628953857422,727.4305667724609,93.04918953857423C727.4305667724609,92.35198953857422,726.8685667724609,91.78688953857421,726.173566772461,91.78688953857421C725.4795667724609,91.78688953857421,724.917566772461,92.35198953857422,724.917566772461,93.04918953857423ZM365.4445667724609,115.03058953857422L383.04156677246095,97.35888953857422L383.04156677246095,137.2295895385742L365.4445667724609,144.29858953857422L365.4445667724609,115.03058953857422ZM498.98956677246093,129.15658953857422L468.71556677246093,159.0635895385742L479.8895667724609,113.24588953857422L498.98956677246093,113.24588953857422L498.98956677246093,129.15658953857422ZM493.6485667724609,118.29458953857421C493.6485667724609,118.99258953857422,494.21056677246094,119.55758953857422,494.90556677246093,119.55758953857422C495.59956677246095,119.55758953857422,496.16156677246096,118.99258953857422,496.16156677246096,118.29458953857421C496.16156677246096,117.59758953857421,495.59956677246095,117.03258953857421,494.90556677246093,117.03258953857421C494.21056677246094,117.03258953857421,493.6485667724609,117.59758953857421,493.6485667724609,118.29458953857421ZM493.6485667724609,123.34458953857421C493.6485667724609,124.04158953857421,494.21056677246094,124.60658953857421,494.90556677246093,124.60658953857421C495.59956677246095,124.60658953857421,496.16156677246096,124.04158953857421,496.16156677246096,123.34458953857421C496.16156677246096,122.64758953857422,495.59956677246095,122.08158953857422,494.90556677246093,122.08158953857422C494.21056677246094,122.08158953857422,493.6485667724609,122.64758953857422,493.6485667724609,123.34458953857421ZM493.6485667724609,128.39358953857422C493.6485667724609,129.09058953857422,494.21056677246094,129.65558953857422,494.90556677246093,129.65558953857422C495.59956677246095,129.65558953857422,496.16156677246096,129.09058953857422,496.16156677246096,128.39358953857422C496.16156677246096,127.69658953857422,495.59956677246095,127.13158953857422,494.90556677246093,127.13158953857422C494.21056677246094,127.13158953857422,493.6485667724609,127.69658953857422,493.6485667724609,128.39358953857422ZM699.779566772461,164.9995895385742L680.327566772461,133.44258953857423L700.3285667724609,133.44258953857423L719.4065667724609,164.9995895385742L699.779566772461,164.9995895385742ZM460.9685667724609,162.4755895385742L400.9345667724609,162.4755895385742L423.55856677246095,151.11458953857422L460.9685667724609,151.11458953857422L460.9685667724609,162.4755895385742Z" fill-rule="evenodd" fill="#5A5D62" fill-opacity="1"/></g></g><g><g><path d="M861.1948,94.3382L851.1187,94.3382L858.7987,55.95588L830.4251,55.95588L820.5691,47L792.52,47L790.42545,62.3529L799.1159,62.3529L793.6041,103.2941L828.36,103.2941L836.04,62.3529L851.4,62.3529L838.6,121.2059L789.96,121.2059L788.168,123.7647L793.8,123.7647L792.52,125.0441L787.272,125.0441L786.376,126.3235L792.52,126.3235L791.24,127.6029L785.48,127.6029L784.584,128.88240000000002L791.24,128.88240000000002L789.96,130.1618L783.688,130.1618L781,134L810.4286,134L814.8172,126.3235L852.6800000000001,126.3235L852.6800000000001,126.6891L856.52,121.2059L861.1948,94.3382ZM800.2,93.05879999999999L818.12,93.05879999999999L823.24,62.3529L805.32,62.3529L800.2,93.05879999999999ZM851.4,109.69120000000001C851.4,110.39779999999999,850.8269,110.97059999999999,850.12,110.97059999999999C849.4131,110.97059999999999,848.84,110.39779999999999,848.84,109.69120000000001C848.84,108.9846,849.4131,108.4118,850.12,108.4118C850.8269,108.4118,851.4,108.9846,851.4,109.69120000000001ZM851.4,114.8088C851.4,115.5154,850.8269,116.0882,850.12,116.0882C849.4131,116.0882,848.84,115.5154,848.84,114.8088C848.84,114.1022,849.4131,113.5294,850.12,113.5294C850.8269,113.5294,851.4,114.1022,851.4,114.8088ZM851.4,119.9265C851.4,120.6331,850.8269,121.2059,850.12,121.2059C849.4131,121.2059,848.84,120.6331,848.84,119.9265C848.84,119.2199,849.4131,118.6471,850.12,118.6471C850.8269,118.6471,851.4,119.2199,851.4,119.9265Z" fill-rule="evenodd" fill="#FFFFFF" fill-opacity="1"/></g><g><path d="M862.92,91.77940000000001L855.24,91.77940000000001L863.2012,53.397059999999996L832.695,53.397059999999996L825.655,47L877,47L875.72,48.27941L870.3866,48.27941L870.1734,49.55882L875.72,49.55882L874.44,50.83824L869.96,50.83824L869.7466,52.11765L874.44,52.11765L873.16,53.397059999999996L869.5334,53.397059999999996L869.3199999999999,53.397059999999996L862.92,91.77940000000001ZM786.83844,105.8529L792.3241,67.4706L786.23625,67.4706L781,105.8529L786.83844,105.8529ZM784.84,90.5C785.54692,90.5,786.12,89.9272,786.12,89.22059999999999C786.12,88.51400000000001,785.54692,87.94120000000001,784.84,87.94120000000001C784.13308,87.94120000000001,783.56,88.51400000000001,783.56,89.22059999999999C783.56,89.9272,784.13308,90.5,784.84,90.5ZM784.84,95.61760000000001C785.54692,95.61760000000001,786.12,95.04480000000001,786.12,94.3382C786.12,93.63159999999999,785.54692,93.05879999999999,784.84,93.05879999999999C784.13308,93.05879999999999,783.56,93.63159999999999,783.56,94.3382C783.56,95.04480000000001,784.13308,95.61760000000001,784.84,95.61760000000001ZM784.84,100.7353C785.54692,100.7353,786.12,100.1625,786.12,99.4559C786.12,98.7493,785.54692,98.1765,784.84,98.1765C784.13308,98.1765,783.56,98.7493,783.56,99.4559C783.56,100.1625,784.13308,100.7353,784.84,100.7353ZM849.864,128.88240000000002L816.84,128.88240000000002L814.28,134L847.56,134L849.864,128.88240000000002Z" fill-rule="evenodd" fill="#5A5D62" fill-opacity="1"/></g></g><g><g><path d="M934.2961,58.31333377075195L945.3418,58.31333377075195L945.3418,72.22893377075195L963.7513,72.22893377075195L963.7513,75.93983377075196L938.2849,75.93983377075196L930.9211,81.50603377075196L907.60237,81.50603377075196L907.60237,78.72293377075195L908.52285,78.72293377075195L909.44332,77.79523377075196L907.60237,77.79523377075196L907.60237,76.86753377075195L909.44332,76.86753377075195L910.3638,75.93983377075196L907.60237,75.93983377075196L907.60237,75.01213377075194L910.3638,75.01213377075194L911.28427,74.08443377075196L907.60237,74.08443377075196L907.60237,72.22893377075195L925.0914,72.22893377075195L925.0914,31.409733770751956L932.4552,16.566333770751953L934.2961,16.566333770751953L934.2961,58.31333377075195ZM998.7293999999999,162.21733377075196L987.6837,162.21733377075196L987.6837,50.38113377075195L995.292,34.19283377075195L1028.185,34.19283377075195L1028.185,16.566333770751953L1044.753,16.566333770751953L1044.753,23.98802377075195L1066.845,23.98802377075195L1070.526,18.421753770751952L1080.652,18.421753770751952L1079.731,19.349463770751953L1076.049,19.349463770751953L1076.049,20.277173770751954L1079.731,20.277173770751954L1078.811,21.204883770751955L1076.049,21.204883770751955L1076.049,22.132593770751953L1078.811,22.132593770751953L1077.8899999999999,23.060303770751954L1076.049,23.060303770751954L1076.049,30.482033770751954L1041.071,30.482033770751954L1041.071,42.54223377075195L998.7293999999999,42.54223377075195L998.7293999999999,74.08443377075196L1022.662,74.08443377075196L1022.662,64.80723377075196L1006.093,64.80723377075196L1006.093,51.81933377075195L1022.662,51.81933377075195L1022.662,46.253033770751955L1032.787,46.253033770751955L1032.787,125.10833377075195L1004.252,125.10833377075195L1004.252,120.47033377075195L1022.662,120.47033377075195L1022.662,111.19283377075195L1006.093,111.19283377075195L1006.093,98.20483377075195L1022.662,98.20483377075195L1022.662,88.92773377075196L998.7293999999999,88.92773377075196L998.7293999999999,162.21733377075196ZM904.84095,18.421753770751952L908.52285,62.95183377075195L921.4095,62.95183377075195L917.7276,18.421753770751952L904.84095,18.421753770751952ZM1119.523,107.48193377075195L1103.245,122.32533377075195L1092.618,122.32533377075195L1092.618,118.61433377075195L1094.919,113.97593377075195L1098.141,113.97593377075195L1099.061,113.04823377075195L1095.379,113.04823377075195L1095.839,112.12053377075195L1099.061,112.12053377075195L1099.982,111.19283377075195L1096.3,111.19283377075195L1096.76,110.26513377075196L1099.982,110.26513377075196L1100.902,109.33743377075196L1097.22,109.33743377075196L1099.982,103.77113377075196L1151.528,103.77113377075196L1151.528,94.49403377075195L1098.141,94.49403377075195L1151.528,85.21693377075195L1151.528,64.80723377075196L1136.801,64.80723377075196L1136.801,79.65063377075195L1119.312,83.00803377075195L1119.312,50.60803377075195L1135.077,30.482033770751954L1113.789,30.482033770751954L1113.789,18.421753770751952L1168.097,18.421753770751952L1168.097,107.48193377075195L1119.523,107.48193377075195ZM1151.528,122.32533377075195L1108.733,122.32533377075195L1120.941,111.19283377075195L1171.779,111.19283377075195L1171.779,18.421753770751952L1223.248,18.421753770751952L1211.359,43.98433377075195L1211.359,68.51813377075194L1227.9279999999999,68.51813377075194L1227.9279999999999,94.49403377075195L1197.5520000000001,94.49403377075195L1197.5520000000001,103.77113377075196L1247.258,103.77113377075196L1250.94,98.20483377075195L1256.462,98.20483377075195L1256.462,122.32533377075195L1195.711,122.32533377075195L1195.711,157.57833377075195L1192.029,163.14433377075196L1172.027,163.14433377075196L1179.142,154.53933377075197L1179.142,132.53033377075195L1151.528,132.53033377075195L1151.528,122.32533377075195ZM1293.281,18.421753770751952L1374.283,18.421753770751952L1374.283,29.554233770751953L1442.3980000000001,29.554233770751953L1442.3980000000001,62.95183377075195L1322.737,62.95183377075195L1322.737,161.28933377075197L1301.566,161.28933377075197L1301.566,79.50103377075195L1285.9180000000001,92.11793377075195L1285.9180000000001,33.26513377075195L1288.219,28.626533770751955L1291.44,28.626533770751955L1292.3609999999999,27.698833770751953L1288.679,27.698833770751953L1289.1390000000001,26.771133770751952L1292.3609999999999,26.771133770751952L1293.281,25.843443770751954L1289.599,25.843443770751954L1290.06,24.915733770751952L1293.281,24.915733770751952L1294.202,23.98802377075195L1290.52,23.98802377075195L1293.281,18.421753770751952ZM1140.483,36.97593377075195L1153.369,36.97593377075195L1153.369,46.253033770751955L1140.483,46.253033770751955L1140.483,36.97593377075195ZM1184.665,36.97593377075195L1197.5520000000001,36.97593377075195L1197.5520000000001,46.253033770751955L1184.665,46.253033770751955L1184.665,36.97593377075195ZM1322.737,36.97593377075195L1407.42,36.97593377075195L1407.42,46.253033770751955L1322.737,46.253033770751955L1322.737,36.97593377075195ZM1415.705,38.83143377075196C1416.213,38.83143377075196,1416.625,38.41603377075195,1416.625,37.90363377075195C1416.625,37.391333770751956,1416.213,36.97593377075195,1415.705,36.97593377075195C1415.196,36.97593377075195,1414.784,37.391333770751956,1414.784,37.90363377075195C1414.784,38.41603377075195,1415.196,38.83143377075196,1415.705,38.83143377075196ZM1415.705,42.54223377075195C1416.213,42.54223377075195,1416.625,42.12683377075196,1416.625,41.614533770751954C1416.625,41.10213377075195,1416.213,40.68683377075195,1415.705,40.68683377075195C1415.196,40.68683377075195,1414.784,41.10213377075195,1414.784,41.614533770751954C1414.784,42.12683377075196,1415.196,42.54223377075195,1415.705,42.54223377075195ZM1415.705,46.253033770751955C1416.213,46.253033770751955,1416.625,45.83773377075195,1416.625,45.32533377075195C1416.625,44.81303377075196,1416.213,44.39763377075195,1415.705,44.39763377075195C1415.196,44.39763377075195,1414.784,44.81303377075196,1414.784,45.32533377075195C1414.784,45.83773377075195,1415.196,46.253033770751955,1415.705,46.253033770751955ZM1036.469,128.81933377075194L1036.469,46.253033770751955L1050.276,46.253033770751955L1050.276,51.81933377075195L1057.38,51.81933377075195L1066.845,62.721333770751954L1066.845,102.07483377075195L1057.798,111.19283377075195L1048.435,111.19283377075195L1048.435,120.47033377075195L1074.208,120.47033377075195L1074.208,132.25833377075196L1055.799,140.60733377075195L1055.799,163.14433377075196L1004.252,163.14433377075196L1047.5149999999999,147.37333377075194L1047.5149999999999,137.16833377075196L1030.026,137.16833377075196L1030.026,146.44533377075194L1004.252,155.72333377075196L1004.252,143.66233377075196L1006.093,143.66233377075196L1007.014,142.73533377075194L1004.252,142.73533377075194L1004.252,141.80733377075194L1007.014,141.80733377075194L1007.934,140.87933377075194L1004.252,140.87933377075194L1004.252,139.95233377075195L1007.934,139.95233377075195L1008.855,139.02433377075195L1004.252,139.02433377075195L1004.252,128.81933377075194L1036.469,128.81933377075194ZM984.0018,51.81933377075195L972.8522,51.81933377075195L972.4068,107.48193377075195L984.0018,107.48193377075195L984.0018,51.81933377075195ZM940.7395,62.95183377075195C941.2478,62.95183377075195,941.6599,62.53653377075195,941.6599,62.02413377075195C941.6599,61.511833770751956,941.2478,61.09643377075195,940.7395,61.09643377075195C940.2311,61.09643377075195,939.819,61.511833770751956,939.819,62.02413377075195C939.819,62.53653377075195,940.2311,62.95183377075195,940.7395,62.95183377075195ZM1184.665,62.95183377075195L1197.5520000000001,62.95183377075195L1197.5520000000001,72.22893377075195L1184.665,77.79523377075196L1184.665,62.95183377075195ZM940.7395,66.66273377075196C941.2478,66.66273377075196,941.6599,66.24733377075195,941.6599,65.73503377075195C941.6599,65.22263377075195,941.2478,64.80723377075196,940.7395,64.80723377075196C940.2311,64.80723377075196,939.819,65.22263377075195,939.819,65.73503377075195C939.819,66.24733377075195,940.2311,66.66273377075196,940.7395,66.66273377075196ZM1048.435,64.80723377075196L1061.3220000000001,64.80723377075196L1061.3220000000001,74.08443377075196L1048.435,74.08443377075196L1048.435,64.80723377075196ZM940.7395,70.37353377075195C941.2478,70.37353377075195,941.6599,69.95823377075195,941.6599,69.44583377075196C941.6599,68.93343377075195,941.2478,68.51813377075194,940.7395,68.51813377075194C940.2311,68.51813377075194,939.819,68.93343377075195,939.819,69.44583377075196C939.819,69.95823377075195,940.2311,70.37353377075195,940.7395,70.37353377075195ZM1421.385,114.90363377075195L1344.498,114.90363377075195L1361.873,90.72163377075195L1345.566,70.37353377075195L1442.3980000000001,70.37353377075195L1442.3980000000001,79.65063377075195L1438.716,85.21693377075195L1374.283,85.21693377075195L1370.601,98.20483377075195L1400.056,98.20483377075195L1400.056,88.92773377075196L1429.512,88.92773377075196L1433.194,96.34943377075196L1411.742,96.34943377075196L1421.385,114.90363377075195ZM994.127,77.79523377075196C994.6354,77.79523377075196,995.0475,77.37983377075196,995.0475,76.86753377075195C995.0475,76.35513377075196,994.6354,75.93983377075196,994.127,75.93983377075196C993.6187,75.93983377075196,993.2065,76.35513377075196,993.2065,76.86753377075195C993.2065,77.37983377075196,993.6187,77.79523377075196,994.127,77.79523377075196ZM939.5122,79.65063377075195L963.7513,79.65063377075195L963.7513,83.36153377075195L960.0694,88.92773377075196L945.3418,88.92773377075196L945.3418,161.28933377075197L925.0914,161.28933377075197L925.0914,88.92773377075196L907.60237,88.92773377075196L907.60237,85.21693377075195L932.1484,85.21693377075195L939.5122,79.65063377075195ZM994.127,81.50603377075196C994.6354,81.50603377075196,995.0475,81.09073377075195,995.0475,80.57833377075195C995.0475,80.06603377075194,994.6354,79.65063377075195,994.127,79.65063377075195C993.6187,79.65063377075195,993.2065,80.06603377075194,993.2065,80.57833377075195C993.2065,81.09073377075195,993.6187,81.50603377075196,994.127,81.50603377075196ZM994.127,85.21693377075195C994.6354,85.21693377075195,995.0475,84.80153377075196,995.0475,84.28923377075195C995.0475,83.77683377075195,994.6354,83.36153377075195,994.127,83.36153377075195C993.6187,83.36153377075195,993.2065,83.77683377075195,993.2065,84.28923377075195C993.2065,84.80153377075196,993.6187,85.21693377075195,994.127,85.21693377075195ZM1048.435,88.92773377075196L1061.3220000000001,88.92773377075196L1061.3220000000001,96.34943377075196L1048.435,98.20483377075195L1048.435,88.92773377075196ZM953.6261,108.64023377075195L949.9858,112.83323377075196L949.0237,96.34943377075196L953.6261,96.34943377075196L953.6261,108.64023377075195ZM903,161.28933377075197L909.44669,161.28933377075197L909.44677,161.17533377075196L912.08859,117.68633377075196L905.47213,117.68633377075196L903,161.28933377075197ZM1365.078,146.44533377075194L1328.259,146.44533377075194L1328.259,149.22933377075196L1376.559,149.22933377075196L1385.763,153.86733377075194L1419.28,153.86733377075194L1425.975,161.28933377075197L1440.557,161.28933377075197L1444.239,155.72333377075196L1444.239,146.44533377075194L1405.579,146.44533377075194L1405.579,139.02433377075195L1438.716,139.02433377075195L1438.716,124.18033377075196L1405.579,124.18033377075196L1405.579,118.61433377075195L1365.078,118.61433377075195L1365.078,124.18033377075196L1339.305,124.18033377075196L1336.5439999999999,129.74733377075194L1342.066,129.74733377075194L1341.146,130.67433377075196L1336.083,130.67433377075196L1335.623,131.60233377075195L1341.146,131.60233377075195L1340.226,132.53033377075195L1335.163,132.53033377075195L1334.703,133.45833377075195L1340.226,133.45833377075195L1339.305,134.38533377075197L1334.242,134.38533377075197L1331.941,139.02433377075195L1365.078,139.02433377075195L1365.078,146.44533377075194ZM1053.037,126.03633377075195C1053.546,126.03633377075195,1053.958,125.62033377075196,1053.958,125.10833377075195C1053.958,124.59633377075195,1053.546,124.18033377075196,1053.037,124.18033377075196C1052.529,124.18033377075196,1052.117,124.59633377075195,1052.117,125.10833377075195C1052.117,125.62033377075196,1052.529,126.03633377075195,1053.037,126.03633377075195ZM1053.037,129.74733377075194C1053.546,129.74733377075194,1053.958,129.33133377075194,1053.958,128.81933377075194C1053.958,128.30733377075194,1053.546,127.89133377075196,1053.037,127.89133377075196C1052.529,127.89133377075196,1052.117,128.30733377075194,1052.117,128.81933377075194C1052.117,129.33133377075194,1052.529,129.74733377075194,1053.037,129.74733377075194ZM1125.755,161.28933377075197L1113.544,161.28933377075197L1133.35,137.16833377075196L1108.061,137.16833377075196L1114.709,127.89133377075196L1147.846,127.89133377075196L1125.755,161.28933377075197ZM1236.212,127.89133377075196L1201.234,127.89133377075196L1223.325,161.28933377075197L1234.141,161.28933377075197L1220.112,137.16833377075196L1242.8600000000001,137.16833377075196L1236.212,127.89133377075196ZM1430.432,129.74733377075194C1430.94,129.74733377075194,1431.353,129.33133377075194,1431.353,128.81933377075194C1431.353,128.30733377075194,1430.94,127.89133377075196,1430.432,127.89133377075196C1429.924,127.89133377075196,1429.512,128.30733377075194,1429.512,128.81933377075194C1429.512,129.33133377075194,1429.924,129.74733377075194,1430.432,129.74733377075194ZM963.7513,152.01233377075195L960.593,154.13433377075197L958.322,135.06033377075195L962.3608,130.98933377075195L963.7513,152.01233377075195ZM1053.037,133.45833377075195C1053.546,133.45833377075195,1053.958,133.04233377075195,1053.958,132.53033377075195C1053.958,132.01733377075195,1053.546,131.60233377075195,1053.037,131.60233377075195C1052.529,131.60233377075195,1052.117,132.01733377075195,1052.117,132.53033377075195C1052.117,133.04233377075195,1052.529,133.45833377075195,1053.037,133.45833377075195ZM1430.432,133.45833377075195C1430.94,133.45833377075195,1431.353,133.04233377075195,1431.353,132.53033377075195C1431.353,132.01733377075195,1430.94,131.60233377075195,1430.432,131.60233377075195C1429.924,131.60233377075195,1429.512,132.01733377075195,1429.512,132.53033377075195C1429.512,133.04233377075195,1429.924,133.45833377075195,1430.432,133.45833377075195ZM1430.432,137.16833377075196C1430.94,137.16833377075196,1431.353,136.75333377075196,1431.353,136.24133377075196C1431.353,135.72833377075196,1430.94,135.31333377075197,1430.432,135.31333377075197C1429.924,135.31333377075197,1429.512,135.72833377075196,1429.512,136.24133377075196C1429.512,136.75333377075196,1429.924,137.16833377075196,1430.432,137.16833377075196ZM1312.6109999999999,146.44533377075194C1313.12,146.44533377075194,1313.532,146.03033377075195,1313.532,145.51833377075195C1313.532,145.00533377075195,1313.12,144.59033377075195,1312.6109999999999,144.59033377075195C1312.103,144.59033377075195,1311.691,145.00533377075195,1311.691,145.51833377075195C1311.691,146.03033377075195,1312.103,146.44533377075194,1312.6109999999999,146.44533377075194ZM1312.6109999999999,150.15633377075196C1313.12,150.15633377075196,1313.532,149.74133377075196,1313.532,149.22933377075196C1313.532,148.71633377075196,1313.12,148.30133377075197,1312.6109999999999,148.30133377075197C1312.103,148.30133377075197,1311.691,148.71633377075196,1311.691,149.22933377075196C1311.691,149.74133377075196,1312.103,150.15633377075196,1312.6109999999999,150.15633377075196ZM1312.6109999999999,153.86733377075194C1313.12,153.86733377075194,1313.532,153.45233377075195,1313.532,152.93933377075194C1313.532,152.42733377075194,1313.12,152.01233377075195,1312.6109999999999,152.01233377075195C1312.103,152.01233377075195,1311.691,152.42733377075194,1311.691,152.93933377075194C1311.691,153.45233377075195,1312.103,153.86733377075194,1312.6109999999999,153.86733377075194Z" fill-rule="evenodd" fill="#FFFFFF" fill-opacity="1"/></g><g><path d="M1217.8808203125,42.9554L1230.1548203125,16.56626L1242.7338203125,16.56626L1246.4158203125,11L1256.5408203125,11L1255.6208203125,11.927711L1251.9388203125,11.927711L1251.9388203125,12.85542L1255.6208203125,12.85542L1254.6998203125,13.78313L1251.9388203125,13.78313L1251.9388203125,14.710840000000001L1254.6998203125,14.710840000000001L1253.7798203125,15.63855L1251.9388203125,15.63855L1251.9388203125,92.6385L1234.4498203125,92.6385L1234.4498203125,62.9518L1217.8808203125,62.9518L1217.8808203125,42.9554ZM1447.9998203125,11L1437.8748203125,11L1434.1928203124999,16.56626L1378.9638203125,16.56626L1378.9638203125,23.9879L1443.3978203125,23.9879L1443.3978203125,15.63855L1445.2388203125001,15.63855L1446.1588203125,14.710840000000001L1443.3978203125,14.710840000000001L1443.3978203125,13.78313L1446.1588203125,13.78313L1447.0798203125,12.85542L1443.3978203125,12.85542L1443.3978203125,11.927711L1447.0798203125,11.927711L1447.9998203125,11ZM937.1363203125,52.747L944.5001203125,52.747L944.5001203125,14.710840000000001L937.1363203125,14.710840000000001L937.1363203125,52.747ZM1008.9338203125,16.56626L1023.6608203124999,16.56626L1023.6608203124999,30.4819L992.1203203125,30.4819L983.8360203125,48.1084L972.0401203125,48.1084L972.1144203125,38.8313L979.4782203125,23.9879L1008.9338203125,23.9879L1008.9338203125,16.56626ZM948.1820203125,62.9518L961.0687203125,62.9518L964.7506203125,18.421689999999998L951.8639203125,18.421689999999998L948.1820203125,62.9518ZM1097.2988203125,87.0723L1114.7878203125001,83.3614L1114.7878203125001,49.3197L1126.6368203125,34.1928L1109.2648203125,34.1928L1109.2648203125,18.421689999999998L1104.6628203125001,18.421689999999998L1097.2988203125,33.265100000000004L1097.2988203125,87.0723ZM1043.9118203125,34.1928L1075.2078203125,34.1928L1075.2078203125,36.975899999999996L1071.5258203125,42.5422L1043.9118203125,42.5422L1043.9118203125,34.1928ZM1069.6848203125,61.327L1061.4308203125,51.8193L1073.3668203125,51.8193L1073.3668203125,74.0843L1078.8898203125,74.0843L1078.8898203125,88.9277L1075.2078203125,88.9277L1075.2078203125,111.193L1062.1628203125001,111.193L1069.6848203125,103.6119L1069.6848203125,61.327ZM1225.2448203125,51.8193C1225.7528203125,51.8193,1226.1658203125,51.4039,1226.1658203125,50.8916C1226.1658203125,50.3792,1225.7528203125,49.9639,1225.2448203125,49.9639C1224.7368203125,49.9639,1224.3248203125,50.3792,1224.3248203125,50.8916C1224.3248203125,51.4039,1224.7368203125,51.8193,1225.2448203125,51.8193ZM1225.2448203125,55.5301C1225.7528203125,55.5301,1226.1658203125,55.1148,1226.1658203125,54.6024C1226.1658203125,54.09,1225.7528203125,53.6747,1225.2448203125,53.6747C1224.7368203125,53.6747,1224.3248203125,54.09,1224.3248203125,54.6024C1224.3248203125,55.1148,1224.7368203125,55.5301,1225.2448203125,55.5301ZM1225.2448203125,59.241C1225.7528203125,59.241,1226.1658203125,58.8256,1226.1658203125,58.3132C1226.1658203125,57.8009,1225.7528203125,57.3855,1225.2448203125,57.3855C1224.7368203125,57.3855,1224.3248203125,57.8009,1224.3248203125,58.3132C1224.3248203125,58.8256,1224.7368203125,59.241,1225.2448203125,59.241ZM1105.5828203125,66.6626C1106.0918203125,66.6626,1106.5038203125,66.2473,1106.5038203125,65.73490000000001C1106.5038203125,65.2226,1106.0918203125,64.8072,1105.5828203125,64.8072C1105.0748203125,64.8072,1104.6628203125001,65.2226,1104.6628203125001,65.73490000000001C1104.6628203125001,66.2473,1105.0748203125,66.6626,1105.5828203125,66.6626ZM1105.5828203125,70.3735C1106.0918203125,70.3735,1106.5038203125,69.9581,1106.5038203125,69.44579999999999C1106.5038203125,68.9334,1106.0918203125,68.5181,1105.5828203125,68.5181C1105.0748203125,68.5181,1104.6628203125001,68.9334,1104.6628203125001,69.44579999999999C1104.6628203125001,69.9581,1105.0748203125,70.3735,1105.5828203125,70.3735ZM1356.3968203125,90.8446L1339.1108203125,114.904L1327.4178203125,114.904L1337.5428203125,85.2169L1327.4178203125,85.2169L1327.4178203125,70.3735L1339.9908203125,70.3735L1356.3968203125,90.8446ZM1105.5828203125,74.0843C1106.0918203125,74.0843,1106.5038203125,73.669,1106.5038203125,73.1566C1106.5038203125,72.6443,1106.0918203125,72.22890000000001,1105.5828203125,72.22890000000001C1105.0748203125,72.22890000000001,1104.6628203125001,72.6443,1104.6628203125001,73.1566C1104.6628203125001,73.669,1105.0748203125,74.0843,1105.5828203125,74.0843ZM1295.2008203125001,89.0773L1295.2008203125001,163.145L1272.1888203125,163.145L1283.2348203125,152.94L1283.2348203125,98.7255L1295.2008203125001,89.0773ZM915.1611203125,113.976L912.2869603125,161.289L916.8859203125,161.289L920.5678203125,96.3494L905.8401933125,96.3494L904.8408203125,113.976L915.1611203125,113.976ZM949.5675203125,117.981L949.4379203125,117.867L951.8639203125,159.434L956.3177203125,156.441L953.6114203125001,133.711L961.1936203125,126.069L959.2277203125,96.3494L956.4663203125,96.3494L956.4663203125,110.0345L949.5675203125,117.981ZM1420.6668203125,101.9156L1437.8748203125,101.9156L1440.6358203125,107.4819L1436.0338203125,107.4819L1436.9538203125,108.4096L1441.0958203125,108.4096L1441.5568203125,109.3373L1436.9538203125,109.3373L1437.8748203125,110.265L1442.0168203125,110.265L1442.4768203125,111.193L1437.8748203125,111.193L1438.7948203125,112.12L1442.9368203125,112.12L1445.2388203125001,116.759L1428.3808203125,116.759L1420.6668203125,101.9156ZM910.4425703125,103.7711C910.9509303125,103.7711,911.3630403125,103.3557,911.3630403125,102.8434C911.3630403125,102.331,910.9509303125,101.9156,910.4425703125,101.9156C909.9342003125,101.9156,909.5220903125,102.331,909.5220903125,102.8434C909.5220903125,103.3557,909.9342003125,103.7711,910.4425703125,103.7711ZM910.4425703125,107.4819C910.9509303125,107.4819,911.3630403125,107.0666,911.3630403125,106.5542C911.3630403125,106.0418,910.9509303125,105.6265,910.4425703125,105.6265C909.9342003125,105.6265,909.5220903125,106.0418,909.5220903125,106.5542C909.5220903125,107.0666,909.9342003125,107.4819,910.4425703125,107.4819ZM910.4425703125,111.193C910.9509303125,111.193,911.3630403125,110.7774,911.3630403125,110.265C911.3630403125,109.7527,910.9509303125,109.3373,910.4425703125,109.3373C909.9342003125,109.3373,909.5220903125,109.7527,909.5220903125,110.265C909.5220903125,110.7774,909.9342003125,111.193,910.4425703125,111.193ZM960.1482203125,164.072L983.1600203125,164.072L983.1600203125,113.048L971.5354203125,113.048L971.1939203125,155.723L960.1482203125,164.072ZM1172.7778203125,155.051L1164.5518203125,165L1148.8458203125,165L1148.8458203125,138.096L1172.7778203125,138.096L1172.7778203125,155.051ZM1062.3208203125,143.007L1077.0488203125,136.327L1077.0488203125,157.578L1073.3668203125,163.145L1062.3208203125,163.145L1062.3208203125,143.007ZM1089.9348203125,163.145L1107.9228203124999,163.145L1124.6818203125,142.735L1104.5608203125,142.735L1089.9348203125,163.145ZM1261.1438203124999,161.289L1239.4088203125,161.289L1227.5378203125001,140.88L1246.5178203125001,140.88L1254.4958203125,152.012L1251.9388203125,152.012L1252.8588203125,152.94L1255.1608203125,152.94L1255.8248203125,153.867L1252.8588203125,153.867L1253.7798203125,154.795L1256.4898203125,154.795L1257.1548203125,155.723L1253.7798203125,155.723L1254.6998203125,156.651L1257.8198203125,156.651L1261.1438203124999,161.289ZM1158.9708203125,148.301C1159.4788203125,148.301,1159.8908203125,147.886,1159.8908203125,147.373C1159.8908203125,146.861,1159.4788203125,146.446,1158.9708203125,146.446C1158.4628203125,146.446,1158.0498203125,146.861,1158.0498203125,147.373C1158.0498203125,147.886,1158.4628203125,148.301,1158.9708203125,148.301ZM1158.9708203125,152.012C1159.4788203125,152.012,1159.8908203125,151.597,1159.8908203125,151.084C1159.8908203125,150.572,1159.4788203125,150.157,1158.9708203125,150.157C1158.4628203125,150.157,1158.0498203125,150.572,1158.0498203125,151.084C1158.0498203125,151.597,1158.4628203125,152.012,1158.9708203125,152.012ZM1158.9708203125,155.723C1159.4788203125,155.723,1159.8908203125,155.308,1159.8908203125,154.795C1159.8908203125,154.283,1159.4788203125,153.867,1158.9708203125,153.867C1158.4628203125,153.867,1158.0498203125,154.283,1158.0498203125,154.795C1158.0498203125,155.308,1158.4628203125,155.723,1158.9708203125,155.723ZM1329.2588203125001,163.145L1329.2588203125001,154.795L1376.6888203125,154.795L1385.8938203124999,159.434L1418.6508203125,159.434L1421.9978203125002,163.145L1329.2588203125001,163.145Z" fill-rule="evenodd" fill="#5A5D62" fill-opacity="1"/></g></g></g></svg>