<svg xmlns="http://www.w3.org/2000/svg" xmlns:xlink="http://www.w3.org/1999/xlink" fill="none" version="1.1" width="124" height="115" viewBox="0 0 124 115"><defs><filter id="master_svg0_8_291" filterUnits="objectBoundingBox" color-interpolation-filters="sRGB" x="-2" y="-2" width="106" height="110"><feFlood flood-opacity="0" result="BackgroundImageFix"/><feColorMatrix in="SourceAlpha" type="matrix" values="0 0 0 0 0 0 0 0 0 0 0 0 0 0 0 0 0 0 127 0"/><feOffset dy="2" dx="2"/><feGaussianBlur stdDeviation="1"/><feColorMatrix type="matrix" values="0 0 0 0 0 0 0 0 0 0 0 0 0 0 0 0 0 0 0.30000001192092896 0"/><feBlend mode="normal" in2="BackgroundImageFix" result="effect1_dropShadow"/><feBlend mode="normal" in="SourceGraphic" in2="effect1_dropShadow" result="shape"/></filter><filter id="master_svg1_8_294" filterUnits="objectBoundingBox" color-interpolation-filters="sRGB" x="-2" y="-2" width="106" height="96"><feFlood flood-opacity="0" result="BackgroundImageFix"/><feColorMatrix in="SourceAlpha" type="matrix" values="0 0 0 0 0 0 0 0 0 0 0 0 0 0 0 0 0 0 127 0"/><feOffset dy="2" dx="2"/><feGaussianBlur stdDeviation="1"/><feColorMatrix type="matrix" values="0 0 0 0 0 0 0 0 0 0 0 0 0 0 0 0 0 0 0.30000001192092896 0"/><feBlend mode="normal" in2="BackgroundImageFix" result="effect1_dropShadow"/><feBlend mode="normal" in="SourceGraphic" in2="effect1_dropShadow" result="shape"/></filter><filter id="master_svg2_8_297" filterUnits="objectBoundingBox" color-interpolation-filters="sRGB" x="-2" y="-2" width="126" height="61"><feFlood flood-opacity="0" result="BackgroundImageFix"/><feColorMatrix in="SourceAlpha" type="matrix" values="0 0 0 0 0 0 0 0 0 0 0 0 0 0 0 0 0 0 127 0"/><feOffset dy="2" dx="2"/><feGaussianBlur stdDeviation="1"/><feColorMatrix type="matrix" values="0 0 0 0 0 0 0 0 0 0 0 0 0 0 0 0 0 0 0.30000001192092896 0"/><feBlend mode="normal" in2="BackgroundImageFix" result="effect1_dropShadow"/><feBlend mode="normal" in="SourceGraphic" in2="effect1_dropShadow" result="shape"/></filter></defs><g><g style="opacity:0.5;" filter="url(#master_svg0_8_291)"><path d="M53.63,21.2756L46.28,44.7854L11,103L49.22,64.68780000000001L46.28,44.7854L73.72,44.7854L70.78,64.68780000000001L109,103L73.72,44.7854L66.37,21.2756L60,1L53.63,21.2756Z" fill-rule="evenodd" fill="#FFFFFF" fill-opacity="1"/></g><g style="opacity:0.5;" filter="url(#master_svg1_8_294)"><path d="M14.9598,56.1555L48.5541,21.99999701002L44.8159,33.8525L18.9196,60.1814L27.4861,68.89099999999999L24.4503,73.8565L14.9598,64.2074L11,60.1814L14.9598,56.1555ZM72.47630000000001,23.04763L76.2145,34.9001L101.0804,60.1814L92.9456,68.4521L95.9814,73.4176L105.0402,64.2074L109,60.1814L72.47630000000001,23.04763ZM60,63.1801L63.864,65.1434L68.211,61.7076L70.626,69.07L63.864,67.10669999999999L60,69.07L56.1411,67.10929999999999L49.374,69.07L51.789,61.7076L56.15,65.0575L60,63.1801ZM60,101.9481L80.6652,80.9376L84.6704,84.9174L63.9598,105.974L60,110L35.6756,85.2692L39.6807,81.2894L60,101.9481Z" fill-rule="evenodd" fill="#F38D11" fill-opacity="1"/></g><g style="opacity:0.5;" filter="url(#master_svg2_8_297)"><path d="M55.8829,79.91839999999999C88.387,85.60159999999999,116.58,79.2476,118.854,65.7264C120.311,57.0623,110.772,47.5577,95.1785,40.3519L102.668,48.4441Q110.058,53.1392,113.336,58.018299999999996Q115.932,61.8834,115.388,65.12049999999999Q114.844,68.35759999999999,111.133,71.1199Q106.448,74.6069,97.9458,76.5232Q89.1157,78.5132,77.8698,78.40209999999999Q67.4251,78.2988,56.4772,76.3846Q45.5293,74.4704,35.6475,71.0197Q25.0078,67.3043,17.3323,62.4283Q9.94154,57.7332,6.66396,52.854Q4.06754,48.9889,4.6119,45.7519Q5.15626,42.5148,8.867180000000001,39.7525Q13.5517,36.26543,22.0542,34.34918Q26.4692,33.35414,31.4882,32.88442L35.6456,28.99999034047C16.5616,29.925633,2.71162,35.83728,1.146244,45.1459C-1.1275300000000001,58.667100000000005,23.3789,74.2353,55.8829,79.91839999999999Z" fill-rule="evenodd" fill="#2377F5" fill-opacity="1"/></g></g></svg>