<svg xmlns="http://www.w3.org/2000/svg" xmlns:xlink="http://www.w3.org/1999/xlink" fill="none" version="1.1" width="360" height="360" viewBox="0 0 360 360"><defs><filter id="master_svg0_137_0813" filterUnits="objectBoundingBox" color-interpolation-filters="sRGB" x="-20" y="-16" width="370" height="370"><feFlood flood-opacity="0" result="BackgroundImageFix"/><feColorMatrix in="SourceAlpha" type="matrix" values="0 0 0 0 0 0 0 0 0 0 0 0 0 0 0 0 0 0 127 0"/><feOffset dy="4" dx="0"/><feGaussianBlur stdDeviation="5"/><feColorMatrix type="matrix" values="0 0 0 0 0 0 0 0 0 0 0 0 0 0 0 0 0 0 0.30000001192092896 0"/><feBlend mode="normal" in2="BackgroundImageFix" result="effect1_dropShadow"/><feBlend mode="normal" in="SourceGraphic" in2="effect1_dropShadow" result="shape"/></filter><filter id="master_svg1_137_37" filterUnits="objectBoundingBox" color-interpolation-filters="sRGB" x="0" y="0" width="186.521728515625" height="186.521728515625"><feFlood flood-opacity="0" result="BackgroundImageFix"/><feBlend mode="normal" in="SourceGraphic" in2="BackgroundImageFix" result="shape"/><feColorMatrix in="SourceAlpha" type="matrix" result="hardAlpha" values="0 0 0 0 0 0 0 0 0 0 0 0 0 0 0 0 0 0 127 0"/><feOffset dy="0" dx="0"/><feGaussianBlur stdDeviation="10"/><feComposite in2="hardAlpha" operator="arithmetic" k2="-1" k3="1"/><feColorMatrix type="matrix" values="0 0 0 0 0.13725490868091583 0 0 0 0 0.46666666865348816 0 0 0 0 0.9607843160629272 0 0 0 1 0"/><feBlend mode="normal" in2="shape" result="effect1_innerShadow"/></filter></defs><g style="opacity:0.800000011920929;" filter="url(#master_svg0_137_0813)"><g filter="url(#master_svg1_137_37)"><ellipse cx="180" cy="176" rx="93.2608642578125" ry="93.2608642578125" fill="#2377F5" fill-opacity="0.10000000149011612"/></g><g transform="matrix(0,1,-1,0,356,-334)"><path d="M353.6087,122.913Q345,147.304,345,176L352.17391,176Q352.17391,159.855,355.3805,144.185Q358.5044,128.91899999999998,364.5737,114.569Q369.659,102.5462,376.6588,91.5252Q376.6938,91.4701,376.7263,91.4191Q377.1777,90.7168,377.5054,90.2068Q378.3026,88.9786,379.1239,87.7629Q387.6342,75.166,398.4001,64.40010000000001Q409.166,53.6342,421.7629,45.1239Q434.4779,36.5338,448.569,30.5737Q462.919,24.5045,478.185,21.380499999999998Q493.855,18.17391,510,18.17391Q526.145,18.17391,541.815,21.380499999999998Q557.081,24.5045,571.431,30.5737Q585.5219999999999,36.5338,598.237,45.1239Q610.8340000000001,53.6342,621.6,64.40010000000001Q632.366,75.166,640.876,87.7629Q641.6990000000001,88.9804,642.4970000000001,90.21Q642.9159999999999,90.8629,643.271,91.4151Q643.306,91.4702,643.341,91.5252Q650.341,102.5462,655.4259999999999,114.569Q661.496,128.91899999999998,664.62,144.185Q667.826,159.855,667.826,176L675,176Q675,147.304,666.3910000000001,122.913L671.597,116.453Q670.2090000000001,112.688,668.6410000000001,108.9799Q663.081,95.8355,655.4259999999999,83.7911L643.341,91.5239Q643.306,91.4691,643.271,91.4151Q642.887,90.8107,642.4970000000001,90.21Q640.924,87.7625,640.924,87.7608Q647.015,83.9977,652.761,79.8695Q652.831,79.9151,652.845,79.9015Q652.867,79.8814,652.765,79.7309Q643.4839999999999,65.99369999999999,631.745,54.2547Q628.951,51.4607,626.044,48.806L618.685,51.8913Q605.9839999999999,41.4381,600.75,37.9022Q586.8779999999999,28.5305,577.435,24.9891Q561.771,18.36386,558.84,18.17391Q537.261,11,510,11Q482.73900000000003,11,461.15999999999997,18.17391Q458.229,18.36386,442.5652,24.9891Q433.1218,28.5305,419.25,37.9022Q414.0161,41.4381,401.3152,51.8913L393.9557,48.806Q391.0486,51.4607,388.2547,54.2547Q376.5156,65.99369999999999,367.2349,79.7309Q367.1333,79.8814,367.1546,79.9015Q367.169,79.9151,367.2391,79.8695Q372.9854,83.9977,379.0761,87.7608Q379.0761,87.7625,377.5054,90.2068Q377.1128,90.8117,376.7263,91.4191Q376.6928,91.4711,376.6589,91.5239L364.5738,83.7911Q356.9189,95.8355,351.35931,108.9799Q349.79082,112.688,348.40254,116.453L353.6087,122.913ZM393.9578,169.555L357.1956,174.21L408.1454,174.21Q408.4765,154.452,416.1329,136.35Q419.97950000000003,127.255,425.5239,119.049Q431.0175,110.9172,437.9673,103.9673Q444.9172,97.0175,453.049,91.5239Q461.073,85.8804,470.146,82.0382L470.185,82.1329Q470.166,82.0854,470.146,82.038Q470.165,82.0303,470.185,82.0217L464.804,68.75Q464.76099999999997,68.75,470.146,82.038L470.146,82.0382L464.76099999999997,68.9185Q454.38,73.309,445.017,79.6349Q435.74490000000003,85.8989,427.8219,93.8219Q419.8989,101.7448,413.635,111.017Q407.30899999999997,120.38,402.9185,130.761Q398.4458,141.335,396.1436,152.586Q394.4258,160.981,393.9578,169.555ZM626.0419999999999,169.555L662.804,174.21L611.855,174.21Q611.523,154.452,603.867,136.35Q600.02,127.255,594.476,119.049Q588.983,110.9172,582.033,103.9673Q575.083,97.0175,566.951,91.5239Q558.927,85.8804,549.854,82.0382L555.239,68.9185Q565.62,73.309,574.983,79.6349Q584.255,85.8989,592.178,93.8219Q600.101,101.7448,606.365,111.017Q612.691,120.38,617.082,130.761Q621.554,141.335,623.856,152.586Q625.5740000000001,160.981,626.0419999999999,169.555ZM549.854,82.038L549.854,82.0382L549.815,82.1329Q549.8340000000001,82.0854,549.854,82.038ZM549.854,82.038Q549.835,82.0303,549.815,82.0217L555.196,68.75Q555.239,68.75,549.854,82.038ZM353.6087,229.087Q345,204.696,345,176L352.17391,176Q352.17391,192.145,355.3805,207.815Q358.5044,223.081,364.5737,237.431Q369.659,249.454,376.6588,260.475Q376.6918,260.527,376.7258,260.58000000000004Q376.69259999999997,260.529,376.6589,260.476L364.5738,268.209Q356.9189,256.164,351.35931,243.02Q349.79082,239.312,348.40254,235.547L353.6087,229.087ZM377.5056,261.794Q377.1128,261.188,376.7258,260.58000000000004Q377.1443,261.231,377.5056,261.794ZM510,333.826Q493.855,333.826,478.185,330.62Q462.919,327.496,448.569,321.426Q434.4779,315.466,421.7629,306.876Q409.166,298.366,398.4001,287.6Q387.6342,276.834,379.1239,264.23699999999997Q378.3027,263.022,377.5056,261.794Q379.0761,264.23699999999997,379.0761,264.23900000000003Q372.9854,268.002,367.2391,272.13Q367.169,272.085,367.1546,272.098Q367.1333,272.119,367.2349,272.269Q376.5156,286.006,388.2547,297.745Q391.0486,300.539,393.9557,303.194L401.3152,300.109Q414.0161,310.562,419.25,314.098Q433.1218,323.469,442.5652,327.011Q458.229,333.636,461.15999999999997,333.826Q482.73900000000003,341,510,341Q537.261,341,558.84,333.826Q561.771,333.636,577.435,327.011Q586.8779999999999,323.469,600.75,314.098Q605.9839999999999,310.562,618.685,300.109L626.044,303.194Q628.951,300.539,631.745,297.745Q643.4839999999999,286.006,652.765,272.269Q652.867,272.119,652.845,272.098Q652.831,272.085,652.761,272.13Q647.015,268.002,640.924,264.23900000000003L642.4970000000001,261.78999999999996Q642.887,261.18899999999996,643.2719999999999,260.584Q643.306,260.531,643.341,260.476L655.4259999999999,268.209Q663.081,256.164,668.6410000000001,243.02Q670.2090000000001,239.312,671.597,235.547L666.3910000000001,229.087Q675,204.696,675,176L667.826,176Q667.826,192.145,664.62,207.815Q661.496,223.081,655.4259999999999,237.431Q650.341,249.454,643.341,260.475Q643.308,260.527,643.2719999999999,260.584Q642.919,261.13300000000004,642.4970000000001,261.78999999999996Q641.698,263.02,640.876,264.23699999999997Q632.366,276.834,621.6,287.6Q610.8340000000001,298.366,598.237,306.876Q585.5219999999999,315.466,571.431,321.426Q557.081,327.496,541.815,330.62Q526.145,333.826,510,333.826ZM393.9578,182.445L357.1956,177.79L408.1454,177.79Q408.4765,197.548,416.1329,215.65Q419.97950000000003,224.745,425.5239,232.951Q431.0175,241.083,437.9673,248.033Q444.9172,254.983,453.049,260.476Q461.073,266.12,470.146,269.962L464.76099999999997,283.082Q454.38,278.691,445.017,272.365Q435.74490000000003,266.101,427.8219,258.178Q419.8989,250.255,413.635,240.983Q407.30899999999997,231.62,402.9185,221.239Q398.4458,210.665,396.1436,199.414Q394.4258,191.019,393.9578,182.445ZM470.146,269.962Q464.76099999999997,283.25,464.804,283.25L470.185,269.978Q470.15999999999997,269.968,470.146,269.962ZM626.0419999999999,182.445L662.804,177.79L611.855,177.79Q611.523,197.548,603.867,215.65Q600.02,224.745,594.476,232.951Q588.983,241.083,582.033,248.033Q575.083,254.983,566.951,260.476Q558.927,266.12,549.854,269.962Q549.8340000000001,269.97,549.815,269.978L555.196,283.25Q555.239,283.25,549.854,269.962L555.239,283.082Q565.62,278.691,574.983,272.365Q584.255,266.101,592.178,258.178Q600.101,250.255,606.365,240.983Q612.691,231.62,617.082,221.239Q621.554,210.665,623.856,199.414Q625.5740000000001,191.019,626.0419999999999,182.445Z" fill-rule="evenodd" fill="#FFFFFF" fill-opacity="1"/></g><g transform="matrix(1,-2.2348338291067193e-8,2.2348338291067193e-8,1,-0.000003329902405369012,0.0000013409002974640316)"><path d="M60,149L60,154.775L66.86499,160.1375L66.86499,176.5L66.86499,192.8625L60,198.225L60,204L102.0137,204L110.6636,200.7L180,200.7L249.336,200.7L257.986,204L300,204L300,198.225L293.135,192.8625L293.135,176.5L293.135,160.1375L300,154.775L300,149L257.986,149L249.336,152.3L180,152.3L110.6636,152.3L102.0137,149L60,149Z" fill="#B31010" fill-opacity="1"/><path d="M102.0137,149L110.6636,152.3L249.336,152.3L257.986,149L300,149L300,154.775L293.135,160.1375L293.135,192.8625L300,198.225L300,204L257.986,204L249.336,200.7L110.6636,200.7L102.0137,204L60,204L60,198.225L66.86499,192.8625L66.86499,160.1375L60,154.775L60,149L102.0137,149ZM249.521,153.3L258.171,150L299,150L299,154.28721L292.135,159.6497L292.135,193.3503L299,198.71280000000002L299,203L258.171,203L249.521,199.7L110.4793,199.7L101.8295,203L61,203L61,198.71280000000002L67.86499,193.3503L67.86499,159.6497L61,154.28721L61,150L101.8295,150L110.4793,153.3L249.521,153.3Z" fill-rule="evenodd" fill="#FFFFFF" fill-opacity="1"/></g><g><path d="M116,143.36L117.92,141.4784L117.92,113.92L146.0408,113.92002L148,112L116,112L116,143.36ZM244,143.36L242.07999999999998,141.4784L242.07999999999998,113.92L213.9592,113.92002L212,112L244,112L244,143.36ZM116,208.64L117.92,210.5216L117.92,238.07999999999998L146.0408,238.07999999999998L148,240L116,240L116,208.64ZM244,208.64L242.07999999999998,210.5216L242.07999999999998,238.07999999999998L213.9592,238.07999999999998L212,240L244,240L244,208.64Z" fill="#4DC597" fill-opacity="1"/></g></g></svg>