<svg xmlns="http://www.w3.org/2000/svg" xmlns:xlink="http://www.w3.org/1999/xlink" fill="none" version="1.1" width="285.41796875" height="121" viewBox="0 0 285.41796875 121"><g><g><path d="M1.330810546875,14.5L57.330810546875,63.5L57.330810546875,72L114.830810546875,120.5L200.330810546875,120.5L212.830810546875,107.5L278.330810546875,107.5L284.330810546875,100.5L110.330810546875,100.5L14.330810546875,14.5L1.330810546875,14.5Z" fill="#FFFFFF" fill-opacity="1"/><path d="M56.830810546875,63.7269L0.00009054687500009706,14L14.522010546875,14L110.521810546875,100L285.417810546875,100L278.560810546875,108L213.043810546875,108L200.543810546875,121L114.647810546875,121L56.830810546875,72.2324L56.830810546875,63.7269ZM57.830810546875,71.7676L57.830810546875,63.2731L57.660110546875,63.1237L2.661530546875,15L14.139610546875,15L110.139810546875,101L283.243810546875,101L278.100810546875,107L212.617810546875,107L200.117810546875,120L115.013810546875,120L57.830810546875,71.7676Z" fill-rule="evenodd" fill="#D8D8D8" fill-opacity="1"/></g></g></svg>