<svg xmlns="http://www.w3.org/2000/svg" xmlns:xlink="http://www.w3.org/1999/xlink" fill="none" version="1.1" width="285.41796875" height="121" viewBox="0 0 285.41796875 121"><g transform="matrix(-1,0,0,1,568.17431640625,0)"><g><path d="M284.087158203125,14.5L340.087158203125,63.5L340.087158203125,72L397.587158203125,120.5L483.087158203125,120.5L495.587158203125,107.5L561.087158203125,107.5L567.087158203125,100.5L393.087158203125,100.5L297.087158203125,14.5L284.087158203125,14.5Z" fill="#FFFFFF" fill-opacity="1"/><path d="M339.587158203125,63.7269L282.756438203125,14L297.278358203125,14L393.27815820312503,100L568.174158203125,100L561.317158203125,108L495.80015820312497,108L483.30015820312497,121L397.404158203125,121L339.587158203125,72.2324L339.587158203125,63.7269ZM340.587158203125,71.7676L340.587158203125,63.2731L340.416458203125,63.1237L285.417878203125,15L296.895958203125,15L392.89615820312497,101L566.000158203125,101L560.857158203125,107L495.37415820312503,107L482.87415820312503,120L397.770158203125,120L340.587158203125,71.7676Z" fill-rule="evenodd" fill="#D8D8D8" fill-opacity="1"/></g></g></svg>