<svg xmlns="http://www.w3.org/2000/svg" xmlns:xlink="http://www.w3.org/1999/xlink" fill="none" version="1.1" width="285.41796875" height="121" viewBox="0 0 285.41796875 121"><g transform="matrix(1,0,0,-1,0,242)"><g><path d="M1.330810546875,135.5L57.330810546875,184.5L57.330810546875,193L114.830810546875,241.5L200.330810546875,241.5L212.830810546875,228.5L278.330810546875,228.5L284.330810546875,221.5L110.330810546875,221.5L14.330810546875,135.5L1.330810546875,135.5Z" fill="#FFFFFF" fill-opacity="1"/><path d="M56.830810546875,184.7269L0.00009054687500009706,135L14.522010546875,135L110.521810546875,221L285.417810546875,221L278.560810546875,229L213.043810546875,229L200.543810546875,242L114.647810546875,242L56.830810546875,193.23239999999998L56.830810546875,184.7269ZM57.830810546875,192.76760000000002L57.830810546875,184.2731L57.660110546875,184.12369999999999L2.661530546875,136L14.139610546875,136L110.139810546875,222L283.243810546875,222L278.100810546875,228L212.617810546875,228L200.117810546875,241L115.013810546875,241L57.830810546875,192.76760000000002Z" fill-rule="evenodd" fill="#D8D8D8" fill-opacity="1"/></g></g></svg>