<svg xmlns="http://www.w3.org/2000/svg" xmlns:xlink="http://www.w3.org/1999/xlink" fill="none" version="1.1" width="285.41796875" height="121" viewBox="0 0 285.41796875 121"><g transform="matrix(-1,0,0,-1,568.17431640625,242)"><g><path d="M284.087158203125,135.5L340.087158203125,184.5L340.087158203125,193L397.587158203125,241.5L483.087158203125,241.5L495.587158203125,228.5L561.087158203125,228.5L567.087158203125,221.5L393.087158203125,221.5L297.087158203125,135.5L284.087158203125,135.5Z" fill="#FFFFFF" fill-opacity="1"/><path d="M339.587158203125,184.7269L282.756438203125,135L297.278358203125,135L393.27815820312503,221L568.174158203125,221L561.317158203125,229L495.80015820312497,229L483.30015820312497,242L397.404158203125,242L339.587158203125,193.23239999999998L339.587158203125,184.7269ZM340.587158203125,192.76760000000002L340.587158203125,184.2731L340.416458203125,184.12369999999999L285.417878203125,136L296.895958203125,136L392.89615820312497,222L566.000158203125,222L560.857158203125,228L495.37415820312503,228L482.87415820312503,241L397.770158203125,241L340.587158203125,192.76760000000002Z" fill-rule="evenodd" fill="#D8D8D8" fill-opacity="1"/></g></g></svg>