<svg xmlns="http://www.w3.org/2000/svg" xmlns:xlink="http://www.w3.org/1999/xlink" fill="none" version="1.1" width="771" height="1104" viewBox="0 0 771 1104"><g><g><path d="M0,190.175L24.2909,212.872C51.2896,184.014,81.7088,158.393,114.902,136.656L142.903,149.293C180.456,126.897,221.367,109.542,264.7,98.1639L280.98,67.1997C314.672,59.9517,349.64,56.1356,385.5,56.1356C421.36,56.1356,456.328,59.9517,490.02,67.1997L506.3,98.1639C549.633,109.542,590.544,126.897,628.097,149.293L656.098,136.656C689.291,158.393,719.71,184.014,746.709,212.872L771,190.175C737.325,154.334,698.704,123.19,656.228,97.8319L612.463,111.168C589.686,99.383,565.874,89.3165,541.201,81.1401L520.555,16.6299C477.335,5.76846,432.091,0,385.5,0C338.909,0,293.665,5.76846,250.445,16.6299L229.799,81.1401C205.126,89.3165,181.314,99.383,158.537,111.168L114.772,97.8319C72.2956,123.19,33.6754,154.334,0,190.175ZM0,913.825C33.6754,949.666,72.2956,980.81,114.772,1006.17L158.537,992.832C181.314,1004.62,205.126,1014.68,229.799,1022.86L250.445,1087.37C293.665,1098.23,338.909,1104,385.5,1104C432.091,1104,477.335,1098.23,520.555,1087.37L541.201,1022.86C565.874,1014.68,589.686,1004.62,612.463,992.832L656.228,1006.17C698.704,980.81,737.325,949.666,771,913.825L746.709,891.128C719.71,919.986,689.291,945.607,656.098,967.344L628.097,954.707C590.544,977.103,549.633,994.458,506.3,1005.84L490.02,1036.8C456.328,1044.05,421.36,1047.86,385.5,1047.86C349.64,1047.86,314.672,1044.05,280.98,1036.8L264.7,1005.84C221.367,994.458,180.456,977.103,142.903,954.707L114.902,967.344C81.7088,945.607,51.2896,919.986,24.2909,891.128L0,913.825Z" fill="#D8D8D8" fill-opacity="1"/></g></g></svg>