<svg xmlns="http://www.w3.org/2000/svg" xmlns:xlink="http://www.w3.org/1999/xlink" fill="none" version="1.1" width="395" height="395.0000305175781" viewBox="0 0 395 395.0000305175781"><g><g><path d="M62.9131,52.795230517578126L89.9768,81.89333051757812C117.54,55.49863051757813,151.641,41.515030517578126,191.98,39.40593051757813L190.604,0.0000027427781249999996C141.327,1.689990517578125,96.6303,21.421430517578123,62.9131,52.795230517578126ZM204.654,0.010680917578125L203.216,39.723030517578124C241.37,40.549230517578124,275.371,54.77433051757812,305.386,81.80723051757812L332.278,52.970030517578124C296.238,19.320730517578124,250.681,1.667660517578125,204.654,0.010680917578125ZM39.7231,191.78603051757813L0.0107349,190.34803051757814C1.66772,144.32103051757812,19.3208,98.76373051757813,52.9701,62.72443051757813L81.8072,89.61573051757813C54.7743,119.63103051757813,40.5492,153.63203051757813,39.7231,191.78603051757813ZM342.205,62.914230517578126L313.107,89.97793051757813C339.501,117.54103051757812,353.485,151.64203051757812,355.594,191.98103051757812L395,190.60503051757811C393.31,141.32803051757813,373.579,96.63143051757812,342.205,62.914230517578126ZM81.8934,305.0250305175781L52.7953,332.0890305175781C21.4214,298.37203051757814,1.69001,253.67503051757814,0,204.39803051757812L39.406,203.02203051757812C41.515,243.36103051757811,55.4987,277.4620305175781,81.8934,305.0250305175781ZM394.989,204.65603051757813L355.277,203.21703051757814C354.451,241.37103051757813,340.226,275.37203051757814,313.193,305.3870305175781L342.03,332.2790305175781C375.679,296.2390305175781,393.332,250.6820305175781,394.989,204.65603051757813ZM305.024,313.10703051757815L332.088,342.2050305175781C298.371,373.57903051757813,253.674,393.3100305175781,204.397,395.0000305175781L203.021,355.5940305175781C243.36,353.48503051757814,277.461,339.5010305175781,305.024,313.10703051757815ZM191.785,355.2770305175781L190.346,394.9890305175781C144.32,393.3320305175781,98.7625,375.6790305175781,62.7233,342.0300305175781L89.6146,313.1930305175781C119.63,340.2260305175781,153.631,354.45103051757815,191.785,355.2770305175781Z" fill-rule="evenodd" fill="#267CC2" fill-opacity="0.501960813999176"/></g></g></svg>