<svg xmlns="http://www.w3.org/2000/svg" xmlns:xlink="http://www.w3.org/1999/xlink" fill="none" version="1.1" width="713" height="463" viewBox="0 0 713 463"><defs><filter id="master_svg0_124_82" filterUnits="objectBoundingBox" color-interpolation-filters="sRGB" x="-6" y="-6" width="716" height="466"><feFlood flood-opacity="0" result="BackgroundImageFix"/><feColorMatrix in="SourceAlpha" type="matrix" values="0 0 0 0 0 0 0 0 0 0 0 0 0 0 0 0 0 0 127 0"/><feOffset dy="0" dx="0"/><feGaussianBlur stdDeviation="1.5"/><feColorMatrix type="matrix" values="0 0 0 0 0.13725490868091583 0 0 0 0 0.46666666865348816 0 0 0 0 0.9607843160629272 0 0 0 1 0"/><feBlend mode="normal" in2="BackgroundImageFix" result="effect1_dropShadow"/><feBlend mode="normal" in="SourceGraphic" in2="effect1_dropShadow" result="shape"/></filter><linearGradient x1="0.5" y1="0" x2="0.5" y2="1" id="master_svg1_124_250"><stop offset="0%" stop-color="#01FFFF" stop-opacity="0"/><stop offset="100%" stop-color="#01FFFF" stop-opacity="1"/></linearGradient></defs><g filter="url(#master_svg0_124_82)"><path d="M87.3428,458.5L140.998,458.5Q133.545,451.415,126.572,443.855L75.6598,443.855Q81.3066,451.333,87.3428,458.5ZM70.2774,436.532L120.028,436.532Q113.844,429.39,108.101,421.887L60.3473,421.887Q65.1285,429.335,70.2774,436.532ZM55.772,414.564L102.6639,414.564Q97.4914,407.382,92.7326,399.919L47.3434,399.919Q51.3821,407.343,55.772,414.564ZM43.4706,392.597L88.2038,392.597Q83.8796,385.385,79.9484,377.952L36.3667,377.952Q39.7495,385.356,43.4706,392.597ZM33.1215,370.629L76.1982,370.629Q72.6121,363.394,69.4034,355.984L27.2144,355.984Q30.0039,363.373,33.1215,370.629ZM24.5421,348.661L66.3423,348.661Q63.4172,341.407,60.8578,334.016L19.7377,334.016Q21.9798,341.391,24.5421,348.661ZM17.5979,326.694L58.4227,326.694Q56.104,319.423,54.1421,312.048L13.82691,312.048Q15.5553,319.411,17.5979,326.694ZM12.19007,304.726L52.2882,304.726Q50.5371,297.441,49.1362,290.081L9.40202,290.081Q10.64116,297.433,12.19007,304.726ZM8.24691,282.758L47.8324,282.758Q46.6221,275.46,45.7577,268.113L6.40668,268.113Q7.17345,275.455,8.24691,282.758ZM5.71908,260.79L44.9832,260.79Q44.2968,253.48,43.9535,246.145L4.804375,246.145Q5.109277,253.477,5.71908,260.79ZM4.5760693,238.823L43.6967,238.823Q43.6111,235.162,43.6111,231.5Q43.6111,227.838,43.6967,224.177L4.5760693,224.177Q4.5,227.838,4.5,231.5Q4.5,235.162,4.5760693,238.823ZM4.804375,216.855L43.9535,216.855Q44.2968,209.52,44.9832,202.21L5.71908,202.21Q5.109277,209.523,4.804375,216.855ZM6.40668,194.887L45.7577,194.887Q46.6221,187.54,47.8324,180.242L8.24691,180.242Q7.173439999999999,187.545,6.40668,194.887ZM9.40202,172.919L49.1362,172.919Q50.5371,165.559,52.2882,158.274L12.19007,158.274Q10.64115,165.567,9.40202,172.919ZM13.82691,150.952L54.1421,150.952Q56.104,143.577,58.4227,136.306L17.5979,136.306Q15.5553,143.589,13.82691,150.952ZM19.7377,128.98399999999998L60.8578,128.98399999999998Q63.4172,121.593,66.3423,114.339L24.5421,114.339Q21.9798,121.609,19.7377,128.98399999999998ZM27.2144,107.016L69.4034,107.016Q72.612,99.6059,76.1982,92.371L33.1215,92.371Q30.0039,99.6273,27.2144,107.016ZM36.3667,85.0484L79.9484,85.0484Q83.8795,77.6149,88.2038,70.4032L43.4706,70.4032Q39.7495,77.6436,36.3667,85.0484ZM47.3434,63.0807L92.7326,63.0807Q97.4913,55.6176,102.6639,48.4355L55.772,48.4355Q51.3821,55.6569,47.3434,63.0807ZM60.3473,41.1129L108.101,41.1129Q113.844,33.6102,120.028,26.4677L70.2774,26.4677Q65.1285,33.6655,60.3473,41.1129ZM75.6598,19.145200000000003L126.572,19.145200000000003Q133.545,11.585429999999999,140.998,4.500000000000017L87.3428,4.5Q81.3066,11.66704,75.6598,19.145200000000003ZM637.34,443.855Q631.693,451.333,625.657,458.5L572.002,458.5Q579.455,451.415,586.428,443.855L637.34,443.855ZM652.653,421.887Q647.872,429.335,642.723,436.532L592.972,436.532Q599.156,429.39,604.899,421.887L652.653,421.887ZM665.657,399.919Q661.618,407.343,657.228,414.564L610.336,414.564Q615.509,407.382,620.267,399.919L665.657,399.919ZM676.633,377.952Q673.25,385.356,669.529,392.597L624.796,392.597Q629.12,385.385,633.052,377.952L676.633,377.952ZM685.786,355.984Q682.996,363.373,679.878,370.629L636.802,370.629Q640.388,363.394,643.597,355.984L685.786,355.984ZM693.262,334.016Q691.02,341.391,688.458,348.661L646.658,348.661Q649.583,341.407,652.142,334.016L693.262,334.016ZM699.173,312.048Q697.445,319.411,695.402,326.694L654.577,326.694Q656.896,319.423,658.858,312.048L699.173,312.048ZM703.598,290.081Q702.359,297.433,700.81,304.726L660.712,304.726Q662.463,297.441,663.864,290.081L703.598,290.081ZM706.593,268.113Q705.827,275.455,704.753,282.758L665.168,282.758Q666.378,275.46,667.242,268.113L706.593,268.113ZM708.196,246.145Q707.891,253.477,707.281,260.79L668.017,260.79Q668.703,253.48,669.046,246.145L708.196,246.145ZM708.424,224.177Q708.5,227.838,708.5,231.5Q708.5,235.162,708.424,238.823L669.303,238.823Q669.389,235.162,669.389,231.5Q669.389,227.838,669.303,224.177L708.424,224.177ZM707.281,202.21Q707.891,209.523,708.196,216.855L669.046,216.855Q668.703,209.52,668.017,202.21L707.281,202.21ZM704.753,180.242Q705.827,187.545,706.593,194.887L667.242,194.887Q666.378,187.54,665.168,180.242L704.753,180.242ZM700.81,158.274Q702.359,165.567,703.598,172.919L663.864,172.919Q662.463,165.559,660.712,158.274L700.81,158.274ZM695.402,136.306Q697.445,143.589,699.173,150.952L658.858,150.952Q656.896,143.577,654.577,136.306L695.402,136.306ZM688.458,114.339Q691.02,121.609,693.262,128.98399999999998L652.142,128.98399999999998Q649.583,121.593,646.658,114.339L688.458,114.339ZM679.878,92.371Q682.996,99.6273,685.786,107.016L643.597,107.016Q640.388,99.6059,636.802,92.371L679.878,92.371ZM669.529,70.4032Q673.25,77.6436,676.633,85.0484L633.052,85.0484Q629.12,77.6149,624.796,70.4032L669.529,70.4032ZM657.228,48.4355Q661.618,55.6569,665.657,63.0807L620.267,63.0807Q615.509,55.6176,610.336,48.4355L657.228,48.4355ZM642.723,26.4677Q647.872,33.6655,652.653,41.1129L604.899,41.1129Q599.156,33.6102,592.972,26.4677L642.723,26.4677ZM625.657,4.500000000000033Q631.693,11.66704,637.34,19.145200000000003L586.428,19.145200000000003Q579.455,11.585429999999999,572.002,4.5L625.657,4.5L625.657,4.500000000000033Z" fill-rule="evenodd" fill="url(#master_svg1_124_250)" fill-opacity="1"/></g></svg>