<svg xmlns="http://www.w3.org/2000/svg" xmlns:xlink="http://www.w3.org/1999/xlink" fill="none" version="1.1" width="459" height="459" viewBox="0 0 459 459"><g><g><path d="M227.102,0.0122658L228.317,9.46815C228.777,9.46533,228.842,9.46392,229.303,9.46392C229.764,9.46392,230.224,9.46533,230.684,9.46816L231.898,0.0122656C231.099,0.00409513,230.3,0,229.5,0C228.7,0,227.901,0.00409519,227.102,0.0122658ZM211.502,10.2024L211.888,0.676659C211.092,0.738106,210.295,0.80368,209.498,0.873413C208.701,0.943161,207.905,1.0169,207.111,1.0946L209.144,10.4087C209.602,10.3658,210.06,10.3243,210.519,10.2841C210.978,10.244,211.043,10.2397,211.502,10.2024ZM247.498,10.2025L247.112,0.676704C247.908,0.738142,248.705,0.803717,249.502,0.873457C250.299,0.943197,251.095,1.01694,251.889,1.09464L249.856,10.4088C249.398,10.3659,248.939,10.3243,248.48,10.2842C248.021,10.244,247.957,10.2398,247.498,10.2025ZM192.011,3.08229L192.457,12.6055C192.004,12.6826,191.939,12.6925,191.486,12.7725C191.032,12.8525,190.579,12.9338,190.126,13.0165L187.289,3.915C188.074,3.76836,188.86,3.62553,189.648,3.48658C190.436,3.34763,191.224,3.21288,192.011,3.08229ZM266.543,12.6056L266.989,3.08239C267.777,3.21297,268.564,3.34772,269.352,3.48667C270.141,3.62562,270.927,3.76844,271.712,3.91509L268.874,13.0166C268.422,12.9339,267.969,12.8526,267.515,12.7726C267.061,12.6926,266.997,12.6827,266.543,12.6056ZM286.579,7.21118L285.305,16.6592C285.75,16.7756,285.813,16.7911,286.258,16.9103C286.703,17.0296,287.148,17.1501,287.591,17.2719L291.211,8.4523C290.442,8.23781,289.671,8.027,288.898,7.81989C288.125,7.61279,287.352,7.4099,286.579,7.21118ZM173.694,16.6593L172.42,7.2112C171.647,7.40991,170.874,7.61281,170.101,7.8199C169.328,8.02701,168.557,8.23782,167.788,8.45232L171.408,17.2719C171.851,17.1501,172.296,17.0296,172.741,16.9103C173.186,16.7911,173.249,16.7756,173.694,16.6593ZM303.644,22.333L305.736,13.0319C306.489,13.2973,307.242,13.5668,307.994,13.8405C308.746,14.1141,309.495,14.3913,310.243,14.672L305.868,23.1426C305.437,22.9826,305.004,22.8238,304.572,22.6662C304.139,22.5086,304.077,22.4877,303.644,22.333ZM153.264,13.0319L155.357,22.333C154.923,22.4877,154.862,22.5086,154.429,22.6662C153.996,22.8238,153.564,22.9826,153.132,23.1426L148.758,14.672C149.505,14.3914,150.255,14.1142,151.007,13.8405C151.758,13.5668,152.511,13.2973,153.264,13.0319ZM137.583,29.5834L134.687,20.5001C133.96,20.83,133.234,21.1641,132.509,21.5022C131.784,21.8404,131.061,22.1819,130.341,22.5267L135.437,30.5837C135.853,30.3867,136.27,30.1909,136.687,29.9962C137.105,29.8014,137.164,29.7752,137.583,29.5834ZM324.313,20.5002L321.417,29.5835C321.835,29.7753,321.895,29.8015,322.313,29.9962C322.73,30.191,323.147,30.3868,323.563,30.5838L328.659,22.5268C327.939,22.182,327.216,21.8405,326.491,21.5023C325.766,21.1642,325.04,20.8301,324.313,20.5002ZM338.491,38.355L342.167,29.5586C342.863,29.9507,343.557,30.3467,344.25,30.7468C344.943,31.1469,345.633,31.5501,346.32,31.9563L340.541,39.5385C340.144,39.306,339.746,39.0746,339.347,38.8442C338.948,38.6139,338.891,38.5826,338.491,38.355ZM116.833,29.5587L120.509,38.3551C120.109,38.5827,120.052,38.614,119.653,38.8443C119.254,39.0747,118.856,39.3061,118.459,39.5386L112.68,31.9564C113.367,31.5502,114.057,31.147,114.75,30.7469C115.443,30.3468,116.137,29.9508,116.833,29.5587ZM359.165,40.1389L354.736,48.5815C355.114,48.843,355.168,48.8792,355.546,49.1434C355.923,49.4077,356.3,49.6729,356.675,49.9391L363.093,42.8894C362.444,42.4249,361.791,41.9631,361.136,41.5041C360.48,41.0452,359.823,40.5901,359.165,40.1389ZM104.264,48.5821L99.8354,40.1395C99.1768,40.5907,98.5198,41.0458,97.8643,41.5047C97.2088,41.9637,96.5565,42.4255,95.9073,42.89L102.325,49.9398C102.7,49.6736,103.077,49.4083,103.454,49.144C103.832,48.8798,103.886,48.8436,104.264,48.5821ZM88.9723,60.1853L83.8247,52.1609C83.2079,52.6678,82.593,53.1784,81.9801,53.6927C81.3671,54.2071,80.7575,54.724,80.1513,55.2433L87.1591,61.7068C87.5097,61.409,87.8615,61.1119,88.2144,60.8158C88.5674,60.5196,88.6181,60.4789,88.9723,60.1853ZM370.028,60.1855L375.176,52.161C375.792,52.6679,376.407,53.1785,377.02,53.6928C377.633,54.2072,378.243,54.7241,378.849,55.2434L371.841,61.707C371.491,61.4091,371.139,61.1121,370.786,60.8159C370.433,60.5197,370.382,60.479,370.028,60.1855ZM68.923,65.5322L74.7505,73.0774C74.4232,73.4007,74.3762,73.4457,74.0504,73.7715C73.7246,74.0973,73.4,74.4238,73.0767,74.7512L65.5323,68.923C66.0909,68.3528,66.6531,67.7847,67.219,67.2189C67.7848,66.6531,68.3528,66.0909,68.923,65.5322ZM390.077,65.5322L384.249,73.0774C384.577,73.4007,384.624,73.4457,384.95,73.7715C385.275,74.0973,385.6,74.4239,385.923,74.7512L393.468,68.923C392.909,68.3528,392.347,67.7847,391.781,67.2189C391.215,66.6531,390.647,66.0909,390.077,65.5322ZM397.294,87.16L403.756,80.1513C404.276,80.7576,404.793,81.3672,405.307,81.9802C405.821,82.5932,406.332,83.208,406.839,83.8248L398.815,88.9732C398.522,88.619,398.227,88.2654,397.931,87.9124C397.634,87.5595,397.592,87.5106,397.294,87.16ZM61.7066,87.1601L55.2438,80.1515C54.7244,80.7577,54.2075,81.3673,53.6932,81.9803C53.1788,82.5933,52.6682,83.2082,52.1614,83.8249L60.1851,88.9733C60.4787,88.6191,60.7736,88.2655,61.0697,87.9126C61.3659,87.5596,61.4087,87.5107,61.7066,87.1601ZM42.8898,95.9067L49.9389,102.325C49.6727,102.701,49.6343,102.753,49.37,103.131C49.1057,103.508,48.8428,103.886,48.5812,104.264L40.1393,99.8348C40.5905,99.1763,41.0455,98.5193,41.5045,97.8638C41.9635,97.2083,42.4252,96.556,42.8898,95.9067ZM409.061,102.326L416.11,95.9073C416.575,96.5566,417.037,97.2089,417.495,97.8644C417.955,98.5199,418.41,99.1769,418.861,99.8354L410.419,104.265C410.157,103.887,409.894,103.509,409.63,103.131C409.366,102.754,409.327,102.701,409.061,102.326ZM39.5382,118.459L31.9565,112.679C31.5503,113.367,31.1472,114.057,30.7471,114.75C30.347,115.443,29.9509,116.137,29.5589,116.832L38.3547,120.509C38.5823,120.109,38.8113,119.71,39.0416,119.311C39.272,118.912,39.3057,118.856,39.5382,118.459ZM427.043,112.679L419.462,118.459C419.694,118.856,419.728,118.912,419.958,119.311C420.189,119.71,420.418,120.109,420.645,120.509L429.441,116.832C429.049,116.137,428.653,115.443,428.253,114.75C427.853,114.057,427.45,113.367,427.043,112.679ZM428.417,135.438L436.473,130.341C436.818,131.061,437.159,131.784,437.498,132.509C437.836,133.234,438.17,133.96,438.5,134.687L429.417,137.584Q429.129,136.956,428.837,136.33C428.642,135.912,428.614,135.854,428.417,135.438ZM22.5268,130.341L30.5834,135.438C30.3864,135.854,30.3576,135.912,30.1629,136.33C29.9682,136.748,29.7749,137.165,29.583,137.584L20.5002,134.687C20.8301,133.96,21.1642,133.234,21.5024,132.509C21.8405,131.784,22.182,131.061,22.5268,130.341ZM23.1424,153.133L14.6722,148.757C14.3915,149.505,14.1143,150.254,13.8406,151.006C13.5669,151.758,13.2974,152.511,13.0321,153.264L22.3328,155.357C22.4875,154.924,22.6436,154.491,22.8012,154.058C22.9588,153.625,22.9824,153.564,23.1424,153.133ZM444.328,148.757L435.858,153.133C436.018,153.564,436.041,153.625,436.199,154.058C436.357,154.491,436.513,154.924,436.667,155.357L445.968,153.264C445.703,152.511,445.433,151.758,445.16,151.006C444.886,150.254,444.609,149.505,444.328,148.757ZM8.45184,167.788L17.2711,171.409C17.1493,171.852,17.1311,171.915,17.0119,172.36C16.8926,172.805,16.7749,173.25,16.6585,173.695L7.21072,172.42C7.40942,171.647,7.61232,170.874,7.81942,170.101C8.02653,169.328,8.23734,168.557,8.45184,167.788ZM441.728,171.409L450.547,167.788C450.762,168.557,450.973,169.328,451.18,170.101C451.387,170.874,451.59,171.647,451.788,172.42L442.341,173.695C442.224,173.25,442.106,172.805,441.987,172.36C441.868,171.915,441.85,171.852,441.728,171.409ZM455.085,187.289L445.984,190.127C446.067,190.579,446.079,190.643,446.159,191.097C446.239,191.551,446.318,192.004,446.395,192.458L455.918,192.011C455.787,191.224,455.653,190.436,455.514,189.648C455.375,188.86,455.232,188.073,455.085,187.289ZM13.0166,190.127L3.91528,187.289C3.76862,188.073,3.6258,188.86,3.48685,189.648C3.3479,190.436,3.21315,191.224,3.08258,192.011L12.6056,192.458C12.6827,192.004,12.7612,191.551,12.8412,191.097C12.9212,190.643,12.9339,190.579,13.0166,190.127ZM448.592,209.145L457.906,207.11C457.983,207.905,458.057,208.701,458.127,209.498C458.197,210.295,458.262,211.092,458.324,211.887L448.798,211.503C448.761,211.044,448.722,210.585,448.682,210.126C448.642,209.667,448.635,209.603,448.592,209.145ZM10.408,209.145L1.09395,207.11C1.01624,207.905,0.942497,208.701,0.872759,209.498C0.803017,210.295,0.737438,211.092,0.676008,211.887L10.2017,211.503C10.239,211.044,10.2777,210.585,10.3178,210.126C10.358,209.667,10.3651,209.603,10.408,209.145ZM0.0122658,227.102L9.46815,228.317C9.46533,228.777,9.46392,228.842,9.46392,229.303C9.46392,229.764,9.46533,230.224,9.46816,230.684L0.0122656,231.898C0.00409513,231.099,0,230.3,0,229.5C0,228.7,0.00409519,227.901,0.0122658,227.102ZM458.988,227.102L449.532,228.317C449.535,228.777,449.536,228.842,449.536,229.303C449.536,229.764,449.535,230.224,449.532,230.684L458.988,231.898C458.996,231.099,459,230.3,459,229.5Q459,228.3,458.988,227.102ZM448.797,247.499L458.323,247.113Q458.231,248.307,458.126,249.502C458.056,250.299,457.983,251.095,457.905,251.89L448.591,249.857C448.634,249.399,448.675,248.94,448.715,248.481C448.756,248.022,448.76,247.957,448.797,247.499ZM10.2025,247.499L0.676781,247.113C0.738228,247.909,0.80381,248.705,0.873535,249.502C0.943295,250.3,1.01702,251.095,1.09472,251.89L10.4089,249.857C10.3659,249.399,10.3245,248.94,10.2843,248.481C10.2441,248.022,10.2399,247.957,10.2025,247.499ZM3.08237,266.989L12.6055,266.543C12.6826,266.997,12.6925,267.061,12.7725,267.515C12.8526,267.968,12.9339,268.422,13.0166,268.874L3.91508,271.711C3.76838,270.927,3.62562,270.14,3.48665,269.352C3.34771,268.564,3.2129,267.776,3.08237,266.989ZM446.395,266.543L455.918,266.989Q455.722,268.17,455.514,269.352C455.375,270.14,455.232,270.927,455.085,271.711L445.984,268.874C446.066,268.422,446.148,267.969,446.228,267.515C446.308,267.061,446.318,266.997,446.395,266.543ZM451.788,286.58L442.34,285.306C442.224,285.751,442.208,285.814,442.089,286.259C441.97,286.704,441.849,287.148,441.727,287.592L450.547,291.212C450.762,290.443,450.972,289.672,451.179,288.899C451.387,288.126,451.589,287.353,451.788,286.58ZM16.6591,285.306L7.21101,286.58C7.40976,287.353,7.61266,288.126,7.81975,288.899C8.02686,289.672,8.23767,290.443,8.45213,291.212L17.2717,287.592C17.1499,287.148,17.0294,286.704,16.9102,286.259C16.7909,285.814,16.7755,285.751,16.6591,285.306ZM13.0321,305.736L22.3332,303.644C22.4879,304.077,22.5089,304.138,22.6664,304.571C22.824,305.004,22.9828,305.437,23.1428,305.868L14.6722,310.242C14.3916,309.495,14.1144,308.745,13.8407,307.994C13.567,307.242,13.2975,306.489,13.0321,305.736ZM436.667,303.644L445.968,305.736Q445.57,306.866,445.16,307.994C444.886,308.745,444.609,309.495,444.328,310.242L435.858,305.868C436.018,305.437,436.176,305.004,436.334,304.571C436.491,304.138,436.512,304.077,436.667,303.644ZM29.5836,321.417L20.5003,324.313C20.8303,325.04,21.1643,325.766,21.5025,326.491C21.8407,327.216,22.1822,327.939,22.5269,328.659L30.584,323.562C30.387,323.147,30.1911,322.73,29.9964,322.312C29.8017,321.895,29.7755,321.835,29.5836,321.417ZM438.5,324.313L429.416,321.417C429.225,321.835,429.198,321.895,429.004,322.312C428.809,322.73,428.613,323.147,428.416,323.562L436.473,328.659C436.818,327.939,437.159,327.216,437.497,326.491Q438.005,325.403,438.5,324.313ZM420.645,338.491L429.441,342.167C429.049,342.862,428.653,343.557,428.253,344.25C427.853,344.943,427.449,345.633,427.043,346.32L419.461,340.541C419.694,340.144,419.925,339.746,420.155,339.347C420.386,338.948,420.417,338.891,420.645,338.491ZM29.559,342.167L38.3553,338.491C38.5829,338.891,38.6143,338.948,38.8446,339.347C39.075,339.746,39.3064,340.144,39.5389,340.541L31.9566,346.32C31.5505,345.633,31.1473,344.943,30.7472,344.25C30.3471,343.557,29.951,342.863,29.559,342.167ZM418.861,359.164L410.418,354.736C410.157,355.114,410.12,355.168,409.856,355.546C409.592,355.923,409.327,356.299,409.06,356.675L416.11,363.092C416.575,362.443,417.036,361.791,417.495,361.135Q418.184,360.152,418.861,359.164ZM48.582,354.736L40.1394,359.165C40.5906,359.823,41.0457,360.48,41.5046,361.136C41.9636,361.791,42.4254,362.444,42.8899,363.093L49.9396,356.675C49.6734,356.3,49.4082,355.923,49.1439,355.546C48.8796,355.169,48.8435,355.114,48.582,354.736ZM60.1851,370.028L52.1607,375.175C52.6676,375.792,53.1782,376.407,53.6925,377.02C54.2069,377.633,54.7237,378.242,55.2431,378.849L61.7066,371.841C61.4087,371.49,61.1117,371.138,60.8156,370.785C60.5194,370.433,60.4787,370.382,60.1851,370.028ZM398.815,370.028L406.839,375.175Q406.079,376.101,405.307,377.02C404.793,377.633,404.276,378.243,403.757,378.849L397.293,371.841C397.591,371.49,397.888,371.139,398.184,370.786C398.481,370.433,398.521,370.382,398.815,370.028ZM65.5321,390.077L73.0773,384.25C73.4007,384.577,73.4456,384.624,73.7714,384.95C74.0972,385.275,74.4238,385.6,74.7511,385.923L68.9229,393.468C68.3527,392.909,67.7847,392.347,67.2189,391.781C66.6531,391.215,66.0908,390.647,65.5321,390.077ZM393.468,390.077L385.922,384.25C385.599,384.577,385.554,384.624,385.228,384.95C384.902,385.275,384.576,385.6,384.249,385.923L390.077,393.468C390.647,392.909,391.215,392.347,391.781,391.781C392.347,391.215,392.909,390.647,393.468,390.077ZM371.84,397.294L378.849,403.757C378.242,404.276,377.633,404.793,377.02,405.307Q376.1,406.079,375.175,406.839L370.027,398.815C370.381,398.522,370.734,398.227,371.087,397.931C371.44,397.635,371.489,397.592,371.84,397.294ZM87.1602,397.294L80.1516,403.757Q81.061,404.536,81.9805,405.307C82.5934,405.822,83.2083,406.332,83.825,406.839L88.9735,398.815C88.6193,398.522,88.2657,398.227,87.9127,397.931C87.5598,397.635,87.5109,397.592,87.1602,397.294ZM95.9071,416.11L102.326,409.061C102.701,409.327,102.753,409.365,103.131,409.63C103.508,409.894,103.886,410.157,104.265,410.418L99.8352,418.86C99.1767,418.409,98.5196,417.954,97.8641,417.495Q96.881,416.807,95.9071,416.11ZM356.674,409.061L363.093,416.11C362.444,416.575,361.791,417.037,361.136,417.496C360.48,417.954,359.823,418.41,359.165,418.861L354.735,410.419C355.114,410.157,355.492,409.894,355.869,409.63C356.247,409.366,356.299,409.327,356.674,409.061ZM118.459,419.461L112.68,427.043C113.367,427.449,114.057,427.852,114.75,428.252C115.443,428.653,116.137,429.049,116.832,429.441L120.509,420.645C120.11,420.417,119.71,420.188,119.311,419.958C118.912,419.727,118.856,419.694,118.459,419.461ZM346.32,427.043L340.54,419.461C340.143,419.694,340.088,419.728,339.689,419.958C339.29,420.188,338.89,420.417,338.491,420.645L342.167,429.441C342.863,429.049,343.557,428.653,344.25,428.253C344.943,427.853,345.633,427.449,346.32,427.043ZM130.341,436.473L135.438,428.417C135.854,428.613,135.912,428.642,136.33,428.837C136.747,429.032,137.165,429.225,137.584,429.417L134.687,438.5C133.96,438.17,133.234,437.836,132.509,437.498C131.784,437.159,131.061,436.818,130.341,436.473ZM323.562,428.417L328.659,436.473C327.939,436.818,327.216,437.159,326.491,437.498C325.766,437.836,325.04,438.17,324.313,438.5L321.416,429.417C321.835,429.225,322.252,429.032,322.67,428.837C323.088,428.642,323.146,428.614,323.562,428.417ZM153.133,435.858L148.757,444.328Q149.878,444.749,151.006,445.16C151.758,445.433,152.511,445.703,153.264,445.968L155.357,436.667C154.924,436.513,154.491,436.356,154.058,436.199C153.625,436.041,153.564,436.018,153.133,435.858ZM310.243,444.328L305.867,435.858C305.436,436.018,305.375,436.041,304.942,436.199C304.509,436.356,304.076,436.513,303.643,436.667L305.737,445.968C306.49,445.703,307.242,445.433,307.994,445.16C308.746,444.886,309.495,444.609,310.243,444.328ZM167.788,450.547L171.409,441.728C171.852,441.85,171.915,441.868,172.36,441.987C172.805,442.106,173.25,442.224,173.695,442.341L172.42,451.788Q171.26,451.49,170.101,451.18C169.328,450.973,168.557,450.762,167.788,450.547ZM287.591,441.728L291.212,450.548C290.443,450.762,289.672,450.973,288.899,451.18C288.126,451.387,287.353,451.59,286.58,451.789L285.304,442.341C285.75,442.225,286.195,442.107,286.64,441.987C287.085,441.868,287.147,441.85,287.591,441.728ZM271.711,455.085L268.873,445.984C268.421,446.066,268.357,446.079,267.903,446.159C267.449,446.239,266.996,446.317,266.542,446.395L266.989,455.918C267.776,455.787,268.564,455.652,269.352,455.513C270.14,455.374,270.927,455.232,271.711,455.085ZM190.127,445.984L187.289,455.085Q188.466,455.305,189.648,455.513C190.436,455.652,191.224,455.787,192.011,455.918L192.458,446.395C192.005,446.318,191.551,446.239,191.097,446.159C190.643,446.079,190.58,446.066,190.127,445.984ZM249.856,448.592L251.89,457.906C251.096,457.983,250.3,458.057,249.503,458.127C248.705,458.196,247.909,458.262,247.113,458.323L247.498,448.798C247.956,448.761,248.415,448.722,248.874,448.682C249.333,448.642,249.398,448.634,249.856,448.592ZM209.144,448.592L207.11,457.906Q208.301,458.022,209.497,458.127C210.294,458.197,211.091,458.262,211.887,458.324L211.502,448.798C211.043,448.761,210.585,448.722,210.126,448.682C209.667,448.642,209.602,448.635,209.144,448.592ZM227.102,458.988L228.317,449.532C228.777,449.535,228.842,449.536,229.303,449.536C229.764,449.536,230.224,449.535,230.684,449.532L231.898,458.988C231.099,458.996,230.3,459,229.5,459Q228.3,459,227.102,458.988Z" fill-rule="evenodd" fill="#FFFFFF" fill-opacity="1"/></g></g></svg>