<svg xmlns="http://www.w3.org/2000/svg" xmlns:xlink="http://www.w3.org/1999/xlink" fill="none" version="1.1" width="474" height="267" viewBox="0 0 474 267"><g><g><rect x="34.735107421875" y="106.79998779296875" width="8.015783309936523" height="53.39999771118164" rx="0" fill="#D8D8D8" fill-opacity="1"/></g><g><rect x="66.798095703125" y="122.82000732421875" width="2.6719279289245605" height="21.35999870300293" rx="0" fill="#D8D8D8" fill-opacity="1"/></g><g><rect x="93.517578125" y="121.75201416015625" width="2.6719279289245605" height="21.35999870300293" rx="0" fill="#D8D8D8" fill-opacity="1"/></g><g><rect x="120.23681640625" y="122.82000732421875" width="2.6719279289245605" height="21.35999870300293" rx="0" fill="#D8D8D8" fill-opacity="1"/></g><g><rect x="146.9560546875" y="121.75201416015625" width="2.6719279289245605" height="21.35999870300293" rx="0" fill="#D8D8D8" fill-opacity="1"/></g><g><rect x="173.67529296875" y="122.82000732421875" width="2.6719279289245605" height="21.35999870300293" rx="0" fill="#D8D8D8" fill-opacity="1"/></g><g><rect x="200.39453125" y="122.82000732421875" width="2.6719279289245605" height="21.35999870300293" rx="0" fill="#D8D8D8" fill-opacity="1"/></g><g><rect x="259.177001953125" y="122.82000732421875" width="2.6719279289245605" height="21.35999870300293" rx="0" fill="#D8D8D8" fill-opacity="1"/></g><g><rect x="285.896240234375" y="121.75201416015625" width="2.6719279289245605" height="21.35999870300293" rx="0" fill="#D8D8D8" fill-opacity="1"/></g><g><rect x="312.615478515625" y="122.82000732421875" width="2.6719279289245605" height="21.35999870300293" rx="0" fill="#D8D8D8" fill-opacity="1"/></g><g><rect x="339.3349609375" y="122.82000732421875" width="2.6719279289245605" height="21.35999870300293" rx="0" fill="#D8D8D8" fill-opacity="1"/></g><g><rect x="366.05419921875" y="121.75201416015625" width="2.6719279289245605" height="21.35999870300293" rx="0" fill="#D8D8D8" fill-opacity="1"/></g><g><rect x="392.7734375" y="122.82000732421875" width="2.6719279289245605" height="21.35999870300293" rx="0" fill="#D8D8D8" fill-opacity="1"/></g><g><rect x="0" y="119.08197021484375" width="5.343855857849121" height="26.69999885559082" rx="0" fill="#D8D8D8" fill-opacity="1"/></g><g><rect x="227.11376953125" y="106.79998779296875" width="8.015783309936523" height="53.39999771118164" rx="0" fill="#D8D8D8" fill-opacity="1"/></g><g><path d="M411.476806640625,267L417.622236640625,267C422.865106640625,177.579,423.672606640625,88.5121,417.622236640625,0L411.476806640625,0C419.198516640625,87.9201,418.382076640625,177.036,411.476806640625,267Z" fill="#D8D8D8" fill-opacity="1"/></g><g style="opacity:0.5;"><rect x="34.735107421875" y="133.5" width="439.2649230957031" height="1.0679999589920044" rx="0" fill="#D8D8D8" fill-opacity="1"/></g><g transform="matrix(1,0,0,-1,0,203.988037109375)"><path d="M175.2784753125,101.9940185546875L182.2203953125,114.0090185546875L168.3366053125,114.0090185546875L175.2784753125,101.9940185546875Z" fill="#FFFFFF" fill-opacity="1"/></g><g style="opacity:0.5;"><path d="M122.908602265625,166.60797119140625L129.850522265625,178.62297119140624L115.966732265625,178.62297119140624L122.908602265625,166.60797119140625Z" fill="#D8D8D8" fill-opacity="1"/></g></g></svg>