<svg xmlns="http://www.w3.org/2000/svg" xmlns:xlink="http://www.w3.org/1999/xlink" fill="none" version="1.1" width="474.0000305175781" height="267" viewBox="0 0 474.0000305175781 267"><g transform="matrix(-1,0,0,1,948.0000610351562,0)"><g><rect x="508.7351379394531" y="106.79998779296875" width="8.015783309936523" height="53.39999771118164" rx="0" fill="#D8D8D8" fill-opacity="1"/></g><g><rect x="540.7981262207031" y="122.82000732421875" width="2.6719279289245605" height="21.35999870300293" rx="0" fill="#D8D8D8" fill-opacity="1"/></g><g><rect x="567.5176086425781" y="121.75201416015625" width="2.6719279289245605" height="21.35999870300293" rx="0" fill="#D8D8D8" fill-opacity="1"/></g><g><rect x="594.2368469238281" y="122.82000732421875" width="2.6719279289245605" height="21.35999870300293" rx="0" fill="#D8D8D8" fill-opacity="1"/></g><g><rect x="620.9560852050781" y="121.75201416015625" width="2.6719279289245605" height="21.35999870300293" rx="0" fill="#D8D8D8" fill-opacity="1"/></g><g><rect x="647.6753234863281" y="122.82000732421875" width="2.6719279289245605" height="21.35999870300293" rx="0" fill="#D8D8D8" fill-opacity="1"/></g><g><rect x="674.3945617675781" y="122.82000732421875" width="2.6719279289245605" height="21.35999870300293" rx="0" fill="#D8D8D8" fill-opacity="1"/></g><g><rect x="733.1770324707031" y="122.82000732421875" width="2.6719279289245605" height="21.35999870300293" rx="0" fill="#D8D8D8" fill-opacity="1"/></g><g><rect x="759.8962707519531" y="121.75201416015625" width="2.6719279289245605" height="21.35999870300293" rx="0" fill="#D8D8D8" fill-opacity="1"/></g><g><rect x="786.6155090332031" y="122.82000732421875" width="2.6719279289245605" height="21.35999870300293" rx="0" fill="#D8D8D8" fill-opacity="1"/></g><g><rect x="813.3349914550781" y="122.82000732421875" width="2.6719279289245605" height="21.35999870300293" rx="0" fill="#D8D8D8" fill-opacity="1"/></g><g><rect x="840.0542297363281" y="121.75201416015625" width="2.6719279289245605" height="21.35999870300293" rx="0" fill="#D8D8D8" fill-opacity="1"/></g><g><rect x="866.7734680175781" y="122.82000732421875" width="2.6719279289245605" height="21.35999870300293" rx="0" fill="#D8D8D8" fill-opacity="1"/></g><g><rect x="474.0000305175781" y="119.08197021484375" width="5.343855857849121" height="26.69999885559082" rx="0" fill="#D8D8D8" fill-opacity="1"/></g><g><rect x="701.1138000488281" y="106.79998779296875" width="8.015783309936523" height="53.39999771118164" rx="0" fill="#D8D8D8" fill-opacity="1"/></g><g><path d="M885.4768371582031,267L891.6222671582032,267C896.8651371582031,177.579,897.6726371582031,88.5121,891.6222671582032,0L885.4768371582031,0C893.1985471582032,87.9201,892.3821071582031,177.036,885.4768371582031,267Z" fill="#D8D8D8" fill-opacity="1"/></g><g style="opacity:0.5;"><rect x="508.7351379394531" y="133.5" width="439.2649230957031" height="1.0679999589920044" rx="0" fill="#D8D8D8" fill-opacity="1"/></g><g transform="matrix(1,0,0,-1,0,203.988037109375)"><path d="M649.2785058300781,101.9940185546875L656.2204258300782,114.0090185546875L642.3366358300781,114.0090185546875L649.2785058300781,101.9940185546875Z" fill="#FFFFFF" fill-opacity="1"/></g><g style="opacity:0.5;"><path d="M596.9086327832031,166.60797119140625L603.8505527832032,178.62297119140624L589.9667627832031,178.62297119140624L596.9086327832031,166.60797119140625Z" fill="#D8D8D8" fill-opacity="1"/></g></g></svg>