<svg xmlns="http://www.w3.org/2000/svg" xmlns:xlink="http://www.w3.org/1999/xlink" fill="none" version="1.1" width="33" height="33" viewBox="0 0 33 33"><g><g><g><path d="M0,30.36L2.475,33L30.525,33L33,30.525L33,2.475L30.36,0L2.475,0L0,2.475L0,30.36Z" fill="#2377F5" fill-opacity="0.6000000238418579"/></g><g><path d="M29.205,0L26.565,0L24.8696,0L22.4783,3.82609L10.5217,3.82609L8.36957,0L2.3913,0L0,2.3913L0,7.17391L2.86957,8.84783L2.86957,21.0435L0,22.7174L0,30.3696L2.3913,33L5.97826,33L7.65217,29.8913L11.4783,29.8913L13.1522,33L30.6087,33L33,30.6087L33,22.9565L30.1304,21.0435L30.1304,8.84783L33,7.17391L33,2.3913L30.3696,0L29.205,0ZM28.215,0.451937L27.8587,0.451937L25.245,0.451937L22.935,4.29L10.23,4.29L8.13044,0.451937L2.64,0.451937L0.495,2.475L0.495,6.765L3.465,8.58L3.465,21.615L0.825,22.935L0.99,30.3695L2.86957,32.34L5.28,32.34L7.17392,29.37L11.9565,29.37L12.0531,29.535L13.695,32.505L22.8083,32.505L23.4348,31.5652L30.3696,31.5652L32.505,29.4298L32.505,28.9348L32.505,23.265L29.7,21.285L29.7,8.58L32.505,6.765L32.505,2.39129L30.1304,0.451937L28.215,0.451937ZM11,3.1087L9.32609,0L23.913,0L22,3.1087L11,3.1087ZM1.91304,12.1957L0,13.3913L0,8.13043L1.91304,9.32609L1.91304,12.1957ZM33,13.3913L31.087,12.1957L31.087,9.32609L33,8.13043L33,13.3913ZM0,16.2609L0,14.3478L1.91304,13.1522L1.91304,15.0652L0,16.2609ZM33,16.2609L31.087,15.0652L31.087,13.1522L33,14.3478L33,16.2609ZM1.91304,17.9348L0,19.1304L0,17.2174L1.91304,16.0217L1.91304,17.9348ZM31.087,17.9348L31.087,16.0217L33,17.2174L33,19.1304L31.087,17.9348ZM1.91304,20.5652L0,21.7609L0,20.087L1.91304,18.8913L1.91304,20.5652ZM33,21.7609L31.087,20.5652L31.087,18.8913L33,20.087L33,21.7609ZM11.9565,32.7609L7.17391,32.7609L8.13043,30.8478L11,30.8478L11.9565,32.7609Z" fill-rule="evenodd" fill="#FFFFFF" fill-opacity="1"/></g></g></g></svg>