<svg xmlns="http://www.w3.org/2000/svg" xmlns:xlink="http://www.w3.org/1999/xlink" fill="none" version="1.1" width="281.99993896484375" height="222" viewBox="0 0 281.99993896484375 222"><g transform="matrix(0,1,-1,0,281.99993896484375,-281.99993896484375)"><path d="M393.99993896484375,1.00491L393.99993896484375,0.999939C393.99993896484375,0.447688,393.55193896484377,0,392.99993896484375,0C392.44793896484373,0,391.99993896484375,0.447688,391.99993896484375,0.999939L391.99993896484375,1.00491C391.99993896484375,1.55716,392.44793896484373,2.00485,392.99993896484375,2.00485C393.55193896484377,2.00485,393.99993896484375,1.55716,393.99993896484375,1.00491ZM393.99993896484375,4.98923L393.99993896484375,4.97929C393.99993896484375,4.42705,393.55193896484377,3.97937,392.99993896484375,3.97937C392.44793896484373,3.97937,391.99993896484375,4.42705,391.99993896484375,4.97929L391.99993896484375,4.98923C391.99993896484375,5.54148,392.44793896484373,5.98917,392.99993896484375,5.98917C393.55193896484377,5.98917,393.99993896484375,5.54148,393.99993896484375,4.98923ZM393.99993896484375,8.97357L393.99993896484375,8.96364C393.99993896484375,8.4114,393.55193896484377,7.96371,392.99993896484375,7.96371C392.44793896484373,7.96371,391.99993896484375,8.4114,391.99993896484375,8.96364L391.99993896484375,8.97357C391.99993896484375,9.52581,392.44793896484373,9.9735,392.99993896484375,9.9735C393.55193896484377,9.9735,393.99993896484375,9.52581,393.99993896484375,8.97357ZM393.99993896484375,12.9579L393.99993896484375,12.948C393.99993896484375,12.3957,393.55193896484377,11.948,392.99993896484375,11.948C392.44793896484373,11.948,391.99993896484375,12.3957,391.99993896484375,12.948L391.99993896484375,12.9579C391.99993896484375,13.5102,392.44793896484373,13.9578,392.99993896484375,13.9578C393.55193896484377,13.9578,393.99993896484375,13.5102,393.99993896484375,12.9579ZM393.99993896484375,16.9422L393.99993896484375,16.9323C393.99993896484375,16.3801,393.55193896484377,15.9324,392.99993896484375,15.9324C392.44793896484373,15.9324,391.99993896484375,16.3801,391.99993896484375,16.9323L391.99993896484375,16.9422C391.99993896484375,17.4945,392.44793896484373,17.9422,392.99993896484375,17.9422C393.55193896484377,17.9422,393.99993896484375,17.4945,393.99993896484375,16.9422ZM393.99993896484375,20.9266L393.99993896484375,20.9166C393.99993896484375,20.3644,393.55193896484377,19.9167,392.99993896484375,19.9167C392.44793896484373,19.9167,391.99993896484375,20.3644,391.99993896484375,20.9166L391.99993896484375,20.9266C391.99993896484375,21.4788,392.44793896484373,21.9265,392.99993896484375,21.9265C393.55193896484377,21.9265,393.99993896484375,21.4788,393.99993896484375,20.9266ZM393.99993896484375,24.9109L393.99993896484375,24.901C393.99993896484375,24.3487,393.55193896484377,23.901,392.99993896484375,23.901C392.44793896484373,23.901,391.99993896484375,24.3487,391.99993896484375,24.901L391.99993896484375,24.9109C391.99993896484375,25.4631,392.44793896484373,25.9108,392.99993896484375,25.9108C393.55193896484377,25.9108,393.99993896484375,25.4631,393.99993896484375,24.9109ZM393.99993896484375,28.8952L393.99993896484375,28.8853C393.99993896484375,28.333,393.55193896484377,27.8854,392.99993896484375,27.8854C392.44793896484373,27.8854,391.99993896484375,28.333,391.99993896484375,28.8853L391.99993896484375,28.8952C391.99993896484375,29.4475,392.44793896484373,29.8952,392.99993896484375,29.8952C393.55193896484377,29.8952,393.99993896484375,29.4475,393.99993896484375,28.8952ZM393.99993896484375,32.8796L393.99993896484375,32.8696C393.99993896484375,32.3174,393.55193896484377,31.8697,392.99993896484375,31.8697C392.44793896484373,31.8697,391.99993896484375,32.3174,391.99993896484375,32.8696L391.99993896484375,32.8796C391.99993896484375,33.4318,392.44793896484373,33.8795,392.99993896484375,33.8795C393.55193896484377,33.8795,393.99993896484375,33.4318,393.99993896484375,32.8796ZM393.99993896484375,36.8639L393.99993896484375,36.854C393.99993896484375,36.3017,393.55193896484377,35.854,392.99993896484375,35.854C392.44793896484373,35.854,391.99993896484375,36.3017,391.99993896484375,36.854L391.99993896484375,36.8639C391.99993896484375,37.4161,392.44793896484373,37.8638,392.99993896484375,37.8638C393.55193896484377,37.8638,393.99993896484375,37.4161,393.99993896484375,36.8639ZM393.99993896484375,40.8482L393.99993896484375,40.8383C393.99993896484375,40.2861,393.55193896484377,39.8384,392.99993896484375,39.8384C392.44793896484373,39.8384,391.99993896484375,40.2861,391.99993896484375,40.8383L391.99993896484375,40.8482C391.99993896484375,41.4005,392.44793896484373,41.8482,392.99993896484375,41.8482C393.55193896484377,41.8482,393.99993896484375,41.4005,393.99993896484375,40.8482ZM393.99993896484375,44.8326L393.99993896484375,44.8226C393.99993896484375,44.2704,393.55193896484377,43.8227,392.99993896484375,43.8227C392.44793896484373,43.8227,391.99993896484375,44.2704,391.99993896484375,44.8226L391.99993896484375,44.8326C391.99993896484375,45.3848,392.44793896484373,45.8325,392.99993896484375,45.8325C393.55193896484377,45.8325,393.99993896484375,45.3848,393.99993896484375,44.8326ZM393.99993896484375,48.8169L393.99993896484375,48.807C393.99993896484375,48.2547,393.55193896484377,47.807,392.99993896484375,47.807C392.44793896484373,47.807,391.99993896484375,48.2547,391.99993896484375,48.807L391.99993896484375,48.8169C391.99993896484375,49.3691,392.44793896484373,49.8168,392.99993896484375,49.8168C393.55193896484377,49.8168,393.99993896484375,49.3691,393.99993896484375,48.8169ZM393.99993896484375,52.8012L393.99993896484375,52.7913C393.99993896484375,52.2391,393.55193896484377,51.7914,392.99993896484375,51.7914C392.44793896484373,51.7914,391.99993896484375,52.2391,391.99993896484375,52.7913L391.99993896484375,52.8012C391.99993896484375,53.3535,392.44793896484373,53.8012,392.99993896484375,53.8012C393.55193896484377,53.8012,393.99993896484375,53.3535,393.99993896484375,52.8012ZM393.99993896484375,56.7856L393.99993896484375,56.7756C393.99993896484375,56.2234,393.55193896484377,55.7757,392.99993896484375,55.7757C392.44793896484373,55.7757,391.99993896484375,56.2234,391.99993896484375,56.7756L391.99993896484375,56.7856C391.99993896484375,57.3378,392.44793896484373,57.7855,392.99993896484375,57.7855C393.55193896484377,57.7855,393.99993896484375,57.3378,393.99993896484375,56.7856ZM393.99993896484375,60.7699L393.99993896484375,60.76C393.99993896484375,60.2077,393.55193896484377,59.76,392.99993896484375,59.76C392.44793896484373,59.76,391.99993896484375,60.2077,391.99993896484375,60.76L391.99993896484375,60.7699C391.99993896484375,61.3222,392.44793896484373,61.7698,392.99993896484375,61.7698C393.55193896484377,61.7698,393.99993896484375,61.3222,393.99993896484375,60.7699ZM393.99993896484375,64.7542L393.99993896484375,64.7443C393.99993896484375,64.192,393.55193896484377,63.7444,392.99993896484375,63.7444C392.44793896484373,63.7444,391.99993896484375,64.192,391.99993896484375,64.7443L391.99993896484375,64.7542C391.99993896484375,65.3065,392.44793896484373,65.7542,392.99993896484375,65.7542C393.55193896484377,65.7542,393.99993896484375,65.3065,393.99993896484375,64.7542ZM393.99993896484375,68.7386L393.99993896484375,68.7286C393.99993896484375,68.1764,393.55193896484377,67.7287,392.99993896484375,67.7287C392.44793896484373,67.7287,391.99993896484375,68.1764,391.99993896484375,68.7286L391.99993896484375,68.7386C391.99993896484375,69.2908,392.44793896484373,69.7385,392.99993896484375,69.7385C393.55193896484377,69.7385,393.99993896484375,69.2908,393.99993896484375,68.7386ZM393.99993896484375,72.7229L393.99993896484375,72.713C393.99993896484375,72.1607,393.55193896484377,71.713,392.99993896484375,71.713C392.44793896484373,71.713,391.99993896484375,72.1607,391.99993896484375,72.713L391.99993896484375,72.7229C391.99993896484375,73.2751,392.44793896484373,73.7228,392.99993896484375,73.7228C393.55193896484377,73.7228,393.99993896484375,73.2751,393.99993896484375,72.7229ZM393.99993896484375,76.7072L393.99993896484375,76.6973C393.99993896484375,76.145,393.55193896484377,75.6973,392.99993896484375,75.6973C392.44793896484373,75.6973,391.99993896484375,76.145,391.99993896484375,76.6973L391.99993896484375,76.7072C391.99993896484375,77.2595,392.44793896484373,77.7072,392.99993896484375,77.7072C393.55193896484377,77.7072,393.99993896484375,77.2595,393.99993896484375,76.7072ZM393.99993896484375,80.6916L393.99993896484375,80.6816C393.99993896484375,80.1294,393.55193896484377,79.6817,392.99993896484375,79.6817C392.44793896484373,79.6817,391.99993896484375,80.1294,391.99993896484375,80.6816L391.99993896484375,80.6916C391.99993896484375,81.2438,392.44793896484373,81.6915,392.99993896484375,81.6915C393.55193896484377,81.6915,393.99993896484375,81.2438,393.99993896484375,80.6916ZM393.99993896484375,84.6759L393.99993896484375,84.666C393.99993896484375,84.1137,393.55193896484377,83.666,392.99993896484375,83.666C392.44793896484373,83.666,391.99993896484375,84.1137,391.99993896484375,84.666L391.99993896484375,84.6759C391.99993896484375,85.2281,392.44793896484373,85.6758,392.99993896484375,85.6758C393.55193896484377,85.6758,393.99993896484375,85.2281,393.99993896484375,84.6759ZM393.99993896484375,88.6602L393.99993896484375,88.6503C393.99993896484375,88.098,393.55193896484377,87.6504,392.99993896484375,87.6504C392.44793896484373,87.6504,391.99993896484375,88.098,391.99993896484375,88.6503L391.99993896484375,88.6602C391.99993896484375,89.2125,392.44793896484373,89.6602,392.99993896484375,89.6602C393.55193896484377,89.6602,393.99993896484375,89.2125,393.99993896484375,88.6602ZM393.99993896484375,92.6446L393.99993896484375,92.6346C393.99993896484375,92.0824,393.55193896484377,91.6347,392.99993896484375,91.6347C392.44793896484373,91.6347,391.99993896484375,92.0824,391.99993896484375,92.6346L391.99993896484375,92.6446C391.99993896484375,93.1968,392.44793896484373,93.6445,392.99993896484375,93.6445C393.55193896484377,93.6445,393.99993896484375,93.1968,393.99993896484375,92.6446ZM393.99993896484375,96.6289L393.99993896484375,96.619C393.99993896484375,96.0667,393.55193896484377,95.619,392.99993896484375,95.619C392.44793896484373,95.619,391.99993896484375,96.0667,391.99993896484375,96.619L391.99993896484375,96.6289C391.99993896484375,97.1811,392.44793896484373,97.6288,392.99993896484375,97.6288C393.55193896484377,97.6288,393.99993896484375,97.1811,393.99993896484375,96.6289ZM389.99993896484375,145.905L389.99993896484375,98.9999L392.00893896484376,100.75C392.00293896484374,100.704,391.99993896484375,100.659,391.99993896484375,100.613L391.99993896484375,100.603C391.99993896484375,100.051,392.44793896484373,99.6034,392.99993896484375,99.6034C393.55193896484377,99.6034,393.99993896484375,100.051,393.99993896484375,100.603L393.99993896484375,100.613C393.99993896484375,101.165,393.55293896484375,101.612,393.0009389648437,101.613L396.99993896484375,105.095L396.99993896484375,152L393.70693896484374,149.133C393.51893896484376,149.32,393.26493896484374,149.425,392.99993896484375,149.425C392.44793896484373,149.425,391.99993896484375,148.977,391.99993896484375,148.425L391.99993896484375,148.415C391.99993896484375,148.2,392.06893896484377,147.991,392.19793896484373,147.818L389.99993896484375,145.905ZM393.99993896484375,152.41L393.99993896484375,152.4C393.99993896484375,151.847,393.55193896484377,151.4,392.99993896484375,151.4C392.44793896484373,151.4,391.99993896484375,151.847,391.99993896484375,152.4L391.99993896484375,152.41C391.99993896484375,152.962,392.44793896484373,153.409,392.99993896484375,153.409C393.55193896484377,153.409,393.99993896484375,152.962,393.99993896484375,152.41ZM393.99993896484375,156.394L393.99993896484375,156.384C393.99993896484375,155.832,393.55193896484377,155.384,392.99993896484375,155.384C392.44793896484373,155.384,391.99993896484375,155.832,391.99993896484375,156.384L391.99993896484375,156.394C391.99993896484375,156.946,392.44793896484373,157.394,392.99993896484375,157.394C393.55193896484377,157.394,393.99993896484375,156.946,393.99993896484375,156.394ZM393.99993896484375,160.378L393.99993896484375,160.368C393.99993896484375,159.816,393.55193896484377,159.368,392.99993896484375,159.368C392.44793896484373,159.368,391.99993896484375,159.816,391.99993896484375,160.368L391.99993896484375,160.378C391.99993896484375,160.93,392.44793896484373,161.378,392.99993896484375,161.378C393.55193896484377,161.378,393.99993896484375,160.93,393.99993896484375,160.378ZM393.99993896484375,164.363L393.99993896484375,164.353C393.99993896484375,163.8,393.55193896484377,163.353,392.99993896484375,163.353C392.44793896484373,163.353,391.99993896484375,163.8,391.99993896484375,164.353L391.99993896484375,164.363C391.99993896484375,164.915,392.44793896484373,165.362,392.99993896484375,165.362C393.55193896484377,165.362,393.99993896484375,164.915,393.99993896484375,164.363ZM393.99993896484375,168.347L393.99993896484375,168.337C393.99993896484375,167.785,393.55193896484377,167.337,392.99993896484375,167.337C392.44793896484373,167.337,391.99993896484375,167.785,391.99993896484375,168.337L391.99993896484375,168.347C391.99993896484375,168.899,392.44793896484373,169.347,392.99993896484375,169.347C393.55193896484377,169.347,393.99993896484375,168.899,393.99993896484375,168.347ZM393.99993896484375,172.331L393.99993896484375,172.321C393.99993896484375,171.769,393.55193896484377,171.321,392.99993896484375,171.321C392.44793896484373,171.321,391.99993896484375,171.769,391.99993896484375,172.321L391.99993896484375,172.331C391.99993896484375,172.883,392.44793896484373,173.331,392.99993896484375,173.331C393.55193896484377,173.331,393.99993896484375,172.883,393.99993896484375,172.331ZM393.99993896484375,176.316L393.99993896484375,176.306C393.99993896484375,175.753,393.55193896484377,175.306,392.99993896484375,175.306C392.44793896484373,175.306,391.99993896484375,175.753,391.99993896484375,176.306L391.99993896484375,176.316C391.99993896484375,176.868,392.44793896484373,177.315,392.99993896484375,177.315C393.55193896484377,177.315,393.99993896484375,176.868,393.99993896484375,176.316ZM393.99993896484375,180.3L393.99993896484375,180.29C393.99993896484375,179.738,393.55193896484377,179.29,392.99993896484375,179.29C392.44793896484373,179.29,391.99993896484375,179.738,391.99993896484375,180.29L391.99993896484375,180.3C391.99993896484375,180.852,392.44793896484373,181.3,392.99993896484375,181.3C393.55193896484377,181.3,393.99993896484375,180.852,393.99993896484375,180.3ZM393.99993896484375,184.284L393.99993896484375,184.274C393.99993896484375,183.722,393.55193896484377,183.274,392.99993896484375,183.274C392.44793896484373,183.274,391.99993896484375,183.722,391.99993896484375,184.274L391.99993896484375,184.284C391.99993896484375,184.836,392.44793896484373,185.284,392.99993896484375,185.284C393.55193896484377,185.284,393.99993896484375,184.836,393.99993896484375,184.284ZM393.99993896484375,188.269L393.99993896484375,188.259C393.99993896484375,187.706,393.55193896484377,187.259,392.99993896484375,187.259C392.44793896484373,187.259,391.99993896484375,187.706,391.99993896484375,188.259L391.99993896484375,188.269C391.99993896484375,188.821,392.44793896484373,189.268,392.99993896484375,189.268C393.55193896484377,189.268,393.99993896484375,188.821,393.99993896484375,188.269ZM393.99993896484375,192.253L393.99993896484375,192.243C393.99993896484375,191.691,393.55193896484377,191.243,392.99993896484375,191.243C392.44793896484373,191.243,391.99993896484375,191.691,391.99993896484375,192.243L391.99993896484375,192.253C391.99993896484375,192.805,392.44793896484373,193.253,392.99993896484375,193.253C393.55193896484377,193.253,393.99993896484375,192.805,393.99993896484375,192.253ZM393.99993896484375,196.237L393.99993896484375,196.227C393.99993896484375,195.675,393.55193896484377,195.227,392.99993896484375,195.227C392.44793896484373,195.227,391.99993896484375,195.675,391.99993896484375,196.227L391.99993896484375,196.237C391.99993896484375,196.789,392.44793896484373,197.237,392.99993896484375,197.237C393.55193896484377,197.237,393.99993896484375,196.789,393.99993896484375,196.237ZM393.99993896484375,200.222L393.99993896484375,200.212C393.99993896484375,199.659,393.55193896484377,199.212,392.99993896484375,199.212C392.44793896484373,199.212,391.99993896484375,199.659,391.99993896484375,200.212L391.99993896484375,200.222C391.99993896484375,200.774,392.44793896484373,201.221,392.99993896484375,201.221C393.55193896484377,201.221,393.99993896484375,200.774,393.99993896484375,200.222ZM393.99993896484375,204.206L393.99993896484375,204.196C393.99993896484375,203.644,393.55193896484377,203.196,392.99993896484375,203.196C392.44793896484373,203.196,391.99993896484375,203.644,391.99993896484375,204.196L391.99993896484375,204.206C391.99993896484375,204.758,392.44793896484373,205.206,392.99993896484375,205.206C393.55193896484377,205.206,393.99993896484375,204.758,393.99993896484375,204.206ZM393.99993896484375,208.19L393.99993896484375,208.18C393.99993896484375,207.628,393.55193896484377,207.18,392.99993896484375,207.18C392.44793896484373,207.18,391.99993896484375,207.628,391.99993896484375,208.18L391.99993896484375,208.19C391.99993896484375,208.742,392.44793896484373,209.19,392.99993896484375,209.19C393.55193896484377,209.19,393.99993896484375,208.742,393.99993896484375,208.19ZM393.99993896484375,212.175L393.99993896484375,212.165C393.99993896484375,211.612,393.55193896484377,211.165,392.99993896484375,211.165C392.44793896484373,211.165,391.99993896484375,211.612,391.99993896484375,212.165L391.99993896484375,212.175C391.99993896484375,212.727,392.44793896484373,213.174,392.99993896484375,213.174C393.55193896484377,213.174,393.99993896484375,212.727,393.99993896484375,212.175ZM393.99993896484375,216.159L393.99993896484375,216.149C393.99993896484375,215.597,393.55193896484377,215.149,392.99993896484375,215.149C392.44793896484373,215.149,391.99993896484375,215.597,391.99993896484375,216.149L391.99993896484375,216.159C391.99993896484375,216.711,392.44793896484373,217.159,392.99993896484375,217.159C393.55193896484377,217.159,393.99993896484375,216.711,393.99993896484375,216.159ZM393.99993896484375,220.143L393.99993896484375,220.133C393.99993896484375,219.581,393.55193896484377,219.133,392.99993896484375,219.133C392.44793896484373,219.133,391.99993896484375,219.581,391.99993896484375,220.133L391.99993896484375,220.143C391.99993896484375,220.695,392.44793896484373,221.143,392.99993896484375,221.143C393.55193896484377,221.143,393.99993896484375,220.695,393.99993896484375,220.143ZM393.99993896484375,224.128L393.99993896484375,224.118C393.99993896484375,223.565,393.55193896484377,223.118,392.99993896484375,223.118C392.44793896484373,223.118,391.99993896484375,223.565,391.99993896484375,224.118L391.99993896484375,224.128C391.99993896484375,224.68,392.44793896484373,225.127,392.99993896484375,225.127C393.55193896484377,225.127,393.99993896484375,224.68,393.99993896484375,224.128ZM393.99993896484375,228.112L393.99993896484375,228.102C393.99993896484375,227.55,393.55193896484377,227.102,392.99993896484375,227.102C392.44793896484373,227.102,391.99993896484375,227.55,391.99993896484375,228.102L391.99993896484375,228.112C391.99993896484375,228.664,392.44793896484373,229.112,392.99993896484375,229.112C393.55193896484377,229.112,393.99993896484375,228.664,393.99993896484375,228.112ZM393.99993896484375,232.096L393.99993896484375,232.086C393.99993896484375,231.534,393.55193896484377,231.086,392.99993896484375,231.086C392.44793896484373,231.086,391.99993896484375,231.534,391.99993896484375,232.086L391.99993896484375,232.096C391.99993896484375,232.648,392.44793896484373,233.096,392.99993896484375,233.096C393.55193896484377,233.096,393.99993896484375,232.648,393.99993896484375,232.096ZM393.99993896484375,236.081L393.99993896484375,236.071C393.99993896484375,235.518,393.55193896484377,235.071,392.99993896484375,235.071C392.44793896484373,235.071,391.99993896484375,235.518,391.99993896484375,236.071L391.99993896484375,236.081C391.99993896484375,236.633,392.44793896484373,237.08,392.99993896484375,237.08C393.55193896484377,237.08,393.99993896484375,236.633,393.99993896484375,236.081ZM393.99993896484375,240.065L393.99993896484375,240.055C393.99993896484375,239.503,393.55193896484377,239.055,392.99993896484375,239.055C392.44793896484373,239.055,391.99993896484375,239.503,391.99993896484375,240.055L391.99993896484375,240.065C391.99993896484375,240.617,392.44793896484373,241.065,392.99993896484375,241.065C393.55193896484377,241.065,393.99993896484375,240.617,393.99993896484375,240.065ZM393.99993896484375,244.049L393.99993896484375,244.039C393.99993896484375,243.487,393.55193896484377,243.039,392.99993896484375,243.039C392.44793896484373,243.039,391.99993896484375,243.487,391.99993896484375,244.039L391.99993896484375,244.049C391.99993896484375,244.601,392.44793896484373,245.049,392.99993896484375,245.049C393.55193896484377,245.049,393.99993896484375,244.601,393.99993896484375,244.049ZM393.99993896484375,248.034L393.99993896484375,248.024C393.99993896484375,247.471,393.55193896484377,247.024,392.99993896484375,247.024C392.44793896484373,247.024,391.99993896484375,247.471,391.99993896484375,248.024L391.99993896484375,248.034C391.99993896484375,248.586,392.44793896484373,249.033,392.99993896484375,249.033C393.55193896484377,249.033,393.99993896484375,248.586,393.99993896484375,248.034ZM393.99993896484375,252.018L393.99993896484375,252.008C393.99993896484375,251.456,393.55193896484377,251.008,392.99993896484375,251.008C392.44793896484373,251.008,391.99993896484375,251.456,391.99993896484375,252.008L391.99993896484375,252.018C391.99993896484375,252.57,392.44793896484373,253.018,392.99993896484375,253.018C393.55193896484377,253.018,393.99993896484375,252.57,393.99993896484375,252.018ZM393.99993896484375,256.002L393.99993896484375,255.992C393.99993896484375,255.44,393.55193896484377,254.992,392.99993896484375,254.992C392.44793896484373,254.992,391.99993896484375,255.44,391.99993896484375,255.992L391.99993896484375,256.002C391.99993896484375,256.554,392.44793896484373,257.002,392.99993896484375,257.002C393.55193896484377,257.002,393.99993896484375,256.554,393.99993896484375,256.002ZM402.52393896484375,262.699Q400.09293896484377,259.532,396.26993896484373,258.451L395.72593896484375,260.376Q398.9099389648437,261.276,400.93793896484374,263.917Q402.99993896484375,266.603,402.99993896484375,270Q402.99993896484375,272.035,402.2149389648438,273.892Q401.45593896484377,275.686,400.0709389648438,277.071Q398.68693896484376,278.456,396.89193896484375,279.214Q395.0349389648437,280,392.99993896484375,280Q390.9649389648438,280,389.10793896484375,279.214Q387.31293896484374,278.456,385.9289389648437,277.071Q384.54393896484373,275.686,383.7849389648437,273.892Q382.99993896484375,272.035,382.99993896484375,270Q382.99993896484375,266.603,385.06193896484376,263.917Q387.0899389648438,261.276,390.27393896484375,260.376L389.72993896484377,258.451Q385.90693896484373,259.532,383.47593896484375,262.699Q381.30763896484376,265.523,381.03813896484377,269L281.99993896484375,269L281.99993896484375,271L381.04023896484375,271Q381.19493896484374,272.902,381.94333896484375,274.671Q382.85393896484373,276.825,384.51493896484374,278.485Q386.17493896484376,280.146,388.32893896484376,281.056Q390.5589389648437,282,392.99993896484375,282Q395.4409389648438,282,397.67093896484374,281.056Q399.82493896484374,280.146,401.48493896484376,278.485Q403.14593896484377,276.825,404.05693896484377,274.671Q404.80493896484376,272.902,404.95993896484373,271L503.99993896484375,271L503.99993896484375,269L404.96193896484374,269Q404.69193896484376,265.523,402.52393896484375,262.699ZM391.99993896484375,259.982L391.99993896484375,259.977C391.99993896484375,259.424,392.44793896484373,258.977,392.99993896484375,258.977C393.55193896484377,258.977,393.99993896484375,259.424,393.99993896484375,259.977L393.99993896484375,259.982C393.99993896484375,260.534,393.55193896484377,260.982,392.99993896484375,260.982C392.44793896484373,260.982,391.99993896484375,260.534,391.99993896484375,259.982ZM395.99993896484375,270C395.99993896484375,271.657,394.65693896484373,273,392.99993896484375,273C391.34293896484377,273,389.99993896484375,271.657,389.99993896484375,270C389.99993896484375,268.343,391.34293896484377,267,392.99993896484375,267C394.65693896484373,267,395.99993896484375,268.343,395.99993896484375,270Z" fill-rule="evenodd" fill="#FFFFFF" fill-opacity="1"/></g></svg>