<svg xmlns="http://www.w3.org/2000/svg" xmlns:xlink="http://www.w3.org/1999/xlink" fill="none" version="1.1" width="1381" height="769" viewBox="0 0 1381 769"><g transform="matrix(1,0,0,-1,0,1538)"><g><path d="M0,769L19.3718,779.9697L31.2074,779.9696L113.303,779.9696L827.7,1181.909L837.822,1203.848L891.802,1231.694L914.575,1276.979L919.636,1289.763L1003.46,1337.23L1013.53,1342.4C1031.87,1307.9769999999999,1054.92,1276.439,1081.81,1248.643L1106.89,1264.444C1036.88,1334.3809999999999,993.578,1430.998,993.578,1537.719L1016.07,1537.719C1016.07,1430.511,1062.36,1334.113,1136.06,1267.412L1116.16,1256.284L1089.79,1241.538L1078.82,1235.406C1050.99,1263.247,1026.98,1294.9099999999999,1007.65,1329.54L958.153,1301.1680000000001L919.636,1222.1309999999999L113.303,769L0,769ZM48.6386,989.237L277.493,1119.747L454.335,1119.747L624.43,1213.974L624.43,1226.6309999999999L721.707,1282.886L832.48,1282.886L987.759,1370.074C968.244,1415.833,956.475,1465.691,954.101,1517.999L677.839,1517.9940000000001C678.554,1492.058,680.674,1466.4740000000002,684.126,1441.315L670.47,1441.478C666.771,1469.0720000000001,664.641,1497.163,664.171,1525.659L677.583,1525.659L953.655,1525.659L965.072,1525.659C966.659,1469.942,979.203,1416.969,1000.63,1368.8229999999999L990.766,1363.048L820.953,1264.444L726.768,1264.444L459.958,1110.465L300.829,1110.465L84.9068,989.237L48.6386,989.237ZM679.354,1389.71L693.154,1389.845C693.84,1386.643,694.548,1383.449,695.278,1380.263L681.281,1380.8020000000001C680.621,1383.7640000000001,679.978,1386.734,679.354,1389.71Z" fill="#FFFFFF" fill-opacity="1"/></g><g style="opacity:0.5;"><path d="M19.3718,780.25095L919.636,1290.04425L914.575,1277.26025L31.2074,780.25085L19.3718,780.25095ZM675.844,1407.85925L689.537,1408.17425C690.133,1404.98425,690.75,1401.80125,691.389,1398.62625L677.583,1398.70725C676.984,1401.75125,676.404,1404.80125,675.844,1407.85925ZM672.575,1427.1972500000002L686.277,1427.05225C686.814,1423.66525,687.376,1420.28625,687.961,1416.91525L674.263,1416.81225C673.675,1420.2662500000001,673.113,1423.72725,672.575,1427.1972500000002Z" fill="#D8D8D8" fill-opacity="0.501960813999176"/></g></g></svg>