<svg xmlns="http://www.w3.org/2000/svg" xmlns:xlink="http://www.w3.org/1999/xlink" fill="none" version="1.1" width="1381" height="769" viewBox="0 0 1381 769"><g transform="matrix(-1,0,0,1,2762,0)"><g><path d="M1381,0L1400.3718,10.9697L1412.2074,10.9696L1494.3029999999999,10.9696L2208.7,412.909L2218.822,434.848L2272.802,462.694L2295.575,507.979L2300.636,520.763L2384.46,568.23L2394.5299999999997,573.4C2412.87,538.977,2435.92,507.439,2462.81,479.643L2487.8900000000003,495.444C2417.88,565.381,2374.578,661.998,2374.578,768.719L2397.07,768.719C2397.07,661.511,2443.3599999999997,565.113,2517.06,498.412L2497.16,487.284L2470.79,472.538L2459.8199999999997,466.406C2431.99,494.247,2407.98,525.91,2388.65,560.54L2339.1530000000002,532.168L2300.636,453.131L1494.3029999999999,0L1381,0ZM1429.6386,220.237L1658.493,350.747L1835.335,350.747L2005.4299999999998,444.974L2005.4299999999998,457.631L2102.707,513.886L2213.48,513.886L2368.759,601.074C2349.244,646.833,2337.475,696.691,2335.101,748.999L2058.839,748.994C2059.554,723.058,2061.674,697.474,2065.126,672.315L2051.4700000000003,672.478C2047.771,700.072,2045.641,728.163,2045.171,756.659L2058.583,756.659L2334.6549999999997,756.659L2346.072,756.659C2347.659,700.942,2360.203,647.969,2381.63,599.823L2371.766,594.048L2201.953,495.444L2107.768,495.444L1840.958,341.465L1681.829,341.465L1465.9068,220.237L1429.6386,220.237ZM2060.3540000000003,620.71L2074.154,620.845C2074.84,617.643,2075.548,614.449,2076.2780000000002,611.263L2062.281,611.802C2061.621,614.764,2060.978,617.734,2060.3540000000003,620.71Z" fill="#FFFFFF" fill-opacity="1"/></g><g style="opacity:0.5;"><path d="M1400.3718,11.250980517578125L2300.636,521.0442805175782L2295.575,508.2602805175781L1412.2074,11.250880517578125L1400.3718,11.250980517578125ZM2056.844,638.8592805175781L2070.5370000000003,639.1742805175782C2071.133,635.9842805175781,2071.75,632.8012805175781,2072.389,629.6262805175782L2058.583,629.7072805175782C2057.984,632.7512805175782,2057.404,635.8012805175781,2056.844,638.8592805175781ZM2053.575,658.1972805175782L2067.277,658.0522805175781C2067.814,654.6652805175781,2068.376,651.2862805175781,2068.9610000000002,647.9152805175781L2055.263,647.8122805175781C2054.675,651.2662805175781,2054.1130000000003,654.7272805175782,2053.575,658.1972805175782Z" fill="#D8D8D8" fill-opacity="0.501960813999176"/></g></g></svg>