<svg xmlns="http://www.w3.org/2000/svg" xmlns:xlink="http://www.w3.org/1999/xlink" fill="none" version="1.1" width="1381" height="769" viewBox="0 0 1381 769"><g transform="matrix(-1,0,0,-1,2762,1538)"><g><path d="M1381,769L1400.3718,779.9697L1412.2074,779.9696L1494.3029999999999,779.9696L2208.7,1181.909L2218.822,1203.848L2272.802,1231.694L2295.575,1276.979L2300.636,1289.763L2384.46,1337.23L2394.5299999999997,1342.4C2412.87,1307.9769999999999,2435.92,1276.439,2462.81,1248.643L2487.8900000000003,1264.444C2417.88,1334.3809999999999,2374.578,1430.998,2374.578,1537.719L2397.07,1537.719C2397.07,1430.511,2443.3599999999997,1334.113,2517.06,1267.412L2497.16,1256.284L2470.79,1241.538L2459.8199999999997,1235.406C2431.99,1263.247,2407.98,1294.9099999999999,2388.65,1329.54L2339.1530000000002,1301.1680000000001L2300.636,1222.1309999999999L1494.3029999999999,769L1381,769ZM1429.6386,989.237L1658.493,1119.747L1835.335,1119.747L2005.4299999999998,1213.974L2005.4299999999998,1226.6309999999999L2102.707,1282.886L2213.48,1282.886L2368.759,1370.074C2349.244,1415.833,2337.475,1465.691,2335.101,1517.999L2058.839,1517.9940000000001C2059.554,1492.058,2061.674,1466.4740000000002,2065.126,1441.315L2051.4700000000003,1441.478C2047.771,1469.0720000000001,2045.641,1497.163,2045.171,1525.659L2058.583,1525.659L2334.6549999999997,1525.659L2346.072,1525.659C2347.659,1469.942,2360.203,1416.969,2381.63,1368.8229999999999L2371.766,1363.048L2201.953,1264.444L2107.768,1264.444L1840.958,1110.465L1681.829,1110.465L1465.9068,989.237L1429.6386,989.237ZM2060.3540000000003,1389.71L2074.154,1389.845C2074.84,1386.643,2075.548,1383.449,2076.2780000000002,1380.263L2062.281,1380.8020000000001C2061.621,1383.7640000000001,2060.978,1386.734,2060.3540000000003,1389.71Z" fill="#FFFFFF" fill-opacity="1"/></g><g style="opacity:0.5;"><path d="M1400.3718,780.25095L2300.636,1290.04425L2295.575,1277.26025L1412.2074,780.25085L1400.3718,780.25095ZM2056.844,1407.85925L2070.5370000000003,1408.17425C2071.133,1404.98425,2071.75,1401.80125,2072.389,1398.62625L2058.583,1398.70725C2057.984,1401.75125,2057.404,1404.80125,2056.844,1407.85925ZM2053.575,1427.1972500000002L2067.277,1427.05225C2067.814,1423.66525,2068.376,1420.28625,2068.9610000000002,1416.91525L2055.263,1416.81225C2054.675,1420.2662500000001,2054.1130000000003,1423.72725,2053.575,1427.1972500000002Z" fill="#D8D8D8" fill-opacity="0.501960813999176"/></g></g></svg>