<svg xmlns="http://www.w3.org/2000/svg" xmlns:xlink="http://www.w3.org/1999/xlink" fill="none" version="1.1" width="1381" height="768" viewBox="0 0 1381 768"><g><g><path d="M0,0L19.3718,10.9554L31.2074,10.9554L113.303,10.9554L827.7,412.372L837.822,434.282L891.802,462.092L914.575,507.318L919.636,520.086L1003.46,567.491L1013.53,572.655C1031.87,538.276,1054.92,506.779,1081.81,479.02L1106.89,494.8C1036.88,564.646,993.578,661.137,993.578,767.719L1016.07,767.719C1016.07,660.651,1062.36,564.378,1136.06,497.764L1116.16,486.65L1089.79,471.924L1078.82,465.799C1050.99,493.604,1026.98,525.226,1007.65,559.811L958.153,531.476L919.636,452.541L113.303,0L0,0ZM48.6386,219.95L277.493,350.291L454.335,350.291L624.43,444.395L624.43,457.036L721.707,513.217L832.48,513.217L987.759,600.292C968.244,645.992,956.475,695.785,954.101,748.025L677.839,748.02C678.554,722.118,680.674,696.567,684.126,671.441L670.47,671.603C666.771,699.162,664.641,727.216,664.171,755.675L677.583,755.675L953.655,755.675L965.072,755.675C966.659,700.03,979.203,647.127,1000.63,599.043L990.766,593.276L820.953,494.8L726.768,494.8L459.958,341.021L300.829,341.021L84.9068,219.95L48.6386,219.95ZM679.354,619.902L693.154,620.038C693.84,616.84,694.548,613.65,695.278,610.468L681.281,611.006C680.621,613.965,679.978,616.93,679.354,619.902Z" fill="#FFFFFF" fill-opacity="1"/></g><g style="opacity:0.5;"><path d="M19.3718,11.236314306640624L919.636,520.3669143066406L914.575,507.5989143066406L31.2074,11.236314306640624L19.3718,11.236314306640624ZM675.844,638.0279143066406L689.537,638.3429143066406C690.133,635.1569143066406,690.75,631.9789143066406,691.389,628.8079143066407L677.583,628.8879143066406C676.984,631.9279143066407,676.404,634.9749143066406,675.844,638.0279143066406ZM672.575,657.3409143066406L686.277,657.1959143066406C686.814,653.8139143066406,687.376,650.4389143066406,687.961,647.0719143066407L674.263,646.9699143066406C673.675,650.4189143066407,673.113,653.8759143066407,672.575,657.3409143066406Z" fill="#D8D8D8" fill-opacity="0.501960813999176"/></g></g></svg>